<?xml version="1.0" encoding="UTF-8"?>
<svg version="1.1" xmlns="http://www.w3.org/2000/svg" width="512" height="512">
<path d="M0 0 C10.33472856 7.54764096 17.45475655 17.52947947 20.1796875 30.16796875 C21.86971796 43.71201566 19.79659387 56.05686986 11.4453125 67.03515625 C6.69554674 72.5641157 1.73108328 76.71356936 -4.54296875 80.390625 C-5.55359375 81.009375 -6.56421875 81.628125 -7.60546875 82.265625 C-8.24484375 82.636875 -8.88421875 83.008125 -9.54296875 83.390625 C-0.63172794 91.18796071 9.08964239 93.91083509 20.828125 93.69921875 C31.04431232 92.83045793 38.47840775 88.50841938 46.45703125 82.390625 C55.85357244 75.47566294 62.5329913 72.17419271 74.45703125 73.390625 C81.49442004 75.21403806 87.83596724 78.35219213 91.89453125 84.60546875 C96.6846237 93.00173875 98.1658843 101.43168127 95.80859375 111.03125 C88.76426929 128.25070978 68.44809244 138.09466067 52.45703125 145.390625 C36.77670489 151.94918773 20.27994299 154.60588099 3.39453125 154.453125 C2.43353516 154.44861328 1.47253906 154.44410156 0.48242188 154.43945312 C-1.85944297 154.42780206 -4.20117056 154.41144525 -6.54296875 154.390625 C-6.77757812 155.60878906 -7.0121875 156.82695312 -7.25390625 158.08203125 C-8.64986574 164.36631095 -10.925627 170.3053352 -13.16796875 176.328125 C-13.99629546 178.56536939 -14.82196104 180.80360146 -15.64453125 183.04296875 C-16.19101318 184.51237915 -16.19101318 184.51237915 -16.74853516 186.01147461 C-17.64854346 188.28875048 -17.64854346 188.28875048 -17.54296875 190.390625 C-16.42921875 190.865 -15.31546875 191.339375 -14.16796875 191.828125 C-2.91306352 197.50537808 5.71407694 207.71713025 9.89453125 219.515625 C14.56706023 237.36180397 8.97914684 253.34831198 4.01141357 270.47143555 C2.78189332 274.72785246 1.58801755 278.99440145 0.39086914 283.26000977 C-0.21954722 285.42894277 -0.83599697 287.59618919 -1.45922852 289.76147461 C-1.73436279 290.72577393 -2.00949707 291.69007324 -2.29296875 292.68359375 C-2.5353125 293.5243042 -2.77765625 294.36501465 -3.02734375 295.23120117 C-3.65909367 297.5069313 -3.65909367 297.5069313 -3.54296875 300.390625 C-3.06991806 299.90869186 -2.59686737 299.42675873 -2.10948181 298.93022156 C2.82649121 293.90559276 7.77661642 288.8952287 12.73510742 283.89282227 C14.58250959 282.02533435 16.426302 280.15426818 18.26635742 278.27954102 C20.91549455 275.58175649 23.57744817 272.89720741 26.2421875 270.21484375 C27.46761009 268.95845345 27.46761009 268.95845345 28.7177887 267.67668152 C36.58971221 259.80171 36.58971221 259.80171 42.45703125 258.390625 C50.07681888 259.01767795 53.75956278 262.88766914 58.89453125 268.2421875 C59.66007324 269.01621918 60.42561523 269.79025085 61.21435547 270.58773804 C63.64309368 273.04991549 66.05007251 275.53217087 68.45703125 278.015625 C70.10537517 279.6940801 71.75510079 281.37117947 73.40625 283.046875 C77.43930999 287.14589383 81.45473226 291.2615776 85.45703125 295.390625 C91.01143049 290.76571121 96.14228794 285.83701536 101.234375 280.7109375 C102.04572403 279.89817352 102.85707306 279.08540955 103.69300842 278.24801636 C106.26255715 275.67290762 108.82859093 273.0943288 111.39453125 270.515625 C113.14495054 268.76018554 114.89559925 267.00497483 116.64648438 265.25 C120.91932427 260.96618418 125.18929024 256.67952028 129.45703125 252.390625 C128.49659242 251.26360809 127.53523445 250.13737443 126.57348633 249.01147461 C126.0382283 248.38421982 125.50297028 247.75696503 124.95149231 247.11070251 C123.86664227 245.86207435 122.7415031 244.64809579 121.59375 243.45703125 C118.8532046 240.61306904 117.07243874 238.26200724 116.33203125 234.328125 C116.4841805 229.53542352 117.10739068 227.82001892 120.45703125 224.390625 C129.12009027 220.88193943 138.42155805 219.41597171 147.5546875 217.59765625 C149.31633529 217.24349944 151.07792595 216.88905834 152.83946228 216.53434753 C156.51762014 215.7951564 160.19661158 215.06030046 163.8762207 214.32836914 C168.57743824 213.39272898 173.27609993 212.44488594 177.97417545 211.49361134 C181.60632617 210.75982476 185.2398903 210.03324276 188.87389946 209.30872154 C190.60661676 208.96223917 192.33886231 208.61338843 194.07060432 208.26206398 C196.49495716 207.77120589 198.92108721 207.2902921 201.34790039 206.81176758 C202.05305786 206.6668689 202.75821533 206.52197021 203.48474121 206.37268066 C215.37818631 204.0637027 215.37818631 204.0637027 220.39453125 207.265625 C223.9960371 210.97626739 223.76617121 213.8410731 223.71377563 218.83551025 C223.16173705 226.4795353 221.40350832 233.9547763 219.84375 241.4453125 C219.46912262 243.27835643 219.09517694 245.1115398 218.72187805 246.94485474 C217.94106724 250.76710971 217.15266872 254.58769569 216.35864258 258.40722656 C215.34272638 263.29679548 214.34512214 268.18988817 213.35299969 273.08433342 C212.58529241 276.86216806 211.80843611 280.63807564 211.0287571 284.41345596 C210.65726784 286.21738264 210.28850443 288.02187293 209.92255211 289.826931 C209.41029735 292.34610499 208.88587765 294.86244542 208.3581543 297.37841797 C208.13588921 298.4896981 208.13588921 298.4896981 207.90913391 299.62342834 C206.89460907 304.37568542 205.72445916 308.69005407 201.70703125 311.703125 C198.42559312 312.70578665 195.87483956 312.74419138 192.45703125 312.390625 C187.84044634 309.70392395 184.25752678 306.4459614 180.58203125 302.640625 C180.08445312 302.13402344 179.586875 301.62742187 179.07421875 301.10546875 C177.86379923 299.87177193 176.65973272 298.63184716 175.45703125 297.390625 C172.42197774 298.74864394 170.33019878 300.27091862 167.99032593 302.62355042 C167.32299942 303.28957275 166.65567291 303.95559509 165.96812439 304.64179993 C164.88634666 305.73672005 164.88634666 305.73672005 163.78271484 306.85375977 C163.01481125 307.6229776 162.24690765 308.39219543 161.45573425 309.1847229 C158.91768727 311.72926304 156.38668466 314.2806973 153.85546875 316.83203125 C152.09528579 318.59848339 150.33458751 320.36442217 148.57339478 322.12986755 C144.41101224 326.30419944 140.25275368 330.48260058 136.0968138 334.66334623 C128.2084397 342.59871775 120.31293788 350.52697762 112.41341019 358.45124626 C109.81516451 361.05974788 107.22034006 363.67161815 104.62582397 366.28382874 C103.04151653 367.87496128 101.4571007 369.46598591 99.87255859 371.05688477 C98.78470818 372.15484123 98.78470818 372.15484123 97.67488098 373.27497864 C97.01319412 373.93818115 96.35150726 374.60138367 95.66976929 375.28468323 C95.09423498 375.86373696 94.51870068 376.4427907 93.92572594 377.03939152 C90.96308777 379.76508796 88.00758553 380.06198442 84.09716797 379.94506836 C80.78772335 379.25006663 79.47890861 378.04506725 77.02734375 375.73046875 C76.15883789 374.91384766 75.29033203 374.09722656 74.39550781 373.25585938 C73.41366469 372.30319823 72.4343143 371.3479635 71.45703125 370.390625 C70.91896851 369.8642041 70.38090576 369.3377832 69.82653809 368.79541016 C65.62900421 364.67204402 61.47794771 360.5032769 57.33203125 356.328125 C56.07705921 355.06812398 54.82185239 353.80835676 53.56640625 352.54882812 C50.52724041 349.49877647 47.49124898 346.4455988 44.45703125 343.390625 C40.81392018 344.92425093 38.51557256 347.10121217 35.75195312 349.90039062 C34.82419067 350.83475952 33.89642822 351.76912842 32.94055176 352.73181152 C32.4493837 353.2312175 31.95821564 353.73062347 31.4521637 354.24516296 C29.9096556 355.81326825 28.36092393 357.37497877 26.8104248 358.93518066 C23.52032572 362.24810441 20.23812519 365.56878553 16.95703125 368.890625 C13.15410596 372.74077607 9.34799867 376.58766352 5.53334045 380.42619324 C4.00924484 381.96323336 2.49130918 383.50618339 0.97351074 385.04943848 C0.04574829 385.98380737 -0.88201416 386.91817627 -1.83789062 387.88085938 C-2.65189331 388.70533569 -3.465896 389.52981201 -4.30456543 390.37927246 C-7.36023686 393.12499413 -9.37461484 394.31604922 -13.48046875 394.578125 C-16.54296875 394.390625 -16.54296875 394.390625 -18.87109375 393.5390625 C-21.8104091 393.0782994 -21.8104091 393.0782994 -24.4375 395.69921875 C-25.42582989 396.72734716 -26.39812442 397.77108393 -27.35546875 398.828125 C-28.10860352 399.62186523 -28.10860352 399.62186523 -28.87695312 400.43164062 C-30.11292043 401.73823464 -31.3298547 403.06278563 -32.54296875 404.390625 C-32.21296875 405.380625 -31.88296875 406.370625 -31.54296875 407.390625 C-31.01202176 412.03858719 -30.89512052 415.35406784 -33.41796875 419.390625 C-36.77708348 422.55214475 -38.89827898 422.50604443 -43.47265625 422.5234375 C-45.54296875 422.390625 -45.54296875 422.390625 -47.4375 421.55859375 C-49.85599062 421.1293716 -49.85599062 421.1293716 -52.375 423.55859375 C-53.38164802 424.55194391 -54.3747601 425.55915723 -55.35546875 426.578125 C-55.87044922 427.07376953 -56.38542969 427.56941406 -56.91601562 428.08007812 C-58.58208437 429.70680922 -58.58208437 429.70680922 -60.54296875 432.390625 C-60.51161209 434.5534439 -60.51161209 434.5534439 -59.54296875 436.390625 C-59.00002814 442.25438361 -60.07672576 444.71820451 -63.54296875 449.390625 C-65.33413528 451.35507744 -67.12730917 453.23922968 -69.01416016 455.10473633 C-69.54797806 455.64045258 -70.08179596 456.17616882 -70.63179016 456.7281189 C-72.38120303 458.48120895 -74.1376618 460.22704152 -75.89453125 461.97265625 C-77.11750168 463.1944335 -78.34010149 464.41658182 -79.56234741 465.63908386 C-82.11628055 468.19145766 -84.67352412 470.74045038 -87.23339844 473.28686523 C-90.51833417 476.55474883 -93.79658536 479.82923993 -97.07262611 483.10603809 C-99.5927093 485.62584985 -102.11538624 488.14305093 -104.63895798 490.65936852 C-105.84924655 491.86647137 -107.05892729 493.07418398 -108.26799393 494.28251076 C-109.95301586 495.9653717 -111.6412845 497.64490308 -113.33056641 499.32348633 C-113.83138229 499.8247554 -114.33219818 500.32602448 -114.84819031 500.84248352 C-118.11804768 504.08200707 -120.06886122 505.5701297 -124.66796875 505.890625 C-128.43874591 505.77872209 -130.2521989 505.24037278 -133.0078125 502.66796875 C-133.69488281 502.03165527 -134.38195312 501.3953418 -135.08984375 500.73974609 C-135.899375 499.96453613 -136.70890625 499.18932617 -137.54296875 498.390625 C-138.56362705 497.4290134 -139.584473 496.46760096 -140.60546875 495.50634766 C-143.50047049 492.76569422 -146.35676354 489.98789983 -149.19995117 487.19360352 C-150.39249833 486.02787355 -151.59215038 484.86937028 -152.79858398 483.71801758 C-154.56262967 482.0331905 -156.30248892 480.32635684 -158.0390625 478.61328125 C-158.57752304 478.10781265 -159.11598358 477.60234406 -159.67076111 477.08155823 C-162.96096937 473.77339722 -164.24599159 471.0810846 -164.90834045 466.60545349 C-163.52226646 458.20328073 -155.90955991 452.35296926 -150.17480469 446.68188477 C-149.109544 445.6174713 -148.04494546 444.55239481 -146.98095703 443.48670959 C-144.10366534 440.60856026 -141.21724518 437.73972852 -138.32905102 434.87252545 C-135.30742715 431.86970689 -132.29434607 428.85834079 -129.28033447 425.84788513 C-123.57741311 420.15427292 -117.86689045 414.46834876 -112.15357232 408.78517145 C-105.64706287 402.3122412 -99.14911107 395.83074907 -92.65185118 389.34853661 C-79.29169924 376.01970809 -65.92088009 362.70162744 -52.54296875 349.390625 C-55.14097783 347.28768342 -57.71588465 345.27289503 -60.48046875 343.390625 C-65.72289364 338.89711795 -68.99130146 332.27319995 -69.95532227 325.48852539 C-70.0822449 311.56223256 -67.3651787 297.89862092 -65.10546875 284.203125 C-64.78383477 282.21487548 -64.46440047 280.22628307 -64.14546299 278.23759937 C-63.26836176 272.76973432 -62.38349902 267.30311717 -61.48266602 261.83911133 C-61.32500259 260.88063797 -61.16733917 259.92216461 -61.00489807 258.93464661 C-60.60290815 256.72073422 -60.12095113 254.56422969 -59.54296875 252.390625 C-61.19296875 252.390625 -62.84296875 252.390625 -64.54296875 252.390625 C-64.77693359 253.18380127 -65.01089844 253.97697754 -65.25195312 254.79418945 C-66.89302941 259.36580343 -69.01486581 263.60059807 -71.19921875 267.93359375 C-71.89186829 269.31820549 -71.89186829 269.31820549 -72.59851074 270.73078918 C-73.57842736 272.68760574 -74.56028463 274.64345152 -75.54394531 276.59838867 C-77.01425505 279.52104834 -78.47837559 282.44673792 -79.94140625 285.37304688 C-84.25206867 293.97759854 -88.60372143 302.55307117 -93.12890625 311.046875 C-97.95053624 320.11922919 -102.53303315 329.3082142 -107.11328125 338.50390625 C-107.49794807 339.27590551 -107.8826149 340.04790478 -108.27893829 340.84329796 C-111.89340295 348.09862777 -115.50288515 355.35643049 -119.10791016 362.61645508 C-121.10002359 366.62774797 -123.09621951 370.6369886 -125.09478378 374.64507103 C-125.84333158 376.14828089 -126.59037251 377.65224229 -127.33572769 379.15703773 C-143.45771887 411.70348691 -143.45771887 411.70348691 -155.85546875 416.828125 C-165.58405194 419.92785288 -174.46525707 419.08077604 -183.54296875 414.390625 C-190.59866243 409.50136076 -195.13527462 403.67710564 -197.54296875 395.390625 C-198.99191894 385.87743561 -197.22930523 378.12940435 -193.91796875 369.265625 C-193.58748535 368.36513428 -193.25700195 367.46464355 -192.91650391 366.53686523 C-190.68996863 360.97576594 -188.69840114 357.56026121 -183.54296875 354.390625 C-181.23296875 354.060625 -178.92296875 353.730625 -176.54296875 353.390625 C-173.57296875 344.975625 -173.57296875 344.975625 -170.54296875 336.390625 C-171.86296875 335.730625 -173.18296875 335.070625 -174.54296875 334.390625 C-176.36290947 331.35739047 -176.54393986 329.44500724 -176.48046875 325.890625 C-175.32590574 321.58025643 -174.15321167 320.00229009 -170.54296875 317.390625 C-167.90296875 317.060625 -165.26296875 316.730625 -162.54296875 316.390625 C-160.56296875 311.110625 -158.58296875 305.830625 -156.54296875 300.390625 C-158.19296875 298.410625 -159.84296875 296.430625 -161.54296875 294.390625 C-163.92225806 286.94572377 -159.30684712 278.57721717 -156.54296875 271.828125 C-156.06601563 270.62865234 -155.5890625 269.42917969 -155.09765625 268.19335938 C-153.92633677 265.25334747 -152.74125199 262.3197264 -151.54296875 259.390625 C-151.87296875 259.060625 -152.20296875 258.730625 -152.54296875 258.390625 C-153.22810547 259.09670898 -153.91324219 259.80279297 -154.61914062 260.53027344 C-157.18808287 263.17216208 -159.77068913 265.80034247 -162.35742188 268.42480469 C-163.4705116 269.55788618 -164.57997028 270.6945475 -165.68554688 271.83496094 C-180.1461604 286.7393117 -180.1461604 286.7393117 -191.1875 287.48046875 C-203.64830787 287.00518089 -210.88599427 278.1906653 -219.1965332 269.9140625 C-220.27370354 268.84674896 -220.27370354 268.84674896 -221.37263489 267.75787354 C-223.7200412 265.42999127 -226.06357846 263.09827157 -228.40625 260.765625 C-229.21157858 259.96437195 -230.01690716 259.1631189 -230.84663963 258.33758545 C-235.10001695 254.1049685 -239.3501817 249.86915475 -243.59790039 245.63085938 C-247.97863907 241.2612313 -252.37093818 236.90341467 -256.76586628 232.54806519 C-260.15342056 229.1866443 -263.53206951 225.81637868 -266.90837669 222.44366455 C-268.52412044 220.83278637 -270.14323655 219.22528324 -271.76580238 217.62127686 C-274.03218813 215.37923603 -276.28561592 213.12489863 -278.53637695 210.8671875 C-279.20497742 210.21139709 -279.87357788 209.55560669 -280.56243896 208.87994385 C-286.27969224 203.09816049 -288.96242534 197.92232368 -289.10546875 189.578125 C-289.14800781 188.45792969 -289.19054687 187.33773437 -289.234375 186.18359375 C-287.19751024 175.00960686 -277.91268968 167.18301367 -270.171875 159.5234375 C-268.96344872 158.3148559 -267.75569185 157.10560463 -266.54856873 155.89572144 C-264.03077511 153.3765515 -261.50622406 150.86442641 -258.97631836 148.35742188 C-255.74550954 145.15507159 -252.53058824 141.93730773 -249.32034397 138.71435738 C-246.83373542 136.22077403 -244.3397805 133.73464537 -241.84348869 131.25075912 C-240.65539233 130.06715434 -239.46934593 128.88148789 -238.28546333 127.69366837 C-236.62797431 126.03324744 -234.96102993 124.38292185 -233.29125977 122.73486328 C-232.81156235 122.25066422 -232.33186493 121.76646515 -231.83763123 121.26759338 C-226.27544434 115.82420709 -220.26914938 112.35335089 -212.41796875 112.078125 C-200.7919658 112.42145657 -194.06808703 119.06579694 -186.41796875 127.140625 C-185.45325554 128.13550577 -184.48711777 129.12900724 -183.51953125 130.12109375 C-181.17969069 132.53112953 -178.85510223 134.95404603 -176.54296875 137.390625 C-173.39855603 136.59093942 -173.39855603 136.59093942 -171.23046875 134.078125 C-165.88082193 128.72847818 -160.39719277 126.48839142 -153.35546875 124.265625 C-128.4902614 115.95425026 -106.7881135 100.73091 -90.23046875 80.328125 C-83.73110686 72.809545 -74.77855622 68.61606878 -65.54296875 65.390625 C-66.58313007 62.11011624 -67.72179383 58.98290382 -69.10546875 55.828125 C-73.51993111 45.27180197 -72.92541943 31.58801626 -68.80078125 21.03125 C-62.39155603 7.57585792 -52.9989461 0.10775823 -39.54296875 -5.609375 C-26.47703255 -9.45093554 -11.33481938 -7.17349552 0 0 Z M-129.16796875 175.890625 C-130.95074219 176.58671875 -130.95074219 176.58671875 -132.76953125 177.296875 C-133.68476563 177.6578125 -134.6 178.01875 -135.54296875 178.390625 C-134.65329531 179.47902274 -133.75585301 180.56107108 -132.85546875 181.640625 C-132.35660156 182.24390625 -131.85773438 182.8471875 -131.34375 183.46875 C-129.15604942 185.89516461 -129.15604942 185.89516461 -124.54296875 189.390625 C-123.22296875 184.110625 -121.90296875 178.830625 -120.54296875 173.390625 C-123.68326322 173.390625 -126.26127344 174.75074449 -129.16796875 175.890625 Z " fill="#010000" transform="translate(288.54296875,6.609375)"/>
<path d="M0 0 C-0.63784726 6.61068431 -1.70655593 13.00626416 -3.06640625 19.50390625 C-3.26475571 20.4677977 -3.46310516 21.43168915 -3.66746521 22.42478943 C-4.29532284 25.47149683 -4.92881426 28.51700005 -5.5625 31.5625 C-5.99191092 33.64119872 -6.42095101 35.71997408 -6.84960938 37.79882812 C-7.89545531 42.86678139 -8.94635182 47.93366336 -10 53 C-10.66 53 -11.32 53 -12 53 C-13.82729049 51.06469234 -15.46895378 49.00952377 -17.1484375 46.9453125 C-19.78334571 44.17699122 -22.03920433 43.19652639 -25.75 42.4375 C-33.31195927 43.74630064 -39.61410233 52.47278744 -44.88476562 57.77124023 C-45.6272052 58.51353378 -46.36964478 59.25582733 -47.13458252 60.02061462 C-49.56085277 62.44757535 -51.98357275 64.87804682 -54.40625 67.30859375 C-56.09853577 69.00274677 -57.79104407 70.69667753 -59.48376465 72.39039612 C-63.91807358 76.82850599 -68.34936997 81.26961179 -72.7800293 85.71136475 C-77.30985792 90.25145978 -81.8425519 94.78869216 -86.375 99.32617188 C-95.25279427 108.2146607 -104.12750395 117.10622264 -113 126 C-116.92023775 124.08739303 -119.76607194 121.9399346 -123 119 C-123 118.34 -123 117.68 -123 117 C-123.66 117 -124.32 117 -125 117 C-125 116.34 -125 115.68 -125 115 C-125.66 115 -126.32 115 -127 115 C-127 114.34 -127 113.68 -127 113 C-127.99 112.67 -128.98 112.34 -130 112 C-131.6875 110.5625 -131.6875 110.5625 -133 109 C-133 108.34 -133 107.68 -133 107 C-133.66 107 -134.32 107 -135 107 C-136.625 105.625 -136.625 105.625 -138 104 C-138 103.34 -138 102.68 -138 102 C-138.99 101.67 -139.98 101.34 -141 101 C-142.61328125 99.29296875 -142.61328125 99.29296875 -144.3125 97.1875 C-147.9774711 92.89886786 -151.23564182 89.66104217 -156.875 88.3125 C-166.01473325 90.32324132 -174.03510232 101.88925279 -180.55859375 108.42578125 C-181.7553118 109.62182453 -182.95217816 110.81771943 -184.14918518 112.01347351 C-186.64104063 114.50386355 -189.13110043 116.99603119 -191.61987305 119.48950195 C-194.81318977 122.68855266 -198.01102568 125.88304254 -201.21018887 129.07624531 C-203.67488564 131.53733683 -206.13720609 134.0007947 -208.59880257 136.4649868 C-209.77785882 137.6447105 -210.95765937 138.82369081 -212.1382122 140.00191689 C-213.78003439 141.64120915 -215.41863361 143.28365553 -217.05639648 144.92700195 C-217.98935043 145.8607515 -218.92230438 146.79450104 -219.88352966 147.75654602 C-222.32787948 150.34755154 -222.94636811 151.21339896 -223.1875 154.75 C-223.11086279 158.53761811 -223.11086279 158.53761811 -221 164 C-224.96 167.96 -228.92 171.92 -233 176 C-232.67 176.99 -232.34 177.98 -232 179 C-231.46905301 183.64796219 -231.35215177 186.96344284 -233.875 191 C-237.23411473 194.16151975 -239.35531023 194.11541943 -243.9296875 194.1328125 C-246 194 -246 194 -247.94091797 193.33374023 C-248.96016357 193.16853882 -248.96016357 193.16853882 -250 193 C-252.29016466 194.91934784 -254.23281698 196.76347858 -256.25 198.9375 C-256.80429687 199.51435547 -257.35859375 200.09121094 -257.9296875 200.68554688 C-259.29794145 202.11277729 -260.6505038 203.55502058 -262 205 C-262.93070312 204.68160156 -263.86140625 204.36320313 -264.8203125 204.03515625 C-268.36876077 202.87994889 -270.31139588 202.33605126 -274 203 C-280.67926828 207.84687766 -286.38807983 214.25713874 -292.1875 220.08984375 C-293.13991612 221.04412993 -294.09255695 221.99819188 -295.04541016 222.95204163 C-297.52666925 225.4370797 -300.00490791 227.92510796 -302.48248291 230.41381836 C-305.02162485 232.96327496 -307.56367646 235.50982688 -310.10546875 238.05664062 C-315.07312882 243.03495631 -320.03759686 248.01644371 -325 253 C-326.11674511 252.04957913 -327.23252489 251.09802392 -328.34790039 250.14599609 C-328.9693544 249.61622162 -329.59080841 249.08644714 -330.23109436 248.5406189 C-332.39444368 246.65646139 -334.42699013 244.67078197 -336.4375 242.625 C-337.45650391 241.59246094 -337.45650391 241.59246094 -338.49609375 240.5390625 C-338.99238281 240.03117188 -339.48867188 239.52328125 -340 239 C-335.74602351 233.92440745 -331.30343612 229.15304085 -326.62374878 224.46984863 C-325.90273928 223.74445688 -325.18172978 223.01906512 -324.4388715 222.2716918 C-322.03696821 219.85649836 -319.63155609 217.444832 -317.22607422 215.03320312 C-315.49753467 213.29675569 -313.76917626 211.56012792 -312.04098511 209.82333374 C-306.87055986 204.62904763 -301.69583351 199.43906148 -296.51993865 194.25022721 C-295.05797642 192.78454728 -293.59614189 191.31874012 -292.13435221 189.85288811 C-283.04949231 180.74281463 -273.96304722 171.6343255 -264.87180901 162.53061676 C-262.7717789 160.42765726 -260.67176498 158.32468159 -258.57177734 156.22167969 C-258.04987139 155.69902769 -257.52796545 155.17637569 -256.99024417 154.63788575 C-248.51390547 146.14886127 -240.04791429 137.64959329 -231.58604632 129.14614683 C-222.89405168 120.4117935 -214.19271491 111.68683577 -205.48213208 102.97101927 C-200.59308133 98.07855039 -195.70830568 93.18196989 -190.83401108 88.27479553 C-186.25706337 83.6670224 -181.66763339 79.07196594 -177.06932449 74.48549271 C-175.37987256 72.79626282 -173.69473118 71.10270969 -172.0141449 69.40465927 C-169.72816243 67.0962106 -167.42749281 64.80350728 -165.12228394 62.51428223 C-164.45322112 61.83133732 -163.7841583 61.14839242 -163.09482086 60.44475222 C-162.47747923 59.83798254 -161.86013761 59.23121285 -161.22408867 58.60605621 C-160.69421376 58.07482478 -160.16433885 57.54359334 -159.61840713 56.99626398 C-158 56 -158 56 -155.90781891 56.24655962 C-153.49480705 57.199512 -152.25692749 58.44251793 -150.47583008 60.32641602 C-149.80445511 61.0270668 -149.13308014 61.72771759 -148.44136047 62.44960022 C-147.72465683 63.21002121 -147.00795319 63.9704422 -146.26953125 64.75390625 C-144.7294189 66.34657708 -143.18837366 67.93834625 -141.64648438 69.52929688 C-139.224849 72.04376038 -136.81082282 74.56427444 -134.4128418 77.10131836 C-132.09372617 79.54769817 -129.74695953 81.96460129 -127.39453125 84.37890625 C-126.68794876 85.14135147 -125.98136627 85.90379669 -125.25337219 86.68934631 C-121.99843093 89.9933761 -119.33074631 92.49778762 -114.6003418 93.03881836 C-108.1578402 92.41398751 -104.27418742 87.41008837 -100 83 C-99.04857132 82.06272035 -98.09398103 81.12864068 -97.13647461 80.1975708 C-93.96933082 77.10986875 -90.8430924 73.98248027 -87.71875 70.8515625 C-86.57212621 69.70561416 -85.42535417 68.55981415 -84.27844238 67.41415405 C-81.89689452 65.03406765 -79.51713255 62.65221433 -77.13867188 60.26904297 C-74.09124531 57.21587428 -71.03928861 54.1672793 -67.98601532 51.11995888 C-65.62679392 48.76434651 -63.26995364 46.40636343 -60.91383362 44.04764938 C-59.78863379 42.92178359 -58.66269371 41.79665709 -57.53599548 40.6722908 C-55.96883112 39.1076635 -54.40490312 37.53987148 -52.84179688 35.97119141 C-51.95262573 35.08122467 -51.06345459 34.19125793 -50.14733887 33.27432251 C-46.36507278 29.26839078 -45.46124561 26.76752188 -45.53125 21.4296875 C-46.36195988 17.12384127 -49.09986306 14.1677091 -52 11 C-46.63320316 9.02542906 -41.19969956 7.93416849 -35.60546875 6.8359375 C-34.61750809 6.63900299 -33.62954742 6.44206848 -32.61164856 6.23916626 C-30.53352864 5.82561977 -28.45504419 5.41390136 -26.3762207 5.00390625 C-23.18038515 4.37359675 -19.98561986 3.73808047 -16.79101562 3.1015625 C-14.77089287 2.70022103 -12.75071257 2.29916908 -10.73046875 1.8984375 C-9.77013229 1.7078476 -8.80979584 1.51725769 -7.82035828 1.32089233 C-6.93886612 1.14716095 -6.05737396 0.97342957 -5.14916992 0.79443359 C-4.3700676 0.64058197 -3.59096527 0.48673035 -2.78825378 0.32821655 C-1 0 -1 0 0 0 Z " fill="#FC616F" transform="translate(489,235)"/>
<path d="M0 0 C9.96256196 -0.11637027 19.92495954 -0.20495527 29.88806534 -0.25906086 C34.51546663 -0.28504231 39.14239947 -0.32022805 43.76953125 -0.37719727 C48.2434925 -0.43192956 52.71700607 -0.46150643 57.19127655 -0.47438622 C58.88957507 -0.48355277 60.5878519 -0.50145114 62.28595734 -0.52865028 C73.09020927 -0.69466339 83.70565355 -0.63735434 92.25494385 7.01957703 C98.00164554 13.11716419 100.59430763 19.03244845 100.55297852 27.43603516 C100.2276871 36.25527775 97.41494497 44.60625977 94.89404297 52.99951172 C93.36603872 58.12763084 91.9387417 63.28377453 90.5 68.4375 C90.20681885 69.47745117 89.9136377 70.51740234 89.61157227 71.58886719 C87.87530682 77.76757732 86.21855295 83.96109371 84.62841797 90.17895508 C82.69291141 97.74724983 80.74045142 105.30279814 78.375 112.75 C78.01148438 113.89984375 77.64796875 115.0496875 77.2734375 116.234375 C75.88533787 119.24902081 74.88638904 120.41520904 72 122 C68.5 122.4375 68.5 122.4375 65 122 C62.63502561 120.13291495 61.33969285 118.67938569 60 116 C59.58625383 109.46537544 60.80772273 103.20414639 61.8984375 96.77734375 C62.19096909 95.01083214 62.19096909 95.01083214 62.4894104 93.20863342 C63.1126562 89.45068716 63.74348262 85.69406426 64.375 81.9375 C64.99797256 78.2057106 65.61931938 74.4736581 66.23916626 70.74134827 C66.6243868 68.42461754 67.01159232 66.10821559 67.4012146 63.79222107 C71.36559568 46.8884788 71.36559568 46.8884788 71 30 C67.08923136 26.08284047 64.36579494 25.4814534 58.90625 25.43359375 C58.23710571 25.42739517 57.56796143 25.42119659 56.87854004 25.41481018 C55.46998543 25.4077362 54.06134679 25.41084381 52.65283203 25.42358398 C50.50526349 25.43746598 48.36204566 25.4033402 46.21484375 25.36523438 C44.84114477 25.36428314 43.46744038 25.36614223 42.09375 25.37109375 C40.85302734 25.37036865 39.61230469 25.36964355 38.33398438 25.36889648 C34.00538364 26.18827499 32.70839765 27.56464321 30 31 C28.5965116 33.41378432 27.34343689 35.74972792 26.14453125 38.2578125 C25.79798996 38.96034149 25.45144867 39.66287048 25.09440613 40.38668823 C23.99081043 42.62822244 22.90106081 44.87613177 21.8125 47.125 C20.38570339 50.04633431 18.95328457 52.96488711 17.51953125 55.8828125 C16.96514877 57.01387421 16.96514877 57.01387421 16.39956665 58.16778564 C13.89055712 63.26335627 11.27802455 68.29335038 8.60546875 73.3046875 C3.6722693 82.58238404 -1.02759442 91.97346022 -5.71875 101.375 C-6.11167551 102.1623138 -6.50460102 102.94962761 -6.90943336 103.76079941 C-9.77578142 109.50579262 -12.63828036 115.25270019 -15.5 121 C-18.75788383 127.54293134 -22.01719384 134.08514522 -25.28125 140.625 C-25.67073256 141.40538195 -26.06021511 142.18576389 -26.46150017 142.98979378 C-32.16288724 154.40525115 -37.97476165 165.75147459 -44 177 C-45.15096352 179.1848611 -46.29460619 181.37339657 -47.4375 183.5625 C-49.15778381 186.85414753 -49.81834513 187.87889675 -53 190 C-56.06526351 190.54531842 -58.93408329 190.54325893 -62 190 C-64.75569447 187.81840855 -66.43588747 186.12822506 -68 183 C-68.6961634 176.65823754 -66.03279003 171.94235176 -63.40039062 166.36523438 C-61.24416547 161.51699478 -60.52341411 158.31307245 -62 153 C-64.41636938 150.08113411 -64.41636938 150.08113411 -67 148 C-65.12275039 141.62267685 -63.14328358 135.29304541 -61 129 C-61.94939453 128.57267578 -61.94939453 128.57267578 -62.91796875 128.13671875 C-65 127 -65 127 -66.3125 124.8125 C-67.2183567 121.10672258 -66.98769347 118.68738897 -66 115 C-63.95457966 112.14880801 -62.49189991 110.31222069 -58.96313477 109.57373047 C-56.97542318 109.38248698 -54.98771159 109.19124349 -53 109 C-52.36771484 107.28490234 -52.36771484 107.28490234 -51.72265625 105.53515625 C-51.16941479 104.04421741 -50.61602153 102.55333489 -50.0625 101.0625 C-49.78470703 100.30775391 -49.50691406 99.55300781 -49.22070312 98.77539062 C-47.11328125 93.11328125 -47.11328125 93.11328125 -46 92 C-43.77507164 91.83753059 -41.55381033 91.74558051 -39.32421875 91.671875 C-35.97735309 90.7043777 -35.00077905 88.80176896 -33 86 C-31.71021247 83.38211348 -31.71021247 83.38211348 -30.70092773 80.55249023 C-30.29627792 79.48203964 -29.89162811 78.41158905 -29.47471619 77.30870056 C-29.04864578 76.15366531 -28.62257538 74.99863007 -28.18359375 73.80859375 C-27.48494739 71.95107175 -26.78629927 70.09355042 -26.08756351 68.23606205 C-25.10875961 65.62686124 -24.13854146 63.01450008 -23.16815186 60.40216064 C-21.27490754 55.31138783 -19.36484109 50.22687943 -17.45692825 45.14159012 C-16.98352811 43.87923123 -16.51054288 42.61671667 -16.03797531 41.35404587 C-10.85425297 27.50516663 -5.45397953 13.74451874 0 0 Z " fill="#FCBB51" transform="translate(179,214)"/>
<path d="M0 0 C2.66970728 2.03483787 5.03415379 4.22067016 7.44140625 6.55859375 C19.8948186 18.4416208 34.56385556 25.93199133 51.9375 26.375 C68.84291673 25.96494579 84.94970961 19.73207046 97.25 8 C101.18514357 5.13807741 103.20684075 5.30421882 108 6 C110.5 7.625 110.5 7.625 112 10 C112.61452934 13.61035986 112.47082654 15.29551264 110.42578125 18.35546875 C107.46996359 21.57783358 104.29457219 23.92944662 100.6875 26.375 C99.98399414 26.85396729 99.28048828 27.33293457 98.55566406 27.82641602 C78.13118728 41.39175637 56.91671982 45.59438603 32.76220703 44.73266602 C30.59137439 44.66008282 28.42169075 44.61898287 26.25 44.58203125 C24.97640625 44.54311768 23.7028125 44.5042041 22.390625 44.46411133 C18.06042981 45.14849918 16.69320335 46.61630223 14 50 C12.90961177 51.80496992 12.90961177 51.80496992 12.33203125 53.66015625 C12.08340332 54.35826416 11.83477539 55.05637207 11.57861328 55.77563477 C11.3257959 56.53030029 11.07297852 57.28496582 10.8125 58.0625 C10.53132324 58.86163818 10.25014648 59.66077637 9.96044922 60.48413086 C9.3266206 62.28694993 8.69873683 64.09186617 8.07568359 65.8984375 C6.191359 71.33158767 4.24353064 76.74220647 2.30575562 82.15646362 C1.63060824 84.04679757 0.95945193 85.9385554 0.28833008 87.83032227 C-0.12392822 88.99104248 -0.53618652 90.1517627 -0.9609375 91.34765625 C-1.33009277 92.38929932 -1.69924805 93.43094238 -2.07958984 94.50415039 C-3 97 -3 97 -4 99 C-24.79 99 -45.58 99 -67 99 C-66.35912006 93.23208053 -65.8360908 88.76221136 -64.3125 83.375 C-63.949594 82.06536064 -63.58768096 80.75544588 -63.2265625 79.4453125 C-63.0296582 78.73665039 -62.83275391 78.02798828 -62.62988281 77.29785156 C-61.44068591 72.9595875 -60.31878673 68.60364964 -59.1875 64.25 C-58.93669678 63.289729 -58.68589355 62.32945801 -58.42749023 61.34008789 C-57.0020419 55.87786943 -55.59276825 50.41185309 -54.19921875 44.94140625 C-53.89540283 43.75450195 -53.59158691 42.56759766 -53.27856445 41.34472656 C-52.694076 39.05983627 -52.11295541 36.77408067 -51.53588867 34.48730469 C-44.72426748 7.91815189 -44.72426748 7.91815189 -32.9375 0.5625 C-21.83522341 -5.46445015 -11.46288642 -5.67047041 0 0 Z " fill="#00CAF0" transform="translate(253,95)"/>
<path d="M0 0 C4.5031892 2.17974103 7.8157039 6.22718549 11.31689453 9.72021484 C12.16574219 10.53232422 13.01458984 11.34443359 13.88916016 12.18115234 C15.08508789 13.36837891 15.08508789 13.36837891 16.30517578 14.57958984 C17.40599487 15.66191895 17.40599487 15.66191895 18.52905273 16.76611328 C20.00439453 18.97021484 20.00439453 18.97021484 19.74829102 21.58129883 C19.50280518 22.36964111 19.25731934 23.1579834 19.00439453 23.97021484 C18.32241969 32.74408354 19.1589869 39.64735504 24.69189453 46.65771484 C29.02115461 51.38743148 34.9163351 55.75201387 41.49267578 56.10302734 C42.42466797 56.10044922 43.35666016 56.09787109 44.31689453 56.09521484 C45.24115234 56.09779297 46.16541016 56.10037109 47.11767578 56.10302734 C50.03275083 56.07849501 50.03275083 56.07849501 52.84741211 55.16723633 C56.00439453 54.97021484 56.00439453 54.97021484 58.70507812 56.8762207 C59.59533691 57.80313721 60.4855957 58.73005371 61.40283203 59.68505859 C61.88265533 60.17478653 62.36247864 60.66451447 62.85684204 61.16908264 C64.38159942 62.73294315 65.8802068 64.31936414 67.37939453 65.90771484 C68.41031184 66.97375132 69.44284769 68.03822511 70.47705078 69.10107422 C73.0051791 71.70626856 75.51041324 74.33226483 78.00439453 76.97021484 C73.79654705 81.95538987 69.48301437 86.78641627 64.94189453 91.47021484 C64.343125 92.11474609 63.74435547 92.75927734 63.12744141 93.42333984 C62.53898437 94.02662109 61.95052734 94.62990234 61.34423828 95.25146484 C60.8220874 95.79867187 60.29993652 96.34587891 59.76196289 96.90966797 C58.00439453 97.97021484 58.00439453 97.97021484 55.85557556 97.9631958 C51.47998266 96.43930785 48.85189646 93.39067945 45.62792969 90.14306641 C44.90382904 89.42918762 44.17972839 88.71530884 43.4336853 87.97979736 C41.04316878 85.61708269 38.66780451 83.23979519 36.29345703 80.86083984 C34.63955077 79.21470525 32.9851969 77.56902026 31.33041382 75.92376709 C27.86543422 72.47371283 24.40831207 69.01600535 20.95605469 65.55322266 C16.52392929 61.10949004 12.06945542 56.68893815 7.60840797 52.27426529 C4.18713679 48.88240348 0.77976238 45.47684706 -2.62370682 42.06713104 C-4.26094473 40.43092227 -5.90293658 38.79945652 -7.54966354 37.17279816 C-9.84618065 34.90085767 -12.12291936 32.61078271 -14.39550781 30.31494141 C-15.08320251 29.64253418 -15.77089722 28.97012695 -16.47943115 28.27734375 C-20.99096153 23.66274214 -20.99096153 23.66274214 -21.01451111 20.15090942 C-18.83079051 15.47724044 -14.80902128 12.17338428 -11.18310547 8.59521484 C-10.36261719 7.75087891 -9.54212891 6.90654297 -8.69677734 6.03662109 C-7.5047168 4.84746094 -7.5047168 4.84746094 -6.28857422 3.63427734 C-5.56178467 2.9067627 -4.83499512 2.17924805 -4.08618164 1.4296875 C-1.99560547 -0.02978516 -1.99560547 -0.02978516 0 0 Z " fill="#FB9055" transform="translate(40.99560546875,175.02978515625)"/>
<path d="M0 0 C1.97229004 1.49127197 1.97229004 1.49127197 3.88476562 3.43066406 C4.60901733 4.1552179 5.33326904 4.87977173 6.07946777 5.62628174 C6.84730591 6.41476501 7.61514404 7.20324829 8.40625 8.015625 C9.20857056 8.82360535 10.01089111 9.63158569 10.83752441 10.46405029 C13.40122365 13.05012876 15.95069536 15.64973811 18.5 18.25 C20.21652304 19.98659176 21.93396092 21.72227976 23.65234375 23.45703125 C26.81235746 26.64970084 29.96703552 29.84743805 33.11523438 33.05175781 C37.79157239 37.80811743 42.51473246 42.51080427 47.29292297 47.16467285 C50.07825197 49.88302357 52.85030309 52.61475092 55.62182617 55.34716797 C57.08683612 56.78687127 58.55627804 58.22207803 60.0300293 59.65283203 C62.16335352 61.7256381 64.28022846 63.81406746 66.39453125 65.90625 C67.05693314 66.54284546 67.71933502 67.17944092 68.40180969 67.83532715 C72.80667643 72.23744201 72.80667643 72.23744201 73.67260742 75.65307617 C72.75463477 78.85615097 71.23427699 80.33264002 68.84375 82.64453125 C67.98652344 83.48564453 67.12929687 84.32675781 66.24609375 85.19335938 C65.33988281 86.05767578 64.43367188 86.92199219 63.5 87.8125 C62.59378906 88.69615234 61.68757813 89.57980469 60.75390625 90.49023438 C58.51339451 92.67178528 56.2620652 94.8408423 54 97 C50.43235715 95.48623919 48.16293713 93.39486871 45.453125 90.6484375 C44.60878906 89.79765625 43.76445313 88.946875 42.89453125 88.0703125 C41.58548828 86.73613281 41.58548828 86.73613281 40.25 85.375 C39.36183594 84.4778125 38.47367188 83.580625 37.55859375 82.65625 C35.36783031 80.44192996 33.18187237 78.22307565 31 76 C31.42224854 75.39019287 31.84449707 74.78038574 32.27954102 74.15209961 C32.82795654 73.34780518 33.37637207 72.54351074 33.94140625 71.71484375 C34.48740479 70.91941162 35.03340332 70.12397949 35.59594727 69.30444336 C37.19064603 66.92677354 37.19064603 66.92677354 37.9375 63.5625 C36.55525004 58.30995013 33.38203935 55.34673238 29.58056641 51.5703125 C27.75947654 49.76103693 25.96425166 47.92764908 24.16796875 46.09375 C21.54066867 43.42801402 18.90972898 40.76626621 16.2578125 38.125 C15.7023877 37.57070312 15.14696289 37.01640625 14.57470703 36.4453125 C10.77102787 32.95418372 8.16168544 32.52960943 3.21484375 32.59375 C-0.20043226 33.22018511 -1.74932392 35.49210379 -4 38 C-7.74654769 37.78250561 -9.57471786 35.77585673 -12.109375 33.18359375 C-12.86347656 32.41982422 -13.61757812 31.65605469 -14.39453125 30.86914062 C-15.17183594 30.06669922 -15.94914062 29.26425781 -16.75 28.4375 C-17.54277344 27.63119141 -18.33554687 26.82488281 -19.15234375 25.99414062 C-21.10847046 24.00266222 -23.05725719 22.00452279 -25 20 C-23.58161241 16.77415322 -21.86824816 14.62194828 -19.375 12.14453125 C-18.66859375 11.44005859 -17.9621875 10.73558594 -17.234375 10.00976562 C-16.49703125 9.28466797 -15.7596875 8.55957031 -15 7.8125 C-14.26265625 7.07580078 -13.5253125 6.33910156 -12.765625 5.58007812 C-5.49501799 -1.63082499 -5.49501799 -1.63082499 0 0 Z " fill="#FA9055" transform="translate(80,141)"/>
<path d="M0 0 C5.70256756 3.57988145 9.89124805 8.58043655 12 15 C13.07088437 23.11617629 12.87261011 31.15384669 8 38 C3.209396 43.20850776 -2.17878945 47.50794157 -9.3671875 48.43359375 C-18.40865431 48.4436622 -23.90124894 47.53983046 -30.75 41.625 C-36.61699327 34.78017452 -39.57757166 28.93445552 -39.37109375 19.91015625 C-38.3675988 12.04064323 -34.14437147 6.2420028 -28.03125 1.40625 C-19.31992284 -4.62466881 -9.39138912 -4.61699577 0 0 Z " fill="#FBCFA2" transform="translate(276,23)"/>
<path d="M0 0 C-0.62057657 2.56364399 -1.24629199 5.12584926 -1.875 7.6875 C-2.04902344 8.40873047 -2.22304687 9.12996094 -2.40234375 9.87304688 C-2.9079155 11.9234212 -3.45190133 13.96067317 -4 16 C-4.20882812 16.89332031 -4.41765625 17.78664062 -4.6328125 18.70703125 C-8.55067067 25.2778391 -18.07139218 27.98274496 -24.8125 30.75 C-25.73353516 31.14832031 -26.65457031 31.54664063 -27.60351562 31.95703125 C-33.88172662 34.54915475 -40.13248314 36.3986402 -47 36 C-50.27802037 33.48430995 -50.84167141 31.96976261 -51.5 27.9375 C-50.86486935 24.20610745 -49.92086967 23.37408287 -47 21 C-44.46991642 19.98049981 -42.03256522 19.11647071 -39.4375 18.3125 C-26.91755096 14.15740774 -14.14421843 8.90184426 -3.49609375 0.99609375 C-2 0 -2 0 0 0 Z " fill="#00C7EC" transform="translate(181,132)"/>
<path d="M0 0 C3.0220794 1.74450506 5.41651082 3.83302164 7 7 C7.41204834 11.63554388 6.87454146 14.30416098 4 18 C1.01326359 20.32301721 -2.29759323 20.48339291 -6.03125 20.37890625 C-9.53761337 19.70407044 -10.98412667 17.81000525 -13 15 C-14.38372071 11.02180295 -14.09266028 9.27798083 -12.75 5.25 C-9.80791382 -0.21387433 -5.87018052 -1.11865704 0 0 Z " fill="#030201" transform="translate(126,324)"/>
<path d="M0 0 C5.65116279 2.30232558 5.65116279 2.30232558 7 5 C7.55512815 9.63213493 7.6364242 12.98172127 5.125 17 C1.8842942 20.05007605 -0.48611725 20.42152766 -4.9609375 20.33203125 C-7 20 -7 20 -9.9375 18.0625 C-12.60482797 14.1019221 -13.46623601 10.76596806 -13 6 C-9.48870917 0.18820828 -6.60051954 -0.44003464 0 0 Z " fill="#030101" transform="translate(250,409)"/>
<path d="M0 0 C1.15518918 0.90484792 2.29885406 1.8244206 3.4375 2.75 C4.07558594 3.26046875 4.71367188 3.7709375 5.37109375 4.296875 C7.18810554 6.19667629 7.60423197 7.43586908 8 10 C2.65481481 14.98074074 2.65481481 14.98074074 -0.125 15.0625 C-2.64487925 13.63456842 -4.2535859 12.32855214 -6 10 C-6.09766173 6.19119238 -5.02188638 5.02402164 -2.4375 2.1875 C-1.2309375 1.1046875 -1.2309375 1.1046875 0 0 Z " fill="#F8F8F8" transform="translate(85,197)"/>
</svg>
