<?xml version="1.0" encoding="UTF-8"?>
<svg version="1.1" xmlns="http://www.w3.org/2000/svg" width="512" height="512">
<path d="M0 0 C1.92922835 1.02183101 3.87264362 2.00895958 5.82373047 2.98828125 C6.99033203 3.58640625 8.15693359 4.18453125 9.35888672 4.80078125 C10.39787109 5.331875 11.43685547 5.86296875 12.50732422 6.41015625 C15.12634079 8.14515146 16.00981254 9.10536648 16.98388672 12.05078125 C17.04576172 13.53578125 17.04576172 13.53578125 17.10888672 15.05078125 C17.67132437 18.07614728 17.67132437 18.07614728 19.68310547 19.359375 C23.68055526 21.58845821 23.68055526 21.58845821 28.12060547 21.7109375 C30.04048905 21.07366267 30.04048905 21.07366267 31.98388672 20.05078125 C36.88407242 19.61943917 39.82706936 20.62841308 44.14013672 22.91015625 C44.71517944 23.21028625 45.29022217 23.51041626 45.88269043 23.81964111 C47.75625738 24.80153899 49.61991816 25.80080016 51.48388672 26.80078125 C52.79589466 27.49312077 54.10840077 28.18451701 55.42138672 28.875 C63.85910602 33.32581909 72.23904605 37.88380883 80.59326172 42.48925781 C88.15547193 46.64349829 95.8110655 50.60650121 103.48388672 54.55078125 C112.5253692 59.20339475 121.54238454 63.89521981 130.48388672 68.73828125 C131.82676758 69.45951172 131.82676758 69.45951172 133.19677734 70.1953125 C139.22244858 73.48289618 144.33868715 76.5688409 148.17138672 82.42578125 C148.65994141 83.15539062 149.14849609 83.885 149.65185547 84.63671875 C152.58707194 89.95626063 153.2582779 94.57036585 153.23388672 100.61328125 C153.23904297 101.89332031 153.24419922 103.17335938 153.24951172 104.4921875 C152.99796082 107.86222973 152.30389522 109.99359176 150.98388672 113.05078125 C151.94258667 113.01936035 151.94258667 113.01936035 152.9206543 112.98730469 C176.50310588 112.31540362 176.50310588 112.31540362 184.98388672 117.05078125 C186.56169922 117.88609375 186.56169922 117.88609375 188.17138672 118.73828125 C196.96092792 125.96523735 202.01973686 133.81309102 203.98388672 145.05078125 C204.06896739 146.67533245 204.10768112 148.30278515 204.10693455 149.92956257 C204.1089256 150.8904848 204.11091664 151.85140704 204.11296803 152.84144813 C204.11005519 153.88911281 204.10714234 154.93677748 204.10414124 156.01618958 C204.10542287 157.69481245 204.10542287 157.69481245 204.1067304 159.4073469 C204.1083801 163.16456581 204.10287211 166.92174027 204.09741211 170.67895508 C204.0971301 173.36931458 204.09724418 176.05967135 204.09785461 178.75003052 C204.09837886 184.54599787 204.09524241 190.34195396 204.08961678 196.13791847 C204.08148836 204.51790066 204.07888518 212.8978774 204.07762878 221.27786311 C204.07544038 234.87396586 204.06878601 248.47006261 204.05932617 262.06616211 C204.0501466 275.27319305 204.04306843 288.48022237 204.03881836 301.68725586 C204.03842427 302.90846012 204.03842427 302.90846012 204.03802223 304.15433518 C204.03671719 308.23863345 204.03545348 312.32293173 204.03421032 316.40723002 C204.02384429 350.28841811 204.0062317 384.16959895 203.98388672 418.05078125 C205.00869141 418.004375 206.03349609 417.95796875 207.08935547 417.91015625 C208.45000327 417.87262114 209.81068277 417.83622284 211.17138672 417.80078125 C211.84492188 417.76726562 212.51845703 417.73375 213.21240234 417.69921875 C216.83442528 417.62854513 218.82635868 417.95334854 221.93173218 419.87405396 C224.73517609 422.84767644 224.62875523 424.68492521 224.64794922 428.73046875 C224.65273285 429.37968292 224.65751648 430.02889709 224.66244507 430.69778442 C224.66584265 432.0745892 224.65664926 433.45147478 224.63574219 434.828125 C224.60939514 436.88606859 224.63525058 438.93833925 224.66748047 440.99609375 C224.70664268 455.76803532 220.26637687 467.41720288 209.95654297 478.1640625 C196.44205804 491.14090065 181.4482167 492.35483701 163.68948364 492.31147766 C161.9322388 492.31450114 160.17499527 492.31839161 158.41775405 492.32307023 C153.60642166 492.33333357 148.79516392 492.33117265 143.98382545 492.32688963 C138.78807765 492.3244194 133.59234768 492.33344025 128.39660645 492.34092712 C118.22445477 492.35366772 108.0523295 492.35546862 97.88017119 492.35312686 C89.61105836 492.35134289 81.34195353 492.35309505 73.07284164 492.3573513 C71.30661517 492.35824409 71.30661517 492.35824409 69.50470736 492.35915491 C67.11254947 492.36036667 64.72039159 492.36158081 62.3282337 492.36279728 C39.90145077 492.37367029 17.47468289 492.37151142 -4.95210089 492.36541244 C-25.46166576 492.36024309 -45.97118314 492.37149965 -66.48073862 492.39051066 C-87.54906885 492.40988965 -108.6173766 492.41814497 -129.68571579 492.4143874 C-141.51034046 492.41247551 -153.3349247 492.41496186 -165.15954208 492.42910194 C-175.22556946 492.44101744 -185.29153151 492.44241866 -195.35755979 492.43031178 C-200.49118386 492.42442443 -205.62468848 492.42331979 -210.7583046 492.43531418 C-215.46238503 492.44617709 -220.16624632 492.44306469 -224.87031652 492.42905249 C-226.5673934 492.42640672 -228.26448748 492.42876833 -229.96154748 492.43678836 C-247.39518028 492.51342501 -261.79547927 489.73372217 -274.76220703 477.35546875 C-284.78466849 467.10719793 -288.73625233 455.14359934 -288.69970703 440.99609375 C-288.6892334 440.32739258 -288.67875977 439.65869141 -288.66796875 438.96972656 C-288.64065371 436.89080379 -288.66813676 434.81706227 -288.69970703 432.73828125 C-288.69641027 431.40233195 -288.69001927 430.06638585 -288.68017578 428.73046875 C-288.67453613 427.54179199 -288.66889648 426.35311523 -288.66308594 425.12841797 C-288.01611328 422.05078125 -288.01611328 422.05078125 -285.96395874 419.87405396 C-282.29690325 417.60594245 -279.36787679 417.59356431 -275.20361328 417.80078125 C-274.51074219 417.81882812 -273.81787109 417.836875 -273.10400391 417.85546875 C-271.40743664 417.90227061 -269.71158852 417.97400501 -268.01611328 418.05078125 C-268.01782202 417.19055706 -268.01782202 417.19055706 -268.01956528 416.3129546 C-268.0867436 382.30089536 -268.13819522 348.28885124 -268.16930927 314.27674009 C-268.17306125 310.19010851 -268.17694423 306.10347708 -268.1809082 302.0168457 C-268.18169513 301.20329329 -268.18248207 300.38974087 -268.18329284 299.55153535 C-268.19633601 286.3898645 -268.21998384 273.2282331 -268.24757167 260.06658562 C-268.27565621 246.55497669 -268.29229598 233.04338837 -268.29837877 219.53175145 C-268.30248889 211.19872138 -268.31545623 202.86580278 -268.33986268 194.53280703 C-268.35575753 188.81350685 -268.36050518 183.09426405 -268.35661741 177.3749434 C-268.35470167 174.07838514 -268.35923168 170.7820614 -268.37372971 167.48552895 C-268.38871128 163.90277123 -268.3850458 160.3204859 -268.37687683 156.73771667 C-268.38561536 155.70752905 -268.39435388 154.67734142 -268.40335721 153.61593598 C-268.33021963 141.70374533 -265.40426639 131.85672496 -257.16455078 123.078125 C-250.21769284 116.56025629 -242.14145387 112.90008491 -232.59423828 112.953125 C-231.05703125 112.95795898 -231.05703125 112.95795898 -229.48876953 112.96289062 C-228.42529297 112.97126953 -227.36181641 112.97964844 -226.26611328 112.98828125 C-225.18716797 112.99279297 -224.10822266 112.99730469 -222.99658203 113.00195312 C-220.33636945 113.01372398 -217.67626963 113.03016726 -215.01611328 113.05078125 C-215.50072021 111.91902466 -215.50072021 111.91902466 -215.99511719 110.7644043 C-218.62256565 103.78112125 -217.92374638 94.40163178 -215.32861328 87.48828125 C-209.08229327 74.50363657 -195.22994028 68.96328336 -182.90209961 62.72412109 C-179.71633464 61.11097835 -176.54010796 59.47926244 -173.36376953 57.84765625 C-172.73072906 57.52277222 -172.0976886 57.19788818 -171.44546509 56.86315918 C-165.91770778 54.01794639 -160.45803189 51.05682271 -155.01611328 48.05078125 C-145.97185249 43.06142747 -136.81798046 38.3029457 -127.63183594 33.58251953 C-119.70318553 29.50581163 -111.82349473 25.3565908 -104.01611328 21.05078125 C-91.87479475 14.36108574 -79.55992403 8.01593838 -67.22167969 1.69970703 C-64.46062719 0.27943677 -61.71054512 -1.15882776 -58.96533203 -2.609375 C-38.1003995 -13.54515164 -20.27363428 -10.82310007 0 0 Z " fill="#030403" transform="translate(288.01611328125,14.94921875)"/>
<path d="M0 0 C3.59635477 2.05488303 7.08507099 4.20753417 10.4987793 6.55371094 C13.60785303 8.66757929 16.85811736 10.43138034 20.1496582 12.24609375 C21.69198556 13.1477958 23.224165 14.06979827 24.7121582 15.05859375 C24.7121582 15.38859375 24.7121582 15.71859375 24.7121582 16.05859375 C23.91924377 16.06223938 23.12632935 16.06588501 22.30938721 16.06964111 C14.83455677 16.10751783 7.36022491 16.16436599 -0.11428452 16.24249649 C-3.95698497 16.28199554 -7.79945547 16.31417177 -11.64233398 16.32958984 C-15.35142195 16.34474097 -19.05987779 16.37915755 -22.76868439 16.42690277 C-24.18319452 16.44173279 -25.59779489 16.4496357 -27.01238251 16.4504776 C-28.99460883 16.45284373 -30.97674729 16.48218681 -32.95874023 16.51269531 C-34.08681091 16.52157776 -35.21488159 16.53046021 -36.37713623 16.53961182 C-40.1375478 17.21009724 -41.05290833 17.956245 -43.2878418 21.05859375 C-43.89010589 24.25521934 -43.82713242 27.41726821 -43.79577637 30.6619873 C-43.80201633 31.64671886 -43.80825629 32.63145041 -43.81468534 33.64602232 C-43.83067608 36.95501162 -43.81798698 40.26327049 -43.80541992 43.57226562 C-43.81083832 45.94072399 -43.81795938 48.30917898 -43.82666016 50.67762756 C-43.84303127 56.44838178 -43.84060047 62.21890277 -43.82900959 67.9896642 C-43.81997996 72.6791976 -43.81874921 77.36867268 -43.82310486 82.05821228 C-43.82371779 82.72537749 -43.82433072 83.3925427 -43.82496223 84.07992503 C-43.82624112 85.43521299 -43.82753797 86.79050093 -43.82885259 88.14578885 C-43.84026172 100.8575555 -43.82713953 113.56920681 -43.80565113 126.28095454 C-43.7877798 137.19077876 -43.79088382 148.10043275 -43.80932617 159.01025391 C-43.83072707 171.67619076 -43.83916305 184.3420265 -43.82687712 197.00797892 C-43.82560291 198.358311 -43.82434542 199.7086431 -43.82310486 201.05897522 C-43.82217921 202.05558688 -43.82217921 202.05558688 -43.82123485 203.07233211 C-43.81777959 207.75681847 -43.82361405 212.44124074 -43.83302307 217.12571716 C-43.84455536 223.42946007 -43.83660346 229.73288067 -43.81344604 236.03658867 C-43.80814497 238.35376385 -43.80969647 240.67096604 -43.8184967 242.98813057 C-43.82938022 246.14418995 -43.81577499 249.29920771 -43.79577637 252.4552002 C-43.80469925 253.37853889 -43.81362214 254.30187758 -43.82281542 255.25319624 C-43.79310353 260.2984644 -43.79310353 260.2984644 -41.38887787 264.62705994 C-38.98461113 266.26519894 -37.74549491 266.56409287 -34.8581543 266.57617188 C-33.556604 266.59508484 -33.556604 266.59508484 -32.22875977 266.61437988 C-31.29950684 266.60628296 -30.37025391 266.59818604 -29.4128418 266.58984375 C-27.97062256 266.59558411 -27.97062256 266.59558411 -26.49926758 266.60144043 C-24.4684952 266.60415977 -22.4376878 266.59679704 -20.40698242 266.58007812 C-17.29876609 266.558669 -14.19286124 266.57987921 -11.0847168 266.60546875 C-9.11075336 266.60282548 -7.13679137 266.59770051 -5.1628418 266.58984375 C-3.7689624 266.60198914 -3.7689624 266.60198914 -2.34692383 266.61437988 C2.81973864 266.57336285 2.81973864 266.57336285 7.30200195 264.21679688 C9.21267498 261.29256738 9.22224176 259.48344047 8.7121582 256.05859375 C7.16709354 254.0219176 5.99069664 253.19786297 3.7121582 252.05859375 C-7.1778418 251.72859375 -18.0678418 251.39859375 -29.2878418 251.05859375 C-29.2878418 178.78859375 -29.2878418 106.51859375 -29.2878418 32.05859375 C-7.1778418 32.05859375 14.9321582 32.05859375 37.7121582 32.05859375 C37.8996582 49.99609375 37.8996582 49.99609375 37.91992188 55.53881836 C38.1987728 76.59296896 44.48038326 95.0135481 59.7121582 110.05859375 C60.31415039 110.6825 60.91614258 111.30640625 61.53637695 111.94921875 C86.9323694 136.40869955 132.02346392 138.83709955 165.0168457 138.3828125 C179.34467511 137.95265091 194.01471745 136.14828933 207.66235352 131.63793945 C209.7121582 131.05859375 209.7121582 131.05859375 212.7121582 131.05859375 C213.7286535 139.90863078 210.3786959 145.28397281 205.8996582 152.74609375 C204.62150605 154.93702859 203.34413638 157.12842015 202.06762695 159.3203125 C201.21140747 160.758302 201.21140747 160.758302 200.33789062 162.2253418 C196.00056038 169.78424216 194.51916246 175.31350887 195.7121582 184.05859375 C196.79628951 186.51671092 197.98286893 188.44865461 199.6184082 190.5703125 C200.7121582 192.05859375 200.7121582 192.05859375 200.7121582 194.05859375 C202.02292928 194.76859475 203.3656316 195.41899361 204.7121582 196.05859375 C205.7846582 196.59484375 206.8571582 197.13109375 207.9621582 197.68359375 C214.87247817 200.21651178 224.39804818 200.44060302 231.41918945 198.19140625 C233.75822686 197.04820261 233.75822686 197.04820261 236.7121582 195.05859375 C237.7021582 194.72859375 238.6921582 194.39859375 239.7121582 194.05859375 C240.79646914 192.30991892 240.79646914 192.30991892 241.7121582 190.05859375 C242.2484082 189.25421875 242.7846582 188.44984375 243.3371582 187.62109375 C245.78072093 181.29004486 245.93474366 174.67665153 243.7512207 168.21484375 C241.44528677 163.4696849 238.70795389 159.04530972 235.86450195 154.609375 C229.436883 144.382296 225.90017613 137.30319989 227.7121582 125.05859375 C228.72793945 124.60871094 229.7437207 124.15882813 230.7902832 123.6953125 C250.20811692 114.75709493 261.8662362 101.45309597 269.71606445 81.5078125 C272.38279342 74.04870103 272.84742928 66.47943749 273.02856445 58.62109375 C273.05654114 57.60112305 273.05654114 57.60112305 273.08508301 56.56054688 C273.15254059 54.06000727 273.2132203 51.5592885 273.2746582 49.05859375 C273.4190332 43.44859375 273.5634082 37.83859375 273.7121582 32.05859375 C295.8221582 32.05859375 317.9321582 32.05859375 340.7121582 32.05859375 C340.7121582 104.32859375 340.7121582 176.59859375 340.7121582 251.05859375 C307.21458008 251.11466797 307.21458008 251.11466797 273.0402832 251.171875 C258.93090222 251.20213465 244.82152865 251.23312806 230.7121582 251.26757812 C223.30330457 251.28562905 215.89445053 251.30349314 208.4855957 251.32104492 C207.09267343 251.32435645 207.09267343 251.32435645 205.67161131 251.32773489 C190.66811393 251.36313163 175.6646166 251.38797488 160.66109291 251.40894077 C145.2702712 251.43068199 129.87950381 251.46371636 114.48872828 251.50729531 C104.98722051 251.53384103 95.48578044 251.55151487 85.9842374 251.55793979 C79.47395742 251.56318476 72.96376274 251.57937162 66.45352843 251.60425941 C62.69409659 251.61830509 58.93481755 251.62743385 55.17535782 251.62360191 C51.10406693 251.61957784 47.03321198 251.63854718 42.9619751 251.65986633 C41.76743249 251.65501876 40.57288989 251.65017118 39.34214902 251.64517671 C38.2543322 251.65463325 37.16651537 251.66408979 36.04573441 251.67383289 C34.6354531 251.6766808 34.6354531 251.6766808 33.19668126 251.67958623 C30.24982563 252.12912138 28.86855698 253.03261551 26.7121582 255.05859375 C26.08492612 256.99284861 26.08492612 256.99284861 26.2121582 259.05859375 C26.2018457 259.73921875 26.1915332 260.41984375 26.1809082 261.12109375 C26.94641989 263.91295989 28.26671614 264.57316536 30.7121582 266.05859375 C33.31135794 266.50706824 33.31135794 266.50706824 36.19073486 266.43891048 C37.31091885 266.44735043 38.43110283 266.45579037 39.58523178 266.46448606 C40.81595539 266.45847602 42.046679 266.45246597 43.31469727 266.4462738 C44.62202946 266.45165934 45.92936165 266.45704488 47.27630997 266.46259362 C50.90812493 266.47708425 54.53971367 266.47279234 58.17154121 266.4654268 C62.0870796 266.46070638 66.00256825 266.47319492 69.91809082 266.48344421 C77.58980617 266.50065922 85.26143971 266.50146671 92.93316936 266.49623131 C99.1668398 266.4921937 105.400486 266.49362829 111.63415527 266.49897957 C112.52057402 266.49972799 113.40699276 266.50047641 114.32027268 266.50124751 C116.12088363 266.50277895 117.92149457 266.5043173 119.7221055 266.50586248 C136.61571793 266.51959708 153.50928407 266.5141429 170.40289545 266.50267727 C185.86791618 266.49274197 201.33281733 266.50568898 216.79781961 266.52961146 C232.66787219 266.55397606 248.537869 266.56361696 264.40793991 266.55695873 C273.32159655 266.55346088 282.23516117 266.55573593 291.14880371 266.57320976 C298.73610204 266.58789872 306.32324353 266.5886106 313.91053867 266.57113885 C317.78346989 266.56259939 321.65612055 266.56055059 325.52903748 266.57579041 C329.72279441 266.59208881 333.91586839 266.57755282 338.10961914 266.55979919 C339.34034275 266.5694042 340.57106636 266.57900921 341.83908463 266.58890527 C342.95926861 266.57909098 344.07945259 266.56927669 345.23358154 266.559165 C346.68617685 266.559004 346.68617685 266.559004 348.16811752 266.55883974 C351.50041442 265.90359544 352.68220195 264.74350768 354.7121582 262.05859375 C355.30115174 260.01358777 355.30115174 260.01358777 355.21552277 257.81378937 C355.23116925 256.54629577 355.23116925 256.54629577 355.24713182 255.25319624 C355.23820894 254.32985754 355.22928605 253.40651885 355.22009277 252.4552002 C355.22633274 251.47046864 355.2325727 250.48573709 355.23900175 249.47116518 C355.25499249 246.16217588 355.24230339 242.85391701 355.22973633 239.54492188 C355.23515472 237.17646351 355.24227579 234.80800852 355.25097656 232.43955994 C355.26734768 226.66880572 355.26491688 220.89828473 355.253326 215.1275233 C355.24429637 210.4379899 355.24306562 205.74851482 355.24742126 201.05897522 C355.24834066 200.05822741 355.24834066 200.05822741 355.24927863 199.03726247 C355.25055752 197.68197451 355.25185437 196.32668657 355.253169 194.97139865 C355.26457813 182.259632 355.25145593 169.54798069 355.22996753 156.83623296 C355.21209621 145.92640874 355.21520022 135.01675475 355.23364258 124.10693359 C355.25504348 111.44099674 355.26347946 98.775161 355.25119352 86.10920858 C355.24991931 84.7588765 355.24866183 83.4085444 355.24742126 82.05821228 C355.24680416 81.39380451 355.24618706 80.72939673 355.24555126 80.04485539 C355.242096 75.36036903 355.24793046 70.67594676 355.25733948 65.99147034 C355.26887177 59.68772743 355.26091987 53.38430683 355.23776245 47.08059883 C355.23246138 44.76342365 355.23401287 42.44622146 355.24281311 40.12905693 C355.25369663 36.97299755 355.2400914 33.81797979 355.22009277 30.6619873 C355.22901566 29.73864861 355.23793855 28.81530992 355.24713182 27.86399126 C355.21018841 22.83484959 355.21018841 22.83484959 352.86233139 18.49081802 C349.93499227 16.54092572 347.88872201 16.54029898 344.38305664 16.51269531 C343.10203064 16.49297668 341.82100464 16.47325806 340.50115967 16.45294189 C339.10795129 16.45127886 337.71474233 16.45004792 336.3215332 16.44921875 C334.89233527 16.43423474 333.46315464 16.41750712 332.03399658 16.39910889 C328.27916666 16.35544694 324.52457029 16.33543919 320.76953125 16.32037354 C316.93516231 16.30079801 313.10104545 16.25882861 309.2668457 16.21875 C301.74868432 16.14346065 294.23062879 16.09316187 286.7121582 16.05859375 C289.19091341 13.47170025 291.516095 11.95399425 294.7199707 10.31640625 C295.70739258 9.80722656 296.69481445 9.29804688 297.7121582 8.7734375 C298.7434082 8.24878906 299.7746582 7.72414062 300.8371582 7.18359375 C302.86119232 6.1456939 304.88463787 5.10664541 306.9074707 4.06640625 C307.90544678 3.56455811 308.90342285 3.06270996 309.93164062 2.5456543 C312.66065869 1.1562048 312.66065869 1.1562048 314.83056641 -0.41870117 C321.69255839 -5.11410054 329.22248216 -4.66390243 337.22265625 -4.53833008 C339.64156936 -4.50402098 342.0568161 -4.51770618 344.47583008 -4.53710938 C362.76466756 -4.52181082 362.76466756 -4.52181082 369.63378906 1.83764648 C373.54715853 6.10452063 375.96359982 9.9699345 375.95825386 15.86117935 C375.9622356 16.83086403 375.96621735 17.80054871 375.97031975 18.79961777 C375.96158175 20.39253836 375.96158175 20.39253836 375.95266724 22.01763916 C375.95523529 23.70926178 375.95523529 23.70926178 375.95785522 25.43505859 C375.96117518 29.23964688 375.95010291 33.04406052 375.93920898 36.84863281 C375.93748504 39.6125181 375.938774 42.37640011 375.9399395 45.14028549 C375.94100348 51.80427037 375.93176238 58.46820141 375.91893684 65.13217245 C375.90454722 72.83925963 375.90294791 80.54631439 375.90136719 88.25341797 C375.89086285 108.60515177 375.86294067 128.95687357 375.8371582 149.30859375 C375.7959082 194.76609375 375.7546582 240.22359375 375.7121582 287.05859375 C230.5121582 287.05859375 85.3121582 287.05859375 -64.2878418 287.05859375 C-64.3909668 241.68359375 -64.4940918 196.30859375 -64.6003418 149.55859375 C-64.64586182 135.22228516 -64.69138184 120.88597656 -64.73828125 106.11523438 C-64.76086426 88.63183594 -64.76086426 88.63183594 -64.76506042 80.45153809 C-64.76972563 74.72845205 -64.78807677 69.00560968 -64.8157196 63.28259277 C-64.84755532 56.68174128 -64.86201953 50.08112373 -64.85506655 43.4801949 C-64.85205525 40.10358969 -64.85960718 36.72792619 -64.88391745 33.35134602 C-64.90875824 29.73335606 -64.90280411 26.11667678 -64.88911438 22.49865723 C-64.9036777 21.44836082 -64.91824102 20.39806442 -64.93324566 19.31594086 C-64.86507242 12.6204364 -63.58722653 8.25736886 -59.2878418 3.05859375 C-57.1550293 1 -57.1550293 1 -55.1628418 -0.37890625 C-54.50026367 -0.85199219 -53.83768555 -1.32507813 -53.1550293 -1.8125 C-40.79886305 -9.28306913 -12.25104409 -6.01907998 0 0 Z " fill="#6DC07C" transform="translate(100.287841796875,146.94140625)"/>
<path d="M0 0 C3.83808723 1.95697285 7.56077949 4.0846581 11.2890625 6.2421875 C16.9196569 9.48404488 20.50420982 11.4105195 27.0625 10.375 C29.25358482 8.9080273 29.25358482 8.9080273 31.0625 7.375 C35.00734125 9.03222326 38.66300806 10.75589457 42.0625 13.375 C42.78499368 15.76931045 42.75593702 17.66684335 42.70141602 20.15234375 C42.84223665 22.42790081 42.84223665 22.42790081 44.43432617 23.68896484 C45.06830322 24.04684082 45.70228027 24.4047168 46.35546875 24.7734375 C47.45290405 25.40149292 47.45290405 25.40149292 48.57250977 26.04223633 C49.39420654 26.48204834 50.21590332 26.92186035 51.0625 27.375 C52.37335571 28.07822388 52.37335571 28.07822388 53.71069336 28.7956543 C56.69175441 30.36556828 59.6875211 31.9040639 62.6875 33.4375 C70.78613517 37.60991873 78.83528108 41.84993241 86.8125 46.25 C94.78120209 50.63991287 102.82601492 54.86673183 110.91708374 59.02520752 C116.30520155 61.79625937 121.6845313 64.58431308 127.0625 67.375 C128.03493652 67.87870117 129.00737305 68.38240234 130.00927734 68.90136719 C132.5156922 70.20894321 135.0097736 71.53691271 137.5 72.875 C138.19641602 73.2354541 138.89283203 73.5959082 139.61035156 73.96728516 C144.96172086 76.88974974 149.30344651 80.85689302 152.0625 86.375 C152.66392429 92.38924294 151.55910258 96.55475869 148.0625 101.375 C141.68315762 106.72892758 133.78869254 110.24085256 126.39465332 113.97857666 C122.92462024 115.73351784 119.46428015 117.50735758 116.00390625 119.28125 C114.97250015 119.80949875 114.97250015 119.80949875 113.92025757 120.34841919 C108.16485726 123.30419798 102.47586005 126.37142876 96.8125 129.5 C87.40545625 134.69252396 77.88864001 139.65721448 68.33300781 144.56884766 C66.71990723 145.39908447 66.71990723 145.39908447 65.07421875 146.24609375 C63.53773682 147.03669189 63.53773682 147.03669189 61.97021484 147.84326172 C58.55258543 149.64361495 55.20467582 151.54887745 51.87817383 153.51196289 C50.0625 154.375 50.0625 154.375 47.0625 154.375 C45.22265625 152.42578125 45.22265625 152.42578125 43.125 149.6875 C39.60461728 145.22834856 35.95486287 141.01187044 32.0625 136.875 C28.43209319 133.00120126 24.94493389 129.08589446 21.625 124.9375 C18.1160613 120.56247117 14.40399198 116.45486092 10.5625 112.375 C5.86539497 107.38508842 1.42576677 102.27217264 -2.8671875 96.92578125 C-8.14334642 89.77010779 -8.14334642 89.77010779 -14.9375 84.375 C-18.98892119 84.11639865 -20.48087669 84.07058446 -23.9375 86.375 C-24.65706413 89.73296592 -24.85720024 91.1641167 -23.9375 94.375 C-21.99165625 97.08128844 -19.82331784 99.36803505 -17.4921875 101.75 C-15.02120298 104.28899327 -12.8262187 106.91380317 -10.625 109.6875 C-6.73364512 114.50245744 -2.60620856 119.02587171 1.62255859 123.54052734 C4.71986226 126.86602233 7.65849759 130.26192543 10.5 133.8125 C14.56502717 138.8789481 18.91410866 143.62166335 23.37084961 148.34155273 C24.9444707 150.01058906 26.50529481 151.69064642 28.0625 153.375 C28.64467285 153.99310547 29.2268457 154.61121094 29.82666016 155.24804688 C30.38530762 155.86228516 30.94395508 156.47652344 31.51953125 157.109375 C32.03104736 157.66334961 32.54256348 158.21732422 33.06958008 158.78808594 C33.56107544 159.5736084 33.56107544 159.5736084 34.0625 160.375 C32.7721928 164.24592161 31.56366233 164.44846454 27.98828125 166.265625 C26.93431152 166.80727295 25.8803418 167.3489209 24.79443359 167.90698242 C23.66602051 168.47392822 22.53760742 169.04087402 21.375 169.625 C20.23627441 170.20548096 19.09754883 170.78596191 17.92431641 171.3840332 C15.66250694 172.53523334 13.39854735 173.68222003 11.13232422 174.82470703 C8.59227352 176.1074589 6.06095293 177.40436136 3.53515625 178.71484375 C2.33620271 179.33124529 1.1370134 179.94718864 -0.0625 180.5625 C-1.55136719 181.32626953 -1.55136719 181.32626953 -3.0703125 182.10546875 C-13.20423716 186.59256073 -21.82506172 186.47141766 -32.02001953 182.59228516 C-36.74382529 180.62133156 -41.2401884 178.28941936 -45.75 175.875 C-46.74499512 175.34946533 -47.73999023 174.82393066 -48.76513672 174.2824707 C-56.29760127 170.29010977 -63.77388296 166.19643561 -71.2434082 162.08789062 C-79.52911878 157.55098295 -87.91888235 153.22476006 -96.32012939 148.90756226 C-105.13505708 144.37516559 -113.8712467 139.72096034 -122.55078125 134.93359375 C-129.4954799 131.12061865 -136.51478365 127.46270306 -143.56008911 123.84051514 C-153.2350665 118.8648664 -162.90447744 113.87752654 -172.5 108.75 C-173.40363281 108.27755859 -174.30726563 107.80511719 -175.23828125 107.31835938 C-180.72303895 104.35880456 -184.22619424 101.62648095 -187.1875 96 C-188.54097587 91.26283446 -188.62483033 87.77829941 -186.4375 83.3125 C-180.21437938 76.00033328 -171.78654041 72.01186343 -163.34564209 67.771698 C-159.85762484 66.01889368 -156.38253054 64.2407801 -152.90625 62.46484375 C-152.2151413 62.11247147 -151.52403259 61.76009918 -150.8119812 61.39704895 C-145.08808168 58.47133433 -139.43709513 55.4249115 -133.8125 52.3125 C-125.42947424 47.68339855 -116.95413446 43.25129754 -108.4375 38.875 C-98.95241204 34.00085534 -89.53917473 29.0198686 -80.19897461 23.87207031 C-71.71565333 19.21394719 -63.1260661 14.76834166 -54.52490234 10.33300781 C-47.16410807 6.53671368 -39.84128172 2.68156669 -32.5625 -1.26953125 C-22.51979137 -6.45527514 -9.81454616 -4.84777413 0 0 Z " fill="#655D65" transform="translate(273.9375,24.625)"/>
<path d="M0 0 C3.59635477 2.05488303 7.08507099 4.20753417 10.4987793 6.55371094 C13.60785303 8.66757929 16.85811736 10.43138034 20.1496582 12.24609375 C21.69198556 13.1477958 23.224165 14.06979827 24.7121582 15.05859375 C24.7121582 15.38859375 24.7121582 15.71859375 24.7121582 16.05859375 C23.91924377 16.06223938 23.12632935 16.06588501 22.30938721 16.06964111 C14.83455677 16.10751783 7.36022491 16.16436599 -0.11428452 16.24249649 C-3.95698497 16.28199554 -7.79945547 16.31417177 -11.64233398 16.32958984 C-15.35142195 16.34474097 -19.05987779 16.37915755 -22.76868439 16.42690277 C-24.18319452 16.44173279 -25.59779489 16.4496357 -27.01238251 16.4504776 C-28.99460883 16.45284373 -30.97674729 16.48218681 -32.95874023 16.51269531 C-34.08681091 16.52157776 -35.21488159 16.53046021 -36.37713623 16.53961182 C-40.1375478 17.21009724 -41.05290833 17.956245 -43.2878418 21.05859375 C-43.89010589 24.25521934 -43.82713242 27.41726821 -43.79577637 30.6619873 C-43.80201633 31.64671886 -43.80825629 32.63145041 -43.81468534 33.64602232 C-43.83067608 36.95501162 -43.81798698 40.26327049 -43.80541992 43.57226562 C-43.81083832 45.94072399 -43.81795938 48.30917898 -43.82666016 50.67762756 C-43.84303127 56.44838178 -43.84060047 62.21890277 -43.82900959 67.9896642 C-43.81997996 72.6791976 -43.81874921 77.36867268 -43.82310486 82.05821228 C-43.82371779 82.72537749 -43.82433072 83.3925427 -43.82496223 84.07992503 C-43.82624112 85.43521299 -43.82753797 86.79050093 -43.82885259 88.14578885 C-43.84026172 100.8575555 -43.82713953 113.56920681 -43.80565113 126.28095454 C-43.7877798 137.19077876 -43.79088382 148.10043275 -43.80932617 159.01025391 C-43.83072707 171.67619076 -43.83916305 184.3420265 -43.82687712 197.00797892 C-43.82560291 198.358311 -43.82434542 199.7086431 -43.82310486 201.05897522 C-43.82217921 202.05558688 -43.82217921 202.05558688 -43.82123485 203.07233211 C-43.81777959 207.75681847 -43.82361405 212.44124074 -43.83302307 217.12571716 C-43.84455536 223.42946007 -43.83660346 229.73288067 -43.81344604 236.03658867 C-43.80814497 238.35376385 -43.80969647 240.67096604 -43.8184967 242.98813057 C-43.82938022 246.14418995 -43.81577499 249.29920771 -43.79577637 252.4552002 C-43.80469925 253.37853889 -43.81362214 254.30187758 -43.82281542 255.25319624 C-43.79325394 260.29847136 -43.79325394 260.29847136 -41.3884573 264.62663937 C-38.99229298 266.26006443 -37.75194966 266.56849708 -34.87402344 266.59204102 C-34.00955093 266.60787735 -33.14507843 266.62371368 -32.25440979 266.64002991 C-31.32829391 266.63507004 -30.40217804 266.63011017 -29.44799805 266.625 C-28.00933632 266.63429787 -28.00933632 266.63429787 -26.54161072 266.64378357 C-24.51505548 266.6508812 -22.48844194 266.64770872 -20.46191406 266.63500977 C-17.36438379 266.62115655 -14.26988194 266.65520044 -11.17260742 266.69335938 C-9.20190356 266.69431071 -7.23119592 266.69245096 -5.26049805 266.6875 C-3.87436058 266.70738731 -3.87436058 266.70738731 -2.46022034 266.72767639 C2.11580196 266.66157431 4.07551016 266.5607723 7.77294922 263.64428711 C9.69485547 261.24225803 9.69485547 261.24225803 10.7121582 259.05859375 C23.4727958 258.13737125 23.4727958 258.13737125 26.4621582 260.359375 C27.4621582 261.99609375 27.4621582 261.99609375 28.7121582 265.05859375 C31.27187878 266.33845404 33.07729566 266.18752317 35.94463921 266.19281483 C37.06084109 266.19727267 38.17704298 266.20173051 39.32706916 266.20632344 C41.1818931 266.2060469 41.1818931 266.2060469 43.07418823 266.20576477 C45.03262325 266.2112798 45.03262325 266.2112798 47.0306226 266.21690625 C50.6668866 266.22694316 54.30313408 266.23064574 57.93940997 266.23329556 C61.85633216 266.23719354 65.77324121 266.24677213 69.69015503 266.25550842 C79.15475012 266.27528581 88.6193463 266.28534005 98.0839569 266.29423621 C102.53743891 266.29861649 106.99091972 266.30398392 111.44440079 266.30922508 C126.24214112 266.32623762 141.0398807 266.34073326 155.83762932 266.34797382 C159.6791064 266.34988381 163.52058348 266.35180413 167.36206055 266.35375977 C168.79428527 266.35448538 168.79428527 266.35448538 170.25544383 266.35522565 C185.7335157 266.36353143 201.21151043 266.38887747 216.6895486 266.42134044 C232.56856705 266.45437386 248.44754624 266.47241916 264.32659924 266.47561806 C273.24700587 266.47778647 282.16729996 266.48658343 291.08767319 266.51207924 C298.68232372 266.53373543 306.27683438 266.54186178 313.87151228 266.53211246 C317.74849121 266.52755309 321.62518125 266.52954824 325.50212097 266.5488739 C329.70033985 266.56962097 333.89791189 266.55956775 338.09616089 266.54634094 C339.32824874 266.55731019 340.56033659 266.56827943 341.82976043 266.57958108 C343.5118865 266.56670974 343.5118865 266.56670974 345.22799492 266.55357838 C346.68221645 266.55504359 346.68221645 266.55504359 348.16581619 266.5565384 C351.50105077 265.90432349 352.6813641 264.74559113 354.7121582 262.05859375 C355.30115174 260.01358777 355.30115174 260.01358777 355.21552277 257.81378937 C355.23116925 256.54629577 355.23116925 256.54629577 355.24713182 255.25319624 C355.23820894 254.32985754 355.22928605 253.40651885 355.22009277 252.4552002 C355.22633274 251.47046864 355.2325727 250.48573709 355.23900175 249.47116518 C355.25499249 246.16217588 355.24230339 242.85391701 355.22973633 239.54492188 C355.23515472 237.17646351 355.24227579 234.80800852 355.25097656 232.43955994 C355.26734768 226.66880572 355.26491688 220.89828473 355.253326 215.1275233 C355.24429637 210.4379899 355.24306562 205.74851482 355.24742126 201.05897522 C355.24834066 200.05822741 355.24834066 200.05822741 355.24927863 199.03726247 C355.25055752 197.68197451 355.25185437 196.32668657 355.253169 194.97139865 C355.26457813 182.259632 355.25145593 169.54798069 355.22996753 156.83623296 C355.21209621 145.92640874 355.21520022 135.01675475 355.23364258 124.10693359 C355.25504348 111.44099674 355.26347946 98.775161 355.25119352 86.10920858 C355.24991931 84.7588765 355.24866183 83.4085444 355.24742126 82.05821228 C355.24680416 81.39380451 355.24618706 80.72939673 355.24555126 80.04485539 C355.242096 75.36036903 355.24793046 70.67594676 355.25733948 65.99147034 C355.26887177 59.68772743 355.26091987 53.38430683 355.23776245 47.08059883 C355.23246138 44.76342365 355.23401287 42.44622146 355.24281311 40.12905693 C355.25369663 36.97299755 355.2400914 33.81797979 355.22009277 30.6619873 C355.22901566 29.73864861 355.23793855 28.81530992 355.24713182 27.86399126 C355.21018841 22.83484959 355.21018841 22.83484959 352.86233139 18.49081802 C349.93499227 16.54092572 347.88872201 16.54029898 344.38305664 16.51269531 C343.10203064 16.49297668 341.82100464 16.47325806 340.50115967 16.45294189 C339.10795129 16.45127886 337.71474233 16.45004792 336.3215332 16.44921875 C334.89233527 16.43423474 333.46315464 16.41750712 332.03399658 16.39910889 C328.27916666 16.35544694 324.52457029 16.33543919 320.76953125 16.32037354 C316.93516231 16.30079801 313.10104545 16.25882861 309.2668457 16.21875 C301.74868432 16.14346065 294.23062879 16.09316187 286.7121582 16.05859375 C289.19091341 13.47170025 291.516095 11.95399425 294.7199707 10.31640625 C295.70739258 9.80722656 296.69481445 9.29804688 297.7121582 8.7734375 C298.7434082 8.24878906 299.7746582 7.72414062 300.8371582 7.18359375 C302.86119232 6.1456939 304.88463787 5.10664541 306.9074707 4.06640625 C307.90544678 3.56455811 308.90342285 3.06270996 309.93164062 2.5456543 C312.66065869 1.1562048 312.66065869 1.1562048 314.83056641 -0.41870117 C321.69255839 -5.11410054 329.22248216 -4.66390243 337.22265625 -4.53833008 C339.64156936 -4.50402098 342.0568161 -4.51770618 344.47583008 -4.53710938 C362.76466756 -4.52181082 362.76466756 -4.52181082 369.63378906 1.83764648 C373.54715853 6.10452063 375.96359982 9.9699345 375.95825386 15.86117935 C375.9622356 16.83086403 375.96621735 17.80054871 375.97031975 18.79961777 C375.96158175 20.39253836 375.96158175 20.39253836 375.95266724 22.01763916 C375.95523529 23.70926178 375.95523529 23.70926178 375.95785522 25.43505859 C375.96117518 29.23964688 375.95010291 33.04406052 375.93920898 36.84863281 C375.93748504 39.6125181 375.938774 42.37640011 375.9399395 45.14028549 C375.94100348 51.80427037 375.93176238 58.46820141 375.91893684 65.13217245 C375.90454722 72.83925963 375.90294791 80.54631439 375.90136719 88.25341797 C375.89086285 108.60515177 375.86294067 128.95687357 375.8371582 149.30859375 C375.7959082 194.76609375 375.7546582 240.22359375 375.7121582 287.05859375 C230.5121582 287.05859375 85.3121582 287.05859375 -64.2878418 287.05859375 C-64.3909668 241.68359375 -64.4940918 196.30859375 -64.6003418 149.55859375 C-64.64586182 135.22228516 -64.69138184 120.88597656 -64.73828125 106.11523438 C-64.76086426 88.63183594 -64.76086426 88.63183594 -64.76506042 80.45153809 C-64.76972563 74.72845205 -64.78807677 69.00560968 -64.8157196 63.28259277 C-64.84755532 56.68174128 -64.86201953 50.08112373 -64.85506655 43.4801949 C-64.85205525 40.10358969 -64.85960718 36.72792619 -64.88391745 33.35134602 C-64.90875824 29.73335606 -64.90280411 26.11667678 -64.88911438 22.49865723 C-64.9036777 21.44836082 -64.91824102 20.39806442 -64.93324566 19.31594086 C-64.86507242 12.6204364 -63.58722653 8.25736886 -59.2878418 3.05859375 C-57.1550293 1 -57.1550293 1 -55.1628418 -0.37890625 C-54.50026367 -0.85199219 -53.83768555 -1.32507813 -53.1550293 -1.8125 C-40.79886305 -9.28306913 -12.25104409 -6.01907998 0 0 Z " fill="#DCE7EC" transform="translate(100.287841796875,146.94140625)"/>
<path d="M0 0 C59.07 0 118.14 0 179 0 C181.31 4.62 183.62 9.24 186 14 C195.79818775 23.79818775 202.7211124 27.48648857 216.68940735 27.60708618 C218.19528302 27.60656314 219.70115873 27.60468812 221.20703125 27.6015625 C222.77968287 27.60935447 224.35233034 27.61802747 225.92497253 27.62753296 C229.21061889 27.64239242 232.49583523 27.6419238 235.78149414 27.63134766 C239.96096345 27.61977777 244.13865435 27.65359804 248.31783009 27.700037 C251.56359383 27.72972209 254.8089398 27.73122692 258.05481529 27.72501755 C259.59398603 27.72603389 261.13318335 27.73631705 262.67222023 27.75664139 C274.05213225 27.88848435 283.06553748 26.06902007 292 18.4375 C292.66 17.633125 293.32 16.82875 294 16 C294.66 15.29875 295.32 14.5975 296 13.875 C298.95826119 9.62249954 300.85639413 4.71593292 303 0 C362.07 0 421.14 0 482 0 C482 13.94853084 481.42114935 23.35079275 471.890625 33.31640625 C464.94016798 39.5057595 457.91111984 42.24493773 448.56414604 42.26285553 C447.46762059 42.26901343 447.46762059 42.26901343 446.34894311 42.27529573 C443.8981592 42.28660922 441.44760103 42.28372462 438.99679565 42.28088379 C437.22237805 42.2860526 435.44796278 42.29207934 433.67355072 42.29889059 C428.79618411 42.31501948 423.91887639 42.31860911 419.04148626 42.32008553 C413.78158332 42.32378858 408.52171086 42.33888426 403.26182556 42.35235596 C391.75968008 42.37951575 380.25754855 42.39157096 368.75537634 42.40037727 C361.57276584 42.40590329 354.39016072 42.41437821 347.20755386 42.42338562 C327.31927008 42.44777007 307.4309906 42.46836887 287.54269218 42.4751358 C286.26988121 42.47557494 284.99707023 42.47601407 283.68568922 42.47646651 C282.40984075 42.47690306 281.13399228 42.47733962 279.81948173 42.4777894 C277.23414667 42.47867633 274.64881162 42.47956946 272.06347656 42.48046875 C270.13985521 42.48113304 270.13985521 42.48113304 268.17737283 42.48181075 C247.39914694 42.48970625 226.62106135 42.52461324 205.84288965 42.57118779 C184.50800204 42.61862405 163.17318481 42.64353992 141.8382436 42.64587164 C129.86035529 42.64770465 117.88264979 42.65919671 105.90481186 42.69551086 C95.70505981 42.72632538 85.50554708 42.73654654 75.30575733 42.72003466 C70.10316406 42.71222588 64.90105261 42.71405895 59.69851875 42.74214935 C54.93115942 42.76765431 50.16464327 42.76521043 45.39728488 42.74096793 C43.67720019 42.73705841 41.9570555 42.74319077 40.23705505 42.76065665 C28.07478843 42.87629166 18.57232099 41.00645234 9.0625 32.8125 C0.30016066 23.23605579 0 12.50901344 0 0 Z " fill="#DEE9EE" transform="translate(15,449)"/>
<path d="M0 0 C10.07692387 5.01634545 20.12637304 10.07889357 30.125 15.25 C31.04928802 15.72773361 31.04928802 15.72773361 31.99224854 16.21511841 C40.33680749 20.53193876 48.63450768 24.92427712 56.875 29.4375 C57.76646729 29.92508789 58.65793457 30.41267578 59.57641602 30.91503906 C63.47218809 33.05045052 67.35904221 35.19967519 71.23046875 37.37890625 C86.45289356 45.86891949 100.79557525 49.7608944 118 45 C121.79346601 43.51561526 125.41947245 41.75637592 129.0625 39.9375 C130.05531982 39.4530542 131.04813965 38.9686084 132.07104492 38.46948242 C139.10889858 35.01134862 146.07091945 31.41128737 152.94750977 27.64233398 C157.79959669 25 157.79959669 25 160 25 C160 44.8 160 64.6 160 85 C152.30718732 87.79738643 145.61268271 89.88585877 137.6875 91.1875 C136.73810547 91.35185547 135.78871094 91.51621094 134.81054688 91.68554688 C132.20861376 92.13403081 129.60499932 92.56973579 127 93 C126.05979004 93.17869629 125.11958008 93.35739258 124.15087891 93.54150391 C120.59126656 94.05947632 117.17143047 94.14699047 113.57421875 94.16796875 C112.52372597 94.17438889 112.52372597 94.17438889 111.45201111 94.18093872 C109.19710836 94.19089221 106.94242047 94.19099929 104.6875 94.1875 C103.91823181 94.18656342 103.14896362 94.18562683 102.35638428 94.18466187 C72.90574239 94.10660363 37.78603054 89.72804674 15.25 68.8125 C1.26885948 53.95597501 -0.66635369 36.40365294 -0.25 17 C-0.22986531 15.33856367 -0.21162709 13.67710324 -0.1953125 12.015625 C-0.15195724 8.00980293 -0.08333444 4.0051815 0 0 Z " fill="#443F44" transform="translate(153,177)"/>
<path d="M0 0 C145.2 0 290.4 0 440 0 C440 3.63 440 7.26 440 11 C294.8 11 149.6 11 0 11 C0 7.37 0 3.74 0 0 Z " fill="#ADC8CD" transform="translate(36,423)"/>
<path d="M0 0 C0 17.16 0 34.32 0 52 C-7.69281268 54.79738643 -14.38731729 56.88585877 -22.3125 58.1875 C-23.26189453 58.35185547 -24.21128906 58.51621094 -25.18945312 58.68554688 C-27.00812801 58.99902398 -28.82775675 59.30703384 -30.6484375 59.60864258 C-32.50419759 59.91748637 -34.35638161 60.24781637 -36.20703125 60.5859375 C-49.31691384 62.52950051 -59.12864686 60.36001828 -71 55 C-71.94875 54.59394531 -72.8975 54.18789063 -73.875 53.76953125 C-88.98245754 46.85314834 -100.39007619 33.97224332 -106.328125 18.55078125 C-108.06293493 13.19363931 -109.21131762 8.66331218 -109 3 C-104.83466526 4.2923712 -101.08251081 5.8658396 -97.2265625 7.8984375 C-95.6178125 8.74148437 -95.6178125 8.74148437 -93.9765625 9.6015625 C-92.87054688 10.18679687 -91.76453125 10.77203125 -90.625 11.375 C-68.8878869 22.80852466 -68.8878869 22.80852466 -44.69921875 22.3046875 C-32.505932 17.94417436 -21.19869438 10.59949111 -9.94238281 4.28466797 C-8.95334961 3.73568848 -7.96431641 3.18670898 -6.9453125 2.62109375 C-6.04570801 2.11892334 -5.14610352 1.61675293 -4.21923828 1.09936523 C-2 0 -2 0 0 0 Z " fill="#655D65" transform="translate(313,210)"/>
<path d="M0 0 C0.64171316 -0.00623996 1.28342631 -0.01247993 1.94458532 -0.01890898 C4.0928669 -0.03485224 6.24001586 -0.02223099 8.38830566 -0.00964355 C9.92919069 -0.01506414 11.47007054 -0.02218644 13.01094055 -0.03088379 C17.19485224 -0.04912788 21.37836965 -0.04204529 25.56228828 -0.02936745 C29.93932285 -0.01924534 34.3163235 -0.02863093 38.69335938 -0.03491211 C46.04404771 -0.04219083 53.39457532 -0.03259497 60.74523926 -0.0135498 C69.24548329 0.00821943 77.74534356 0.00116821 86.24557829 -0.02085543 C93.54166052 -0.03900308 100.83762718 -0.04157088 108.13372469 -0.03110075 C112.49226453 -0.0248623 116.85062395 -0.02403977 121.20915222 -0.0372467 C125.30671351 -0.04879542 129.4037797 -0.04079781 133.50128746 -0.01766968 C135.00573085 -0.01237729 136.51021585 -0.01390547 138.01464272 -0.02272034 C140.06737315 -0.03363963 142.1185137 -0.01995958 144.17114258 0 C145.89447689 0.00226215 145.89447689 0.00226215 147.65262604 0.00457001 C151.2331918 0.61908196 152.41190427 1.64583396 154.58557129 4.50793457 C155.14807129 7.44543457 155.14807129 7.44543457 154.58557129 10.50793457 C152.06549045 13.64248312 150.55340241 15.30642169 146.56360626 16.13714027 C145.43168602 16.1390254 144.29976578 16.14091053 143.13354492 16.14285278 C141.82970352 16.1569519 140.52586212 16.17105103 139.18251038 16.18557739 C137.7445949 16.17585663 136.30668287 16.16561583 134.86877441 16.15490723 C133.34906466 16.16168506 131.82936313 16.17058913 130.30967712 16.18145752 C126.187663 16.20423826 122.06627508 16.19541993 117.94425011 16.17956209 C113.6290761 16.16689661 109.31395543 16.178645 104.9987793 16.18649292 C97.75238424 16.19558762 90.50624405 16.18360639 83.2598877 16.15979004 C74.88396611 16.13257897 66.50865306 16.14139327 58.13274622 16.16892207 C50.9393679 16.19161735 43.7461727 16.19481121 36.55277014 16.18172872 C32.25733307 16.17393646 27.96218197 16.17288626 23.66676331 16.18941116 C19.62817485 16.20386295 15.59037036 16.19382219 11.55186653 16.16493988 C10.07042301 16.15833271 8.58891343 16.16022057 7.10749626 16.1712532 C5.08422081 16.18493118 3.06080105 16.16473074 1.03759766 16.14285278 C-0.09432259 16.14096766 -1.22624283 16.13908253 -2.39246368 16.13714027 C-6.38225983 15.30642169 -7.89434787 13.64248312 -10.41442871 10.50793457 C-10.97692871 7.44543457 -10.97692871 7.44543457 -10.41442871 4.50793457 C-7.30045652 0.40771976 -5.03846231 0.00661379 0 0 Z " fill="#030503" transform="translate(103.4144287109375,363.4920654296875)"/>
<path d="M0 0 C0.12557268 5.11872862 0.21524578 10.23652056 0.2746582 15.35644531 C0.29947829 17.09032852 0.33334664 18.82411087 0.37719727 20.55761719 C0.8364488 39.20863233 -2.586971 55.28477952 -15.875 69.3125 C-26.10180412 79 -26.10180412 79 -31 79 C-31 58.21 -31 37.42 -31 16 C-26.070625 13.36 -21.14125 10.72 -16.0625 8 C-14.50539307 7.1646875 -12.94828613 6.329375 -11.34399414 5.46875 C-10.1161361 4.8123355 -8.88819583 4.15607479 -7.66015625 3.5 C-7.01751831 3.15453125 -6.37488037 2.8090625 -5.71276855 2.453125 C-1.1140718 0 -1.1140718 0 0 0 Z " fill="#655D65" transform="translate(359,177)"/>
<path d="M0 0 C0.88175903 -0.00990463 1.76351807 -0.01980927 2.67199707 -0.03001404 C3.63158829 -0.02551239 4.5911795 -0.02101074 5.57984924 -0.01637268 C6.59652679 -0.02323593 7.61320435 -0.03009918 8.66069031 -0.03717041 C12.02394039 -0.05548295 15.38672598 -0.05159443 18.75001526 -0.0459137 C21.08644768 -0.05047338 23.42287875 -0.05577831 25.75930786 -0.0617981 C30.6577143 -0.070738 35.55595777 -0.06829601 40.45436096 -0.05836487 C46.7338238 -0.04687482 53.01272435 -0.06708333 59.2921133 -0.09628201 C64.11767148 -0.114622 68.94309438 -0.11435588 73.76867867 -0.10864449 C76.08394726 -0.108491 78.39922486 -0.11455782 80.71446037 -0.12693596 C83.95119951 -0.1418019 87.18689299 -0.13120034 90.42359924 -0.11402893 C91.38116623 -0.1236969 92.33873322 -0.13336487 93.32531738 -0.14332581 C97.54660424 -0.09639645 99.96030021 0.03313307 103.66519165 2.20028687 C105.56642151 4.38768005 105.56642151 4.38768005 106.12892151 7.88768005 C105.56642151 11.38768005 105.56642151 11.38768005 104.1628418 13.5730896 C100.13547283 16.38774381 96.26413907 15.95347541 91.4611969 15.92112732 C89.92155022 15.93405067 89.92155022 15.93405067 88.35079956 15.94723511 C84.95496972 15.9699534 81.55996122 15.9631449 78.16407776 15.9540863 C75.80522414 15.95931945 73.44637262 15.96559479 71.08752441 15.97286987 C66.14199482 15.9832851 61.19675276 15.97869654 56.25123596 15.96409607 C49.91111513 15.94691141 43.57190079 15.97039479 37.23188114 16.00558567 C32.35997503 16.02753876 27.48828647 16.02612308 22.61634636 16.01782036 C20.27874699 16.01699961 17.94113183 16.02388639 15.60357857 16.03859138 C12.33549811 16.05599674 9.06905499 16.04152624 5.80104065 16.01878357 C4.35066406 16.03632187 4.35066406 16.03632187 2.87098694 16.05421448 C-1.7034628 15.98939324 -3.79434169 15.85917027 -7.56933594 13.07479858 C-9.43357849 10.38768005 -9.43357849 10.38768005 -9.49607849 6.76268005 C-7.8945367 1.67542966 -5.25716946 0.01671765 0 0 Z " fill="#000100" transform="translate(102.43357849121094,331.61231994628906)"/>
<path d="M0 0 C12.21 0 24.42 0 37 0 C37.495 6.93 37.495 6.93 38 14 C40.72095677 25.64569497 45.53385999 33.62976549 54 42 C50.09004746 42.15062046 46.1812632 42.25825104 42.26904297 42.32958984 C40.2998504 42.37387882 38.33146051 42.45019904 36.36328125 42.52734375 C25.49280433 42.69288401 17.33085186 39.9703511 9.0625 32.8125 C0.30016066 23.23605579 0 12.50901344 0 0 Z " fill="#B3CFD4" transform="translate(15,449)"/>
<path d="M0 0 C30.36 0 60.72 0 92 0 C90.15078999 4.62302501 89.55501446 5.79620122 86 8.75 C84.948125 9.63945312 84.948125 9.63945312 83.875 10.546875 C80.40003534 13.23997261 78.02012928 13.15001722 73.65771484 13.20874023 C73.00703033 13.21852402 72.35634583 13.2283078 71.6859436 13.23838806 C69.527629 13.26835319 67.36937675 13.28973636 65.2109375 13.30859375 C64.47254261 13.31516558 63.73414772 13.3217374 62.97337723 13.32850838 C59.06088426 13.36111506 55.14841857 13.38555645 51.23583984 13.4050293 C48.00561538 13.42280454 44.77627018 13.45755927 41.54638672 13.50756836 C37.64064127 13.56796854 33.73570758 13.59853243 29.82951736 13.60820198 C28.34559309 13.61672871 26.86168886 13.63547827 25.37803268 13.6649456 C11.36803526 13.92810032 11.36803526 13.92810032 5.44619751 8.55921936 C0 2.68739581 0 2.68739581 0 0 Z " fill="#B3CED3" transform="translate(210,449)"/>
<path d="M0 0 C3.03705507 2.88955177 5.08735201 6.1497463 7.1875 9.75 C7.55552734 10.34554688 7.92355469 10.94109375 8.30273438 11.5546875 C10.81558342 15.86242872 11.53791896 19.04993672 11 24 C9.25 26.4375 9.25 26.4375 6 28 C-4.02608795 29.32678108 -4.02608795 29.32678108 -8.37109375 26.40625 C-10.70882858 22.9529055 -10.60880079 21.12208866 -10 17 C-8.60364787 13.84175479 -6.84694303 10.97517907 -5 8.0625 C-4.52304687 7.28326172 -4.04609375 6.50402344 -3.5546875 5.70117188 C-2.38330779 3.79182294 -1.19849065 1.89240399 0 0 Z " fill="#EFD843" transform="translate(320,304)"/>
<path d="M0 0 C0 2.97 0 5.94 0 9 C-4.09333463 11.11809361 -8.18676116 13.23600949 -12.28027344 15.35375977 C-13.67320246 16.07441384 -15.06610624 16.79511671 -16.45898438 17.51586914 C-18.4595692 18.55107205 -20.46024438 19.58610016 -22.4609375 20.62109375 C-23.08495453 20.94403915 -23.70897156 21.26698456 -24.35189819 21.59971619 C-26.56298294 22.74339063 -28.77342254 23.88671127 -31 25 C-31 22.03 -31 19.06 -31 16 C-26.74725383 13.71872305 -22.49308394 11.44013267 -18.23754883 9.1640625 C-16.78890782 8.38876557 -15.34066448 7.61272513 -13.89282227 6.8359375 C-11.8162992 5.7220175 -9.73837868 4.61074555 -7.66015625 3.5 C-6.68357811 2.9750293 -6.68357811 2.9750293 -5.68727112 2.43945312 C-1.11387171 0 -1.11387171 0 0 0 Z " fill="#443F44" transform="translate(359,177)"/>
</svg>
