<?xml version="1.0" encoding="UTF-8"?>
<svg version="1.1" xmlns="http://www.w3.org/2000/svg" width="1210" height="754">
<path d="M0 0 C2.03602563 5.81739024 3.73288674 11.60999489 5.0847168 17.62158203 C5.27047272 18.43095215 5.45622864 19.24032227 5.64761353 20.07421875 C6.25287072 22.71769825 6.85140917 25.36263959 7.44921875 28.0078125 C7.87073505 29.86152181 8.2924351 31.71518934 8.71430969 33.56881714 C9.59402898 37.43953851 10.47015943 41.31105159 11.34399414 45.18310547 C12.46215763 50.13555469 13.59138404 55.08540779 14.72355938 60.03466988 C15.59610737 63.85626285 16.46171332 67.67940341 17.32535744 71.50301743 C17.73881589 73.32873301 18.15465981 75.15391013 18.57297325 76.97851944 C19.15702428 79.5298457 19.73140945 82.08316872 20.3034668 84.63720703 C20.47641769 85.38336273 20.64936859 86.12951843 20.82756042 86.89828491 C20.98309387 87.60169006 21.13862732 88.30509521 21.2988739 89.02981567 C21.43508998 89.63111864 21.57130606 90.23242161 21.71164989 90.85194588 C22.49271876 96.67049132 21.77727169 101.88512071 20.29818726 107.50914001 C20.11350336 108.23904787 19.92881947 108.96895573 19.7385391 109.72098202 C19.11518883 112.17663227 18.48006116 114.62908587 17.84521484 117.08178711 C17.38765704 118.87594183 16.93093322 120.67030941 16.47496414 122.46486855 C15.47353978 126.40042992 14.4671967 130.33468966 13.45723343 134.26806831 C10.89531842 144.24887091 8.36183898 154.23691871 5.8248632 164.2240833 C4.88855175 167.90907235 3.95129696 171.59382069 3.01400948 175.27856159 C-4.47524914 204.73802244 -11.83092587 234.23085378 -19.19054155 263.72291384 C-21.1704336 271.65659123 -23.15190847 279.58987305 -25.13353077 287.52311842 C-28.57596703 301.30468665 -32.01764196 315.08644488 -35.45849609 328.8684082 C-35.66073773 329.67846449 -35.86297936 330.48852077 -36.07134953 331.32312422 C-38.74363387 342.02680416 -41.41535124 352.73062553 -44.08675319 363.43452573 C-49.33373534 384.45833861 -54.58254347 405.48169453 -59.8359375 426.50390625 C-60.02987617 427.27998509 -60.22381484 428.05606394 -60.42363045 428.85566032 C-71.84102511 474.54236042 -83.31264159 520.2133739 -95.16563416 565.7894249 C-96.21494095 569.8270761 -97.25999132 573.86582196 -98.30488014 577.90461826 C-100.82688427 587.65062739 -103.36939806 597.39103894 -105.9375 607.125 C-106.2220895 608.2047686 -106.2220895 608.2047686 -106.51242828 609.30635071 C-111.40283533 627.85429807 -116.37010616 646.37285815 -121.875 664.75 C-122.10871307 665.53457581 -122.34242615 666.31915161 -122.58322144 667.12750244 C-130.1995838 692.54644786 -130.1995838 692.54644786 -135 696 C-137.9125824 695.94651794 -137.9125824 695.94651794 -141.40014648 695.34936523 C-142.65810028 695.13827118 -143.91605408 694.92717712 -145.21212769 694.70968628 C-150.69224047 693.68294606 -156.15026969 692.59878001 -161.59765625 691.41015625 C-162.7857338 691.15473557 -163.97381134 690.89931488 -165.19789124 690.63615417 C-168.46278625 689.93256747 -171.72659292 689.22430737 -174.98990631 688.51344299 C-177.10124892 688.05406923 -179.21300305 687.59663423 -181.32489014 687.13977051 C-206.15354096 681.76760088 -230.94390018 676.22732505 -255.73057938 670.66532135 C-289.96413531 662.98445378 -324.22461873 655.42947659 -358.5 647.9375 C-359.76735992 647.66042835 -361.03471985 647.3833567 -362.34048462 647.09788895 C-400.52252643 638.75226628 -438.72856378 630.52763923 -476.98242188 622.51733398 C-520.0071384 613.50294136 -520.0071384 613.50294136 -531.5 609.421875 C-541.60570615 605.90517704 -552.1223647 604.51876421 -562.65576172 602.82226562 C-577.76989533 600.36305449 -592.62296972 597.08777583 -607.52429199 593.59716797 C-625.22787108 589.45276428 -642.99190945 585.61412223 -660.77553558 581.8299408 C-663.55808323 581.23763616 -666.34037018 580.64411871 -669.12261963 580.05041504 C-710.08891958 571.31360232 -751.12778134 562.93320093 -792.1796875 554.609375 C-793.16931236 554.40864443 -794.15893723 554.20791386 -795.17855072 554.00110054 C-805.23802985 551.96160363 -815.29970555 549.93481947 -825.37011719 547.94995117 C-826.98675066 547.63037836 -828.60337881 547.31077867 -830.22000122 546.9911499 C-833.14455184 546.41310339 -836.07012662 545.84074947 -838.99655151 545.27227783 C-850.3532899 543.03192376 -861.65806208 540.3384511 -872.43041992 536.02734375 C-879.54318715 533.2318929 -886.62763267 531.8534864 -894.15084839 530.70770264 C-908.8560009 528.44441331 -923.40735253 525.56222214 -937.9375 522.375 C-938.89058044 522.16609131 -939.84366089 521.95718262 -940.82562256 521.74194336 C-957.83062807 518.0012047 -974.78800985 514.05471793 -991.74530029 510.10443115 C-1008.54685139 506.19422817 -1025.38165326 502.53039014 -1042.29719543 499.1479187 C-1043.71085619 498.86497127 -1045.12426457 498.58075956 -1046.53739929 498.29519653 C-1050.38520512 497.51804674 -1054.23614608 496.76481461 -1058.09326172 496.03515625 C-1059.80052991 495.70089948 -1061.5077256 495.36627218 -1063.21484375 495.03125 C-1064.39790855 494.81559387 -1064.39790855 494.81559387 -1065.60487366 494.59558105 C-1070.60561589 493.59585691 -1073.93991363 492.10279736 -1078 489 C-1076.91617326 480.42228555 -1069.86104526 473.6049171 -1063.828125 467.84375 C-1060.35937438 464.34535194 -1057.35329608 460.44842886 -1054.28173828 456.60253906 C-1052.93205686 454.91505166 -1051.57397278 453.23457285 -1050.21484375 451.5546875 C-1043.25058572 442.92518973 -1036.47789121 434.15879213 -1029.77001953 425.32910156 C-1027.25075526 422.01409727 -1024.72584199 418.70340828 -1022.20141602 415.39233398 C-1020.17217308 412.72989049 -1018.14465661 410.06613817 -1016.1171875 407.40234375 C-1013.37891332 403.80616372 -1010.63366673 400.2154713 -1007.8828125 396.62890625 C-1001.10390338 387.78057766 -994.42116048 378.88515929 -987.93945312 369.81665039 C-983.67511659 363.87431583 -979.26280804 358.05398233 -974.8125 352.25 C-970.0083232 345.98255337 -965.27072407 339.68955428 -960.71923828 333.23632812 C-957.27495061 328.3579929 -953.73835134 323.55119866 -950.1875 318.75 C-943.93383446 310.28786327 -937.75615367 301.77352269 -931.60888672 293.23388672 C-928.37162303 288.73905171 -925.12639056 284.24996293 -921.88134766 279.76074219 C-919.12960622 275.95293598 -916.38271929 272.14178542 -913.64453125 268.32421875 C-907.2525112 259.42184757 -900.78621853 250.60718717 -894 242 C-893.2059375 240.98808594 -892.411875 239.97617187 -891.59375 238.93359375 C-890.8203125 237.96550781 -890.046875 236.99742187 -889.25 236 C-888.57453125 235.154375 -887.8990625 234.30875 -887.203125 233.4375 C-881.31442979 226.92234785 -876.04270993 224.61881794 -867.7109375 222.125 C-866.60986664 221.78476807 -865.50879578 221.44453613 -864.37435913 221.09399414 C-852.52912089 217.47263255 -840.59292167 214.18813506 -828.625 211 C-826.94203323 210.54911011 -826.94203323 210.54911011 -825.22506714 210.08911133 C-803.78348901 204.35198557 -782.27732845 199.0774239 -760.51708984 194.6887207 C-743.72038089 191.29007982 -727.09748227 187.44986458 -710.5 183.1875 C-709.18634405 182.85207092 -707.87263215 182.5168609 -706.55886841 182.18185425 C-675.11445878 174.15792341 -643.7931731 165.66894171 -612.46307373 157.21226501 C-611.4631414 156.94236189 -610.46320908 156.67245876 -609.43297577 156.39437675 C-607.40416386 155.84674578 -605.37536038 155.29908359 -603.34656525 154.75139046 C-580.45364398 148.57224778 -557.54198676 142.46420243 -534.625 136.375 C-533.652318 136.11651779 -532.679636 135.85803558 -531.67747879 135.59172058 C-517.11953598 131.72322402 -502.56013588 127.86023332 -488 124 C-487.06682953 123.75256798 -486.13365906 123.50513596 -485.17221069 123.25020599 C-429.14258375 108.39396686 -373.08560468 93.64349166 -317 79 C-316.19122406 78.78882286 -315.38244812 78.57764572 -314.54916382 78.36006927 C-280.16920799 69.38359387 -245.78138027 60.43720938 -211.375 51.5625 C-210.38125555 51.30611378 -210.38125555 51.30611378 -209.36743546 51.04454803 C-192.29288853 46.64007964 -175.20612241 42.28639235 -158.10546875 37.984375 C-113.78651846 26.85736127 -113.78651846 26.85736127 -69.625 15.125 C-68.61180695 14.84967438 -67.59861389 14.57434875 -66.55471802 14.29067993 C-55.69662024 11.33162931 -45.02864309 8.11338532 -34.46508789 4.2253418 C-23.39754553 0.31158184 -11.65465065 -0.08885375 0 0 Z " fill="#8F2B57" transform="translate(1133,34)"/>
<path d="M0 0 C2.25017753 3.37526629 3.13004999 6.63074995 4.125 10.5 C4.39763672 11.51513672 4.39763672 11.51513672 4.67578125 12.55078125 C5.43682178 15.45189063 6 17.9877454 6 21 C6.66 21 7.32 21 8 21 C10.09505404 30.13433666 12.1819063 39.27049743 14.25842285 48.4090662 C15.22297297 52.65278694 16.19029514 56.89583511 17.1640625 61.13745117 C18.10436883 65.23379013 19.03724922 69.33175659 19.96508789 73.43093681 C20.31968332 74.99155852 20.67691309 76.55158417 21.03686523 78.11097908 C21.54206235 80.30169564 22.037699 82.49437879 22.53125 84.68774414 C22.95760742 86.55638878 22.95760742 86.55638878 23.39257812 88.46278381 C24.48265165 94.81063836 23.92387844 100.32766829 22.29818726 106.50914001 C22.02116142 107.6040018 22.02116142 107.6040018 21.7385391 108.72098202 C21.11518883 111.17663227 20.48006116 113.62908587 19.84521484 116.08178711 C19.38765704 117.87594183 18.93093322 119.67030941 18.47496414 121.46486855 C17.47353978 125.40042992 16.4671967 129.33468966 15.45723343 133.26806831 C12.89531842 143.24887091 10.36183898 153.23691871 7.8248632 163.2240833 C6.88855175 166.90907235 5.95129696 170.59382069 5.01400948 174.27856159 C-2.47524914 203.73802244 -9.83092587 233.23085378 -17.19054155 262.72291384 C-19.1704336 270.65659123 -21.15190847 278.58987305 -23.13353077 286.52311842 C-26.57596703 300.30468665 -30.01764196 314.08644488 -33.45849609 327.8684082 C-33.66073773 328.67846449 -33.86297936 329.48852077 -34.07134953 330.32312422 C-36.74363387 341.02680416 -39.41535124 351.73062553 -42.08675319 362.43452573 C-47.33373534 383.45833861 -52.58254347 404.48169453 -57.8359375 425.50390625 C-58.02987617 426.27998509 -58.22381484 427.05606394 -58.42363045 427.85566032 C-69.84102511 473.54236042 -81.31264159 519.2133739 -93.16563416 564.7894249 C-94.21494112 568.82707677 -95.25999149 572.86582336 -96.3048811 576.90462017 C-98.82688397 586.6506308 -101.36982174 596.39092698 -103.9375 606.125 C-104.12707905 606.84455116 -104.3166581 607.56410233 -104.51198196 608.30545807 C-109.41225987 626.89918743 -114.39875334 645.45895205 -119.9375 663.875 C-120.17548309 664.66811584 -120.41346619 665.46123169 -120.65866089 666.27838135 C-123.08915645 674.33135101 -125.67326835 682.26520327 -129 690 C-129.66 690 -130.32 690 -131 690 C-130.26227163 681.99427213 -128.7963184 674.17428741 -127.27880859 666.28491211 C-126.99728479 664.80755211 -126.71606904 663.33013338 -126.43513489 661.85266113 C-125.82933408 658.67028989 -125.22135699 655.488345 -124.61167526 652.30671501 C-123.62946181 647.18093107 -122.65218752 642.05421235 -121.67544556 636.92738342 C-120.10937011 628.7103518 -118.53999416 620.49395446 -116.96924841 612.27781445 C-113.88213118 596.129519 -110.80137051 579.98000977 -107.72166371 563.83029962 C-107.21013557 561.1481389 -106.69845333 558.46600761 -106.18675041 555.78388023 C-99.65230183 521.5288822 -93.21190863 487.25654879 -86.80302608 452.97786164 C-83.12559741 433.30880961 -79.41265145 413.6464898 -75.69662857 393.98469639 C-74.34704538 386.84342961 -73.00277753 379.7011723 -71.66015625 372.55859375 C-67.21086663 348.89857699 -62.71659583 325.2474386 -58.17796707 301.60440826 C-57.74545677 299.35133295 -57.31301257 297.09824495 -56.88058472 294.84515381 C-55.46896073 287.49025586 -54.05710853 280.13540171 -52.64524364 272.78055 C-51.94737895 269.14510667 -51.24954726 265.509657 -50.55171967 261.87420654 C-50.17846974 259.92974553 -49.80520371 257.98528761 -49.43192291 256.04083252 C-46.45095805 240.51258783 -43.47290714 224.98378667 -40.49818039 209.4543457 C-40.04186802 207.07233255 -39.58548045 204.69033379 -39.12901688 202.30834961 C-33.06548222 170.66635608 -27.0501111 139.01570745 -21.08981252 107.35411978 C-20.46313665 104.02550173 -19.83618002 100.69693658 -19.20922357 97.36837137 C-16.43698768 82.64991141 -13.66582912 67.93125616 -10.90587211 53.21048808 C-9.75527648 47.0743545 -8.6020668 40.93871592 -7.44687963 34.8034451 C-6.64429686 30.53997483 -5.84505383 26.27589701 -5.04836375 22.0113219 C-4.44967073 18.81213578 -3.84592547 15.61390296 -3.24291992 12.41552734 C-2.92137546 10.68579083 -2.92137546 10.68579083 -2.59333515 8.92111015 C-2.39662314 7.88297235 -2.19991114 6.84483456 -1.99723816 5.77523804 C-1.74282094 4.41887017 -1.74282094 4.41887017 -1.48326397 3.03510094 C-1 1 -1 1 0 0 Z " fill="#9C1D55" transform="translate(1131,35)"/>
<path d="M0 0 C-0.63944592 12.04850739 -1.74990914 23.99912778 -3 36 C-11.58 36 -20.16 36 -29 36 C-28.67 31.38 -28.34 26.76 -28 22 C-30.70776494 21.35170438 -33.41616445 20.70629398 -36.125 20.0625 C-36.88554687 19.88009766 -37.64609375 19.69769531 -38.4296875 19.50976562 C-60.67558096 14.23595468 -87.27159649 15.16921337 -107.4375 26.9375 C-130.17791249 42.36029058 -141.45424884 66.85176784 -147 93 C-150.98843196 115.24993177 -147.80699409 141.49279238 -136 161 C-135.54496094 161.75539063 -135.08992188 162.51078125 -134.62109375 163.2890625 C-126.34756878 175.3572117 -110.90039478 182.25571384 -96.97265625 185.1015625 C-90.3625432 186.23618009 -83.82128264 186.42365178 -77.125 186.4375 C-75.86445801 186.44064209 -74.60391602 186.44378418 -73.30517578 186.44702148 C-60.96035759 186.29132248 -49.6640744 183.8880248 -38 180 C-31.16721281 179.25968025 -25.62007993 179.87218968 -20 184 C-16.47535819 187.30963098 -13.92133768 190.17091975 -13 195 C-36.38954337 209.56037799 -61.51153725 216.39504306 -89 217 C-88.13761719 217.17539307 -87.27523437 217.35078613 -86.38671875 217.53149414 C-69.44609889 220.98289947 -52.52530778 224.5013703 -35.64233398 228.22607422 C-27.85166989 229.94382405 -20.05608375 231.636021 -12.25390625 233.30078125 C-11.32722137 233.49861206 -10.4005365 233.69644287 -9.44577026 233.90026855 C-4.89795168 234.87066721 -0.34966147 235.83879016 4.19921875 236.80419922 C14.83328276 239.0676986 25.42801493 241.46214115 36 244 C36 244.33 36 244.66 36 245 C29.36779592 244.44773808 22.9362326 243.52192632 16.42407227 242.16162109 C15.52298233 241.97764771 14.6218924 241.79367432 13.6934967 241.60412598 C10.73348053 240.9985966 7.77496953 240.38602255 4.81640625 239.7734375 C2.7174564 239.34276819 0.61840957 238.91257126 -1.48072815 238.4828186 C-7.01326538 237.34895733 -12.54458075 236.20924596 -18.07562256 235.06811523 C-24.65914706 233.71079594 -31.24395652 232.35972971 -37.8286705 231.00819492 C-39.43192373 230.67912097 -39.43192373 230.67912097 -41.06756592 230.34339905 C-42.66196125 230.0161468 -42.66196125 230.0161468 -44.28856659 229.6822834 C-47.48580857 229.02555014 -50.68277802 228.36750372 -53.87969971 227.70921326 C-63.42983705 225.74443132 -72.98199971 223.79345297 -82.54785156 221.90649414 C-83.35886353 221.74616196 -84.16987551 221.58582977 -85.0054636 221.42063904 C-88.69761937 220.69132957 -92.39057617 219.96678578 -96.08555603 219.25192261 C-108.33028659 216.84496118 -120.45699986 213.82090006 -132 209 C-132 208.34 -132 207.68 -132 207 C-133.19625 206.67 -134.3925 206.34 -135.625 206 C-155.9065696 199.10172319 -170.65722839 183.87601971 -180.25 165.125 C-194.42539783 136.24453679 -192.74329266 101.39920579 -182.82910156 71.33007812 C-171.51146748 39.52339388 -150.13758671 12.2725399 -119.375 -2.4375 C-80.89850099 -20.18459749 -38.16404526 -16.52463815 0 0 Z " fill="#FDFDFD" transform="translate(390,360)"/>
<path d="M0 0 C1.06367294 0.00222061 2.12734589 0.00444122 3.22325134 0.00672913 C5.02500572 0.00684242 5.02500572 0.00684242 6.86315918 0.00695801 C8.17042465 0.01211929 9.47769012 0.01728058 10.8245697 0.02259827 C12.16835477 0.02446253 13.51214052 0.02588639 14.85592651 0.02688599 C18.39873622 0.0307105 21.94150515 0.0405402 25.48429871 0.05158997 C29.09706572 0.06180552 32.7098393 0.06638392 36.32261658 0.07142639 C43.41573225 0.08216254 50.50882019 0.09923816 57.60191345 0.12025452 C57.02269356 7.94691351 56.44287394 15.77352787 55.86265564 23.60011292 C55.63722189 26.64357412 55.41239745 29.68707932 55.18785095 32.73060608 C54.88853375 36.78263714 54.58520421 40.83435122 54.27915955 44.88587952 C54.15965799 46.47659992 54.04152346 48.06742353 53.92466736 49.65834045 C53.24293208 58.92620476 52.41324718 68.14627347 51.27978516 77.37036133 C50.67307198 82.34929567 50.24585349 87.29780723 50.03941345 92.30775452 C49.72263188 99.45893002 49.72263188 99.45893002 49.09703064 102.88612366 C48.22329197 108.59342944 48.41598072 114.36071124 48.41661072 120.12269592 C48.41443331 122.34994383 48.39627016 124.57668833 48.37730408 126.80384827 C48.3224639 140.13756476 49.4765255 152.57602564 58.3870697 163.26087952 C67.65195301 172.012104 78.60923578 174.29243521 90.91441345 174.37025452 C91.71814392 174.39087952 92.52187439 174.41150452 93.34996033 174.43275452 C101.70313672 174.48651591 108.49257393 171.88875915 115.91441345 168.18275452 C117.39361267 167.45765686 117.39361267 167.45765686 118.9026947 166.71791077 C121.59835492 165.12236079 123.42541097 163.34480341 125.60191345 161.12025452 C126.26191345 161.12025452 126.92191345 161.12025452 127.60191345 161.12025452 C127.88292908 160.55177795 128.1639447 159.98330139 128.45347595 159.39759827 C129.19823595 157.92074425 129.96283042 156.45366297 130.75035095 154.99916077 C140.78694594 136.04469952 142.19618051 114.40270576 144.16441345 93.43275452 C144.38404894 91.14758169 144.60385811 88.86242554 144.82383728 86.57728577 C145.96510318 74.60064308 147.0104557 62.62614799 147.78941345 50.62025452 C147.86256775 49.49812561 147.93572205 48.3759967 148.01109314 47.21986389 C148.14530729 45.14679091 148.27942871 43.07371192 148.41343689 41.00062561 C150.18451699 13.93430049 150.18451699 13.93430049 158.91441345 5.68275452 C166.40760999 0.00657774 173.38829358 -0.29435838 182.60191345 0.12025452 C182.46215941 3.66218826 182.31402411 7.2037245 182.16441345 10.74525452 C182.12509705 11.74427795 182.08578064 12.74330139 182.04527283 13.77259827 C181.83542102 18.64761706 181.44802849 23.31005724 180.60191345 28.12025452 C180.37238417 30.95052441 180.23649538 33.7840649 180.10191345 36.62025452 C179.86830633 41.54330821 179.41304832 46.25344532 178.60191345 51.12025452 C178.37333969 53.95061845 178.23649646 56.78404223 178.10191345 59.62025452 C178.03221141 61.08916058 177.95935117 62.55792056 177.88316345 64.02650452 C177.85287048 64.66910217 177.82257751 65.31169983 177.79136658 65.97377014 C177.60191345 68.12025452 177.60191345 68.12025452 177.1124115 70.89149475 C176.53394357 74.55014534 176.32584425 78.18027674 176.1526947 81.87416077 C174.37518916 115.20483345 172.27910198 148.8703746 149.60191345 175.12025452 C149.04117126 175.79314514 148.48042908 176.46603577 147.9026947 177.15931702 C134.31550758 192.1497149 112.5401504 199.09793592 92.88365173 200.28431702 C69.64318874 201.23274605 46.75121228 198.42085006 28.41441345 182.93275452 C15.9865085 171.28525176 11.35695328 156.19141263 10.39613342 139.55781555 C10.29885423 135.72569994 10.27274895 131.89845389 10.2933197 128.06556702 C10.29459932 127.36366367 10.29587894 126.66176033 10.29719734 125.93858719 C10.35236007 109.30825222 11.76006046 92.82445292 13.32499695 76.27931213 C13.75879419 71.65831569 14.17186725 67.03542475 14.58802891 62.41281319 C14.91152114 58.82333101 15.23764912 55.23417754 15.57382202 51.64585876 C16.39382869 42.80838743 17.04275122 33.9773578 17.60191345 25.12025452 C10.01191345 25.12025452 2.42191345 25.12025452 -5.39808655 25.12025452 C-5.09104175 21.14059627 -4.77772537 17.16160972 -4.46058655 13.18275452 C-4.37357483 12.04644592 -4.28656311 10.91013733 -4.19691467 9.73939514 C-4.10990295 8.6598053 -4.02289124 7.58021545 -3.9332428 6.46791077 C-3.85469055 5.46767883 -3.77613831 4.4674469 -3.69520569 3.43690491 C-3.29128707 0.28753452 -3.18859541 0.1598954 0 0 Z " fill="#FDFCFD" transform="translate(751.3980865478516,376.87974548339844)"/>
<path d="M0 0 C15.84 0 31.68 0 48 0 C49.41667969 4.39441406 50.83335937 8.78882813 52.29296875 13.31640625 C56.05876854 24.9933636 59.83268379 36.66766951 63.61328125 48.33984375 C64.08585551 49.79912003 64.55842018 51.25839942 65.03097534 52.71768188 C66.94440874 58.62631413 68.85784971 64.53494363 70.77270508 70.44311523 C71.97151813 74.14207233 73.16950987 77.8412946 74.36699486 81.54068184 C74.81192946 82.91472418 75.25714688 84.28867497 75.70269203 85.66251945 C79.57156542 97.59290271 79.57156542 97.59290271 81.3843689 103.47732544 C81.61223933 104.21543992 81.84010977 104.9535544 82.07488537 105.71403599 C82.5148773 107.14327961 82.95211408 108.57337502 83.38627338 110.00440121 C84.20520735 113.26576244 84.20520735 113.26576244 86 116 C86.32572998 115.39341553 86.65145996 114.78683105 86.98706055 114.16186523 C93.11027001 102.77310149 99.28624617 91.42274468 105.6875 80.1875 C110.01936922 72.57679842 114.20976664 64.91302054 118.25585938 57.14697266 C122.94345332 48.15735266 127.79072568 39.25684892 132.69140625 30.38183594 C133.80890364 28.3478239 134.90813445 26.30563147 136 24.2578125 C142.38645686 12.63800904 150.8981381 4.28843575 163.89819336 0.43774414 C166.10548327 -0.02196905 168.07544536 -0.11374682 170.328125 -0.09765625 C171.52695312 -0.09282227 171.52695312 -0.09282227 172.75 -0.08789062 C173.575 -0.07951172 174.4 -0.07113281 175.25 -0.0625 C176.09046875 -0.05798828 176.9309375 -0.05347656 177.796875 -0.04882812 C179.86461401 -0.03707961 181.93231624 -0.01914522 184 0 C182.37504778 5.97467187 179.32417927 10.9939038 176.25 16.3125 C175.06585554 18.38379985 173.88228111 20.45542565 172.69921875 22.52734375 C171.78148682 24.13005127 171.78148682 24.13005127 170.84521484 25.76513672 C167.88696371 30.95127426 164.97471338 36.16291426 162.0625 41.375 C160.88805769 43.47397896 159.71357832 45.57293717 158.5390625 47.671875 C157.35931619 49.78121711 156.17962876 51.89059215 155 54 C147.65789261 67.1291297 140.30171411 80.24965906 132.89208984 93.34082031 C126.55715696 104.53949514 120.2798583 115.77038025 114 127 C106.65789261 140.1291297 99.30171411 153.24965906 91.89208984 166.34082031 C87.93136955 173.3424444 83.991552 180.35555968 80.0625 187.375 C79.4840332 188.40818359 78.90556641 189.44136719 78.30957031 190.50585938 C75.32000973 195.84756174 72.33510369 201.19181713 69.35546875 206.5390625 C62.71358938 218.44725235 55.98938258 230.29197895 49 242 C49.5369751 242.03158203 50.0739502 242.06316406 50.62719727 242.09570312 C58.13562496 242.68187724 65.35823017 244.28973095 72.67980957 245.97952271 C76.65179082 246.89520451 80.62863856 247.78924535 84.60546875 248.68359375 C85.44469879 248.8725975 86.28392883 249.06160126 87.14859009 249.2563324 C96.99368787 251.46334115 106.87123083 253.51260766 116.75 255.5625 C130.46922113 258.41382855 144.17238947 261.32022982 157.85644531 264.33618164 C168.8952427 266.76686404 179.94628625 269.13815558 191 271.5 C204.60981776 274.40878736 218.21171158 277.34939043 231.8046875 280.3359375 C242.86191921 282.76096417 253.93010744 285.13351819 265 287.5 C277.75489874 290.22764709 290.50773111 292.9638672 303.25 295.75 C304.23160095 295.96458359 304.23160095 295.96458359 305.23303223 296.1835022 C314.29871564 298.1675242 323.34861579 300.21417023 332.39233398 302.2956543 C339.17598025 303.84397633 345.98686295 305.21737212 352.81542969 306.55151367 C358.72953753 307.71703771 364.586527 309.05199125 370.44430542 310.47099304 C375.66816488 311.72145685 380.91235084 312.80597834 386.18359375 313.8359375 C396.09924701 315.79823809 405.98571844 317.8816322 415.86108398 320.03710938 C417.69183424 320.43552299 419.52323902 320.83093864 421.35522461 321.22363281 C424.05200704 321.8017344 426.74686164 322.38813017 429.44140625 322.9765625 C430.66930626 323.23755234 430.66930626 323.23755234 431.92201233 323.5038147 C435.45129062 324.28394101 437.96085313 324.97390209 441 327 C436.897532 328.6187065 433.02943907 327.4470416 428.87890625 326.578125 C428.03167999 326.40724365 427.18445374 326.2363623 426.31155396 326.06030273 C423.3929903 325.46717267 420.47774011 324.85924546 417.5625 324.25 C416.5160733 324.03404175 415.46964661 323.8180835 414.39151001 323.59558105 C387.83488122 318.11046006 361.39090798 312.10445026 334.934062 306.16114807 C332.09797846 305.52405398 329.2618839 304.88700902 326.42578125 304.25 C325.47648176 304.03677094 324.52718227 303.82354187 323.54911613 303.60385132 C300.50365995 298.42888564 277.44236876 293.32631654 254.375 288.25 C253.34943623 288.02427559 252.32387245 287.79855118 251.26723099 287.56598663 C216.07406821 279.82185764 180.85595441 272.19521346 145.625 264.625 C144.50274773 264.38380936 143.38049545 264.14261871 142.22423553 263.89411926 C135.72289983 262.49704159 129.22127297 261.10132976 122.71925354 259.70743752 C120.65342899 259.26456313 118.58764277 258.82150988 116.52189636 258.3782711 C105.98868024 256.11889564 95.45229892 253.87790807 84.90283203 251.69555664 C83.15179814 251.33205224 81.40077056 250.96851742 79.64974976 250.60494995 C76.45809045 249.94253028 73.26499748 249.2878222 70.07070923 248.63821411 C60.01732517 246.56982183 50.33153213 243.81388204 40.625 240.4765625 C33.90140577 238.22687504 26.99978574 237.05297637 20 236 C20.66 235.67 21.32 235.34 22 235 C22.70170213 233.34777836 23.36086645 231.67741781 24 230 C25.05465015 227.9066033 26.13694434 225.82702822 27.23828125 223.7578125 C27.71403595 222.86277763 27.71403595 222.86277763 28.19940186 221.94966125 C29.23400172 220.00643588 30.27293737 218.06557445 31.3125 216.125 C31.66770721 215.45993439 32.02291443 214.79486877 32.3888855 214.10964966 C37.1724637 205.15693598 42.04911965 196.26414649 47.0625 187.4375 C47.85503174 186.03371094 47.85503174 186.03371094 48.66357422 184.6015625 C50.86839038 180.70500502 53.08918889 176.82851678 55.4296875 173.01171875 C56.09226562 171.89410156 56.75484375 170.77648437 57.4375 169.625 C57.99308594 168.73039063 58.54867187 167.83578125 59.12109375 166.9140625 C61.24249639 159.88043418 56.84599105 151.03279337 54.6484375 144.28515625 C54.31727432 143.2569426 53.98611115 142.22872894 53.64491272 141.1693573 C52.55862297 137.79920445 51.46677585 134.43087916 50.375 131.0625 C49.6129153 128.70099067 48.85128461 126.33933477 48.09008789 123.97753906 C46.51448343 119.089533 44.937187 114.20207762 43.35888672 109.31494141 C40.03495882 99.01549217 36.73898152 88.70711639 33.44390869 78.39840698 C32.16342096 74.39258256 30.88202294 70.38704979 29.6003418 66.38160706 C28.99558481 64.49098652 28.39124619 62.60023211 27.78735352 60.70933533 C26.12034353 55.49131969 24.44406144 50.27644411 22.75830078 45.06445312 C22.38745865 43.91458923 22.01661652 42.76472534 21.63453674 41.58001709 C20.9140238 39.34638596 20.19123567 37.11348719 19.46592712 34.88140869 C19.14338455 33.87994812 18.82084198 32.87848755 18.48852539 31.84667969 C18.05679771 30.51331573 18.05679771 30.51331573 17.61634827 29.15301514 C17 27 17 27 17 25 C10.73 25 4.46 25 -2 25 C-1.34 16.75 -0.68 8.5 0 0 Z " fill="#FDFDFD" transform="translate(558,402)"/>
<path d="M0 0 C-1.485 18.315 -1.485 18.315 -3 37 C6.24 37 15.48 37 25 37 C24.855625 39.84625 24.71125 42.6925 24.5625 45.625 C24.51939697 46.51010254 24.47629395 47.39520508 24.43188477 48.30712891 C24.39377686 49.02304199 24.35566895 49.73895508 24.31640625 50.4765625 C24.27974854 51.19924316 24.24309082 51.92192383 24.20532227 52.66650391 C23.95931043 55.4624387 23.46142474 58.23145157 23 61 C13.43 61 3.86 61 -6 61 C-6 65.29 -6 69.58 -6 74 C-6.16798838 76.77076652 -6.37692886 79.53962061 -6.64257812 82.30273438 C-6.71085312 83.03167908 -6.77912811 83.76062378 -6.84947205 84.51165771 C-6.99583195 86.06731999 -7.14484009 87.62273517 -7.29637146 89.17790222 C-7.53793585 91.66251742 -7.77102942 94.14780858 -8.0020752 96.63342285 C-8.65960483 103.69161497 -9.33154008 110.74840934 -10.00927734 117.8046875 C-12.37758394 141.06478424 -12.37758394 141.06478424 -13.46875 164.40625 C-13.48901245 165.18109741 -13.5092749 165.95594482 -13.53015137 166.75427246 C-13.48707748 172.40460943 -11.86870709 177.13087882 -9 182 C-4.52989952 186.06605983 -0.32278226 186.69314481 5.4375 187.375 C11.15510558 188.22611723 15.74146571 188.91280572 19.83984375 193.328125 C23.16061627 198.11361536 24.13985993 202.14233697 24 208 C21.47952208 208.48109963 18.9586463 208.95992603 16.4375 209.4375 C15.38079102 209.63956055 15.38079102 209.63956055 14.30273438 209.84570312 C-1.40354017 212.81324809 -18.37571608 213.65915445 -32.82421875 205.5 C-43.00358079 198.48227105 -48.10237837 188.82026473 -50.4921875 176.84375 C-52.77888905 159.53517829 -50.27907579 142.02242658 -48.49786377 124.77153015 C-48.35583527 123.39575554 -48.35583527 123.39575554 -48.2109375 121.9921875 C-48.06528351 120.58130608 -48.06528351 120.58130608 -47.91668701 119.141922 C-46.62903022 106.54384944 -45.53724213 93.92810886 -44.4375 81.3125 C-44.33116241 80.09768951 -44.22482483 78.88287903 -44.11526489 77.6312561 C-42.61785482 60.50390567 -41.18768799 43.37226985 -39.90014648 26.2277832 C-39.84533615 25.50759506 -39.79052582 24.78740692 -39.73405457 24.0453949 C-39.5906074 22.15654985 -39.44995557 20.26749306 -39.30957031 18.37841797 C-38.9904883 14.89619641 -38.52352218 11.45689963 -38 8 C-29.83134224 5.73494445 -21.64286893 3.62203443 -13.375 1.75 C-12.61783691 1.57500977 -11.86067383 1.40001953 -11.08056641 1.21972656 C-7.22318451 0.36176335 -3.99398047 0 0 0 Z " fill="#FDFDFD" transform="translate(522,365)"/>
<path d="M0 0 C18.81 0 37.62 0 57 0 C55.84766611 20.74201 55.84766611 20.74201 55.16796875 28.96484375 C55.05338821 30.38108032 55.05338821 30.38108032 54.93649292 31.82592773 C54.68960902 34.86335343 54.43886354 37.90044197 54.1875 40.9375 C54.10007538 42.00267853 54.01265076 43.06785706 53.9225769 44.16531372 C52.58319262 60.46687325 51.12567672 76.75466827 49.57763672 93.03759766 C48.55705512 103.80984457 47.59362133 114.58601651 46.671875 125.3671875 C46.61536207 126.02750284 46.55884914 126.68781818 46.5006237 127.36814308 C45.88276578 134.59062316 45.27016657 141.8135319 44.66235352 149.03686523 C44.4585278 151.43733993 44.25467182 153.83781206 44.05078125 156.23828125 C43.95927795 157.33941254 43.86777466 158.44054382 43.77349854 159.57504272 C43.3599003 164.4262073 42.91818455 169.21191787 42 174 C34.30917903 174.51751319 28.70995314 173.8760146 22 170 C21.360625 169.63777344 20.72125 169.27554688 20.0625 168.90234375 C12.96371907 164.38911018 9.98322474 157.98507983 8 150 C7.23092352 138.82245228 8.37719481 127.58933255 9.42578125 116.46484375 C9.57613885 114.81325158 9.72587862 113.16160307 9.87504578 111.50990295 C10.26697751 107.18948724 10.66759501 102.86992073 11.07006836 98.55047607 C11.46837281 94.25747212 11.85766057 89.9636517 12.24804688 85.66992188 C14.09234624 65.43953757 16.02001349 45.21752572 18 25 C11.4 25 4.8 25 -2 25 C-1.34 16.75 -0.68 8.5 0 0 Z " fill="#FDFDFD" transform="translate(394,402)"/>
<path d="M0 0 C4.87457551 4.17820758 7.38784836 7.45161064 7.9375 13.9375 C7.8199351 19.77299399 5.69658563 24.05106279 1.71875 28.2734375 C-4.05492066 33.55160657 -8.13919523 34.62262711 -15.90625 34.53125 C-20.83994723 33.96918323 -23.52824851 31.21117737 -26.6875 27.625 C-30.32988151 22.49868528 -29.93872784 17.38658018 -29.375 11.25 C-26.64130008 5.34520818 -21.52709338 1.2094094 -16.0625 -2.1875 C-10.37810394 -3.37725731 -5.1333002 -2.66171122 0 0 Z " fill="#FCFCFC" transform="translate(447.375,354.75)"/>
<path d="M0 0 C8.02592931 0.5301112 15.62314149 2.1510784 23.4375 4 C26.19666671 4.64090157 28.9574232 5.27472507 31.71875 5.90625 C32.81780922 6.15779846 32.81780922 6.15779846 33.93907166 6.41442871 C43.4119007 8.56804355 52.92578475 10.5269019 62.4375 12.5 C76.26057377 15.37187237 90.06780981 18.29711495 103.85522461 21.3359375 C114.89444197 23.76664201 125.94588034 26.13806885 137 28.5 C150.60981776 31.40878736 164.21171158 34.34939043 177.8046875 37.3359375 C188.86191921 39.76096417 199.93010744 42.13351819 211 44.5 C223.75489874 47.22764709 236.50773111 49.9638672 249.25 52.75 C249.90440063 52.89305573 250.55880127 53.03611145 251.23303223 53.1835022 C260.29871564 55.1675242 269.34861579 57.21417023 278.39233398 59.2956543 C285.17598025 60.84397633 291.98686295 62.21737212 298.81542969 63.55151367 C304.72953753 64.71703771 310.586527 66.05199125 316.44430542 67.47099304 C321.66816488 68.72145685 326.91235084 69.80597834 332.18359375 70.8359375 C342.09924701 72.79823809 351.98571844 74.8816322 361.86108398 77.03710938 C363.69183424 77.43552299 365.52323902 77.83093864 367.35522461 78.22363281 C370.05200704 78.8017344 372.74686164 79.38813017 375.44140625 79.9765625 C376.26000626 80.15055573 377.07860626 80.32454895 377.92201233 80.5038147 C381.45129062 81.28394101 383.96085313 81.97390209 387 84 C382.897532 85.6187065 379.02943907 84.4470416 374.87890625 83.578125 C374.03167999 83.40724365 373.18445374 83.2363623 372.31155396 83.06030273 C369.3929903 82.46717267 366.47774011 81.85924546 363.5625 81.25 C362.5160733 81.03404175 361.46964661 80.8180835 360.39151001 80.59558105 C333.83488122 75.11046006 307.39090798 69.10445026 280.934062 63.16114807 C278.09797846 62.52405398 275.2618839 61.88700902 272.42578125 61.25 C271.47648176 61.03677094 270.52718227 60.82354187 269.54911613 60.60385132 C246.50365995 55.42888564 223.44236876 50.32631654 200.375 45.25 C199.34943623 45.02427559 198.32387245 44.79855118 197.26723099 44.56598663 C162.07406821 36.82185764 126.85595441 29.19521346 91.625 21.625 C90.50274773 21.38380936 89.38049545 21.14261871 88.22423553 20.89411926 C63.938424 15.67532012 39.64848268 10.47779352 15.33462524 5.39102173 C14.22028044 5.15751196 14.22028044 5.15751196 13.08342361 4.91928482 C11.10737584 4.5053108 9.13113408 4.09226303 7.15487671 3.67929077 C4.75466547 3.16249043 2.37529415 2.61900763 0 2 C0 1.34 0 0.68 0 0 Z " fill="#F4F1F2" transform="translate(612,645)"/>
<path d="M0 0 C15.8545434 3.12258299 31.67455033 6.37968034 47.46704102 9.80224609 C50.69692188 10.50204137 53.92751041 11.19849464 57.15820312 11.89453125 C70.79334693 14.83823187 84.40493197 17.87649507 98 21 C98 21.33 98 21.66 98 22 C91.4930884 21.45297626 85.17598437 20.57156496 78.78662109 19.23413086 C77.92684662 19.05842056 77.06707214 18.88271027 76.1812439 18.70167542 C73.37764013 18.1274905 70.57555399 17.54623929 67.7734375 16.96484375 C65.8148385 16.56226861 63.85614759 16.16014041 61.89736938 15.75843811 C56.77062115 14.70581515 51.64513529 13.64716842 46.51989746 12.58721924 C41.27834358 11.50434183 36.03560632 10.42722563 30.79296875 9.34960938 C20.5274862 7.23867765 10.26332938 5.12137384 0 3 C0 2.01 0 1.02 0 0 Z " fill="#EFEDEE" transform="translate(328,583)"/>
<path d="M0 0 C5.28 0.99 10.56 1.98 16 3 C14 5 14 5 12.01171875 5.01171875 C11.24472656 4.90472656 10.47773437 4.79773438 9.6875 4.6875 C8.88828125 4.57921875 8.0890625 4.4709375 7.265625 4.359375 C4.82716693 3.9725851 2.40865454 3.54388973 0 3 C0 2.01 0 1.02 0 0 Z " fill="#EFEAEC" transform="translate(879,702)"/>
<path d="M0 0 C2.97 0.33 5.94 0.66 9 1 C9 1.66 9 2.32 9 3 C6.03 2.67 3.06 2.34 0 2 C0 1.34 0 0.68 0 0 Z " fill="#FCFBFC" transform="translate(893,706)"/>
</svg>
