<?xml version="1.0" encoding="UTF-8"?>
<svg version="1.1" xmlns="http://www.w3.org/2000/svg" width="512" height="512">
<path d="M0 0 C8.16541792 4.74206979 15.67931166 10.69199903 23.25 16.3125 C24.83410542 17.48118748 26.41873797 18.64916081 28.00390625 19.81640625 C30.38441276 21.56949624 32.76445623 23.32317952 35.14233398 25.07983398 C40.4865918 29.02590069 45.85827662 32.93159228 51.25 36.8125 C58.25215242 41.85257819 65.20613256 46.95463385 72.14453125 52.08203125 C77.48857676 56.02665404 82.85910781 59.93219056 88.25 63.8125 C95.24439913 68.84699745 102.19308871 73.94022607 109.12036133 79.06665039 C113.11642024 82.01950679 117.1259352 84.95015488 121.16796875 87.83984375 C121.96847656 88.41283203 122.76898438 88.98582031 123.59375 89.57617188 C125.0976226 90.65018756 126.60392929 91.72080776 128.11328125 92.78710938 C143.0839959 103.48247948 143.0839959 103.48247948 144.25 109.3125 C145.17312797 117.46679705 141.51929138 122.77127986 136.875 129.125 C133.45948651 133.32202929 130.67423723 135.67789233 125.2265625 136.6875 C114.19081054 137.61682648 105.5031888 128.31481913 97.25 122.3125 C97.25 168.1825 97.25 214.0525 97.25 261.3125 C99.89 261.9725 102.53 262.6325 105.25 263.3125 C106.24 263.6425 107.23 263.9725 108.25 264.3125 C112.1227981 260.53966492 115.98142689 256.75305309 119.82836914 252.95385742 C121.13491992 251.66724171 122.44506023 250.38425939 123.7590332 249.10522461 C141.25193163 232.06547555 147.24663408 215.23918382 152.91589546 191.93304634 C153.64616296 188.93301346 154.38486879 185.93516534 155.12571716 182.93772888 C157.22751368 174.42755833 159.31417431 165.91369857 161.39624023 157.39868164 C162.67783044 152.15985757 163.96868541 146.92338425 165.26499748 141.68818474 C165.75382433 139.70565883 166.2390177 137.72223315 166.72039986 135.73788643 C167.39294072 132.96571359 168.07717777 130.19666312 168.76391602 127.42797852 C168.95674667 126.62003845 169.14957733 125.81209839 169.34825134 124.97967529 C171.55601497 116.19203414 174.6768507 109.5395256 182.25 104.3125 C188.65578919 100.77245861 196.24743442 100.768348 203.18359375 102.58984375 C209.5051961 104.80061206 214.07327941 109.27250658 217.2265625 115.125 C221.5166426 125.06836322 218.97726328 137.16996529 218.296875 147.68359375 C218.19432755 149.28939127 218.09180949 150.89519067 217.98931885 152.50099182 C217.77315539 155.8724875 217.55411422 159.24378331 217.33349609 162.61499023 C217.11287018 165.99324943 216.89767656 169.37177692 216.68798828 172.75073242 C215.5760735 190.64633264 214.28163225 208.49419863 212.2578125 226.3125 C212.17908653 227.01636274 212.10036057 227.72022549 212.01924896 228.4454174 C208.97678911 255.3342814 203.45564265 281.50101311 190.25 305.3125 C189.70730469 306.29734375 189.16460937 307.2821875 188.60546875 308.296875 C183.87689688 316.25836341 177.67297732 322.71737264 171.25 329.3125 C170.74243164 329.84053223 170.23486328 330.36856445 169.71191406 330.91259766 C163.85795337 336.99461027 157.86125044 342.56672316 151.24609375 347.828125 C147.5379796 350.90291065 144.0160728 354.14646627 140.5 357.4375 C139.88600342 358.01161621 139.27200684 358.58573242 138.6394043 359.17724609 C132.25549617 365.18856597 126.07063963 371.18546712 120.6875 378.125 C120.21497803 378.7324707 119.74245605 379.33994141 119.25561523 379.96582031 C108.68499704 393.74488925 103.5416809 407.08073118 102.8125 424.375 C102.43846121 432.86742018 101.86156539 441.20951656 95.25 447.3125 C86.4302274 453.76189057 76.86931493 453.02207125 66.46484375 452.95947266 C64.56827965 452.96625643 62.67172215 452.97516381 60.775177 452.98602295 C55.64699643 453.00873247 50.51932127 453.00001445 45.39113235 452.98412752 C40.01196225 452.97142521 34.632834 452.98322064 29.25366211 452.99105835 C20.22208934 453.0001423 11.19072133 452.98819988 2.15917969 452.96435547 C-8.26675229 452.93714671 -18.69219529 452.94596175 -29.11811543 452.9734875 C-38.08659441 452.99621327 -47.05492661 452.99936168 -56.0234251 452.98629415 C-61.37247921 452.97851873 -66.72130386 452.97740548 -72.07034302 452.99397659 C-77.10045261 453.00847256 -82.12993479 452.99830607 -87.15997696 452.96950531 C-89.00054002 452.96292185 -90.84115633 452.964745 -92.68169785 452.97581863 C-111.25879982 453.07724134 -111.25879982 453.07724134 -118.75 447.3125 C-124.90123196 440.90252886 -125.94031064 433.45602413 -126.125 424.875 C-127.18431377 399.02187375 -140.39513725 381.41327375 -157.75 363.3125 C-158.81734375 362.18328125 -158.81734375 362.18328125 -159.90625 361.03125 C-163.35044725 357.47412825 -166.95163563 354.28754698 -170.8125 351.1875 C-177.51690266 345.79422186 -183.75737385 339.94101127 -189.97802734 334.00097656 C-191.57664252 332.47768881 -193.18751322 330.96865462 -194.80078125 329.4609375 C-206.3573209 318.37842847 -214.20502807 305.82709544 -220.75 291.3125 C-221.21019531 290.31476563 -221.67039062 289.31703125 -222.14453125 288.2890625 C-238.53255005 249.47807195 -238.32574411 203.39298669 -240.9375 161.9375 C-240.98303009 161.21820061 -241.02856018 160.49890121 -241.07546997 159.75780487 C-241.34146439 155.55253499 -241.60344705 151.34704806 -241.85959816 147.14116669 C-241.97688978 145.22260446 -242.09676457 143.3042007 -242.21672058 141.38580322 C-243.68303567 116.88404969 -243.68303567 116.88404969 -236.87890625 109.19921875 C-231.11376556 103.93539464 -225.65581182 101.46426951 -217.75 101.3125 C-210.46643026 101.8335821 -204.89638528 104.05374823 -199.75 109.3125 C-196.68780027 113.46364533 -195.01135747 117.02361873 -193.77050781 122.01928711 C-193.52556076 122.984664 -193.52556076 122.984664 -193.27566528 123.96954346 C-192.74042392 126.09037626 -192.2218091 128.2149067 -191.703125 130.33984375 C-191.3254963 131.8491054 -190.94679143 133.35809814 -190.56707764 134.86683655 C-189.56695226 138.85220021 -188.58067221 142.84086102 -187.59753418 146.83044434 C-186.62469035 150.76971657 -185.64031483 154.7060968 -184.65625 158.64257812 C-184.26750047 160.19885348 -183.87878786 161.75513806 -183.4901123 163.31143188 C-183.20230141 164.46374235 -183.20230141 164.46374235 -182.90867615 165.63933182 C-182.32826467 167.96428428 -181.74854866 170.28940904 -181.16906738 172.61459351 C-180.21816958 176.42994441 -179.26611678 180.24500491 -178.31289673 184.05977631 C-177.93774707 185.56113257 -177.56280797 187.06254146 -177.18807983 188.56400299 C-176.11046749 192.87897209 -175.02533323 197.19192111 -173.92922211 201.50222969 C-173.4399493 203.43259629 -172.95754321 205.36469936 -172.47540283 207.29685974 C-167.55295451 226.55884012 -158.21824192 238.33500091 -144.25 252 C-143.03314985 253.20176121 -141.81699912 254.40423106 -140.6015625 255.60742188 C-137.65902063 258.51732629 -134.70725212 261.41754954 -131.75 264.3125 C-130.81027344 263.98765625 -130.81027344 263.98765625 -129.8515625 263.65625 C-129.03429687 263.3778125 -128.21703125 263.099375 -127.375 262.8125 C-126.56289062 262.5340625 -125.75078125 262.255625 -124.9140625 261.96875 C-122.75 261.3125 -122.75 261.3125 -120.75 261.3125 C-120.75 215.4425 -120.75 169.5725 -120.75 122.3125 C-125.37 125.6125 -129.99 128.9125 -134.75 132.3125 C-143.74270073 137.45118613 -143.74270073 137.45118613 -150.75 136.3125 C-158.65289174 133.63116173 -162.59453933 126.15206724 -166.75 119.3125 C-168.29033038 114.69150885 -168.2885555 110.86480704 -166.6875 106.25 C-162.48937646 99.88510303 -155.64497096 95.67450246 -149.5 91.3125 C-147.90044508 90.16749963 -146.30150682 89.0216374 -144.703125 87.875 C-143.88521484 87.28847656 -143.06730469 86.70195313 -142.22460938 86.09765625 C-138.2094857 83.20118976 -134.23003219 80.25690319 -130.25 77.3125 C-123.37325766 72.2300567 -116.45966409 67.20246838 -109.51953125 62.20703125 C-104.06916162 58.27857984 -98.65325984 54.30544732 -93.25 50.3125 C-86.3729644 45.23044922 -79.45966917 40.20247203 -72.51953125 35.20703125 C-67.06915061 31.2785719 -61.65388464 27.30461357 -56.25 23.3125 C-53.87808372 21.56483638 -51.50573899 19.8177558 -49.13330078 18.07080078 C-47.52831444 16.88670821 -45.92515648 15.70013378 -44.32373047 14.51123047 C-15.45882505 -6.90316498 -15.45882505 -6.90316498 0 0 Z " fill="#1F303F" transform="translate(267.75,30.6875)"/>
<path d="M0 0 C3.50360824 1.38325516 5.94123697 3.18053065 8.859375 5.56640625 C10.01129741 6.48913479 11.16500051 7.40964396 12.3203125 8.328125 C13.20154785 9.03267822 13.20154785 9.03267822 14.10058594 9.75146484 C16.82914474 11.88840665 19.6506337 13.88476154 22.484375 15.87890625 C28.07600976 19.83346443 33.60286704 23.86919818 39.109375 27.94140625 C45.33257818 32.54186904 51.57787713 37.1083564 57.859375 41.62890625 C65.0795576 46.82523162 72.25308817 52.0822189 79.40429688 57.37304688 C80.14615234 57.92154297 80.88800781 58.47003906 81.65234375 59.03515625 C82.2971167 59.51275391 82.94188965 59.99035156 83.60620117 60.48242188 C85.97113709 62.31932807 85.97113709 62.31932807 89.43664551 63.81796265 C92.10128077 65.7496629 92.77847722 66.78234455 93.53623676 70.02854538 C93.82503764 73.94272595 93.88702692 77.82882471 93.8762207 81.75048828 C93.89717569 83.26049361 93.92099669 84.77046148 93.94746399 86.28038025 C94.00926048 90.37800028 94.02570704 94.47459708 94.03017449 98.57263803 C94.03515536 101.13625972 94.05010911 103.69962249 94.06865501 106.26317978 C94.13341525 115.21728734 94.16200306 124.17066603 94.15649414 133.125 C94.15229461 141.45420848 94.22602604 149.78023441 94.33669978 158.10863793 C94.42847203 165.27163486 94.46577141 172.43359666 94.46130627 179.59717643 C94.45952718 183.87036687 94.47912847 188.14073234 94.55355263 192.41333389 C95.00895132 220.46154683 95.00895132 220.46154683 89.79290771 226.59176636 C86.46424871 229.57610544 82.92037013 231.31252414 78.859375 233.12890625 C76.33107345 234.99142371 76.33107345 234.99142371 74.3359375 236.80859375 C73.6963208 237.33799561 73.0567041 237.86739746 72.39770508 238.4128418 C71.76630615 238.93789307 71.13490723 239.46294434 70.484375 240.00390625 C69.04329703 241.19570955 67.6018824 242.38710588 66.16015625 243.578125 C65.44682129 244.16770996 64.73348633 244.75729492 63.99853516 245.36474609 C55.63563667 252.26160805 47.22156426 259.08984482 38.671875 265.75390625 C32.9130373 270.24715506 27.29602856 274.88613568 21.7578125 279.6484375 C20.05368097 281.106825 18.3353558 282.54938214 16.5859375 283.953125 C9.75204028 289.53098972 3.51918247 297.05806768 -0.140625 305.12890625 C-0.800625 305.12890625 -1.460625 305.12890625 -2.140625 305.12890625 C-3.22654113 303.54665726 -4.2330396 301.90970213 -5.203125 300.25390625 C-12.52480691 288.54816226 -22.26095773 280.43805479 -32.92089844 271.90917969 C-35.05866604 270.19463928 -37.18393729 268.46599472 -39.3046875 266.73046875 C-46.06989433 261.19648711 -52.88687278 255.7386465 -59.77978516 250.36474609 C-65.15879844 246.15303493 -70.42404997 241.80705871 -75.66577148 237.42602539 C-76.31876221 236.88324951 -76.97175293 236.34047363 -77.64453125 235.78125 C-78.2896315 235.23300442 -78.93473175 234.68475883 -79.59938049 234.11989975 C-82.18246998 232.02368618 -82.18246998 232.02368618 -85.36096191 230.11705399 C-90.21532539 227.01298202 -94.32721051 224.33020526 -96.37644958 218.78446198 C-96.8705518 214.82557578 -96.96997768 210.96627823 -96.91796875 206.98730469 C-96.94546113 205.48136568 -96.97835963 203.97551726 -97.01620483 202.46980286 C-97.10064212 198.4044405 -97.10287657 194.34304983 -97.08444595 190.27699947 C-97.07596344 186.87012136 -97.10660026 183.46402069 -97.1365118 180.05729795 C-97.20588175 172.01105358 -97.20676166 163.96678671 -97.16503906 155.92041016 C-97.12339225 147.65057916 -97.19889592 139.38768313 -97.33228588 131.11897826 C-97.44296347 123.99204699 -97.47909602 116.86730261 -97.45702076 109.73954988 C-97.44465132 105.49411122 -97.45951731 101.25350407 -97.54684448 97.00884247 C-98.02732375 71.4418467 -98.02732375 71.4418467 -93.30999756 64.39381409 C-89.00503029 59.9598011 -84.14288804 57.06575022 -78.60983276 54.40250397 C-74.46605317 52.26517543 -70.85180051 49.4307098 -67.140625 46.62890625 C-65.65337458 45.55275808 -64.16405482 44.47945885 -62.671875 43.41015625 C-57.97103985 40.01510864 -53.30408798 36.57502803 -48.640625 33.12890625 C-41.74739865 28.0365432 -34.83634599 22.97068753 -27.86621094 17.98388672 C-23.9414277 15.17317406 -20.06021164 12.31962384 -16.22265625 9.390625 C-15.4138501 8.78226807 -14.60504395 8.17391113 -13.77172852 7.54711914 C-12.22115815 6.3793821 -10.68062538 5.19815674 -9.15209961 4.00170898 C-4.01387307 0.16474852 -4.01387307 0.16474852 0 0 Z " fill="#FDBE31" transform="translate(257.140625,72.87109375)"/>
<path d="M0 0 C0.639375 -0.00128906 1.27875 -0.00257813 1.9375 -0.00390625 C4.98613354 0.83331319 6.69111631 2.42512975 9 4.5625 C10.1917572 7.11860657 10.1917572 7.11860657 11.00756836 10.10668945 C11.32958221 11.26504303 11.65159607 12.42339661 11.98336792 13.61685181 C12.32451575 14.93148077 12.6632798 16.24673001 13 17.5625 C13.18306324 18.2630035 13.36612648 18.963507 13.55473709 19.68523788 C15.04431981 25.3968406 16.46421472 31.12494762 17.87890625 36.85546875 C18.33644476 38.69632831 18.79437352 40.53709091 19.25267029 42.37776184 C20.44964179 47.18825514 21.64275795 51.99969466 22.83459473 56.8114624 C24.74428033 64.52082122 26.65761997 72.2292658 28.57530022 79.93663979 C29.23930254 82.60919013 29.9002374 85.28248575 30.56092834 87.95585632 C34.11174026 103.4594082 34.11174026 103.4594082 40.1875 118.0625 C40.71730469 119.0628125 41.24710938 120.063125 41.79296875 121.09375 C48.48186251 132.1387385 58.12492965 140.81162226 67.40649414 149.6262207 C69.18153769 151.31695265 70.9374076 153.02576449 72.69140625 154.73828125 C73.24018936 155.24982254 73.78897247 155.76136383 74.35438538 156.28840637 C75.85375977 157.7668457 75.85375977 157.7668457 78 160.5625 C77.84667969 163.26757812 77.84667969 163.26757812 77 165.5625 C76.28511841 173.19181004 76.76952514 180.01437264 81 186.5625 C87.6988953 193.91416305 95.78635165 199.89154479 103.63671875 205.953125 C108.51018867 209.71780151 113.24400042 213.65131613 118 217.5625 C122.65748207 221.38168527 127.33079657 225.18028762 132.02197266 228.95800781 C133.91743513 230.49552687 135.79350107 232.0541965 137.66796875 233.6171875 C138.7988278 234.5372595 139.93030379 235.45657394 141.0625 236.375 C142.04347656 237.18582031 143.02445313 237.99664062 144.03515625 238.83203125 C147.64811433 240.94078017 149.88076211 241.05206129 154 240.5625 C156.31704892 238.63882341 156.31704892 238.63882341 156.5078125 235.296875 C155.84270604 230.40578441 153.59551838 228.66917837 149.875 225.8125 C148.92427612 225.04172119 148.92427612 225.04172119 147.9543457 224.25537109 C145.98621026 222.66869122 143.99643715 221.11335265 142 219.5625 C140.84957127 218.65451831 139.69980033 217.74570239 138.55078125 216.8359375 C136.85788266 215.50003468 135.16239229 214.1679773 133.45996094 212.84423828 C128.04927429 208.63609243 122.76070436 204.28717735 117.48413086 199.91259766 C113.85889368 196.90907691 110.2198694 193.92747367 106.5390625 190.9921875 C105.81895996 190.41581543 105.09885742 189.83944336 104.35693359 189.24560547 C102.99662631 188.1589359 101.63261452 187.07688009 100.26416016 186.00048828 C90.45014027 178.14057608 90.45014027 178.14057608 89.3125 171.625 C89.60363979 166.74136476 92.47275023 163.7150937 96 160.5625 C99.56211092 158.78144454 103.24124427 159.58257916 107 160.5625 C109.96348928 162.24346202 112.40464562 164.35876187 114.9375 166.625 C116.34225997 167.8244389 117.74720717 169.02365856 119.15234375 170.22265625 C119.81862793 170.80289551 120.48491211 171.38313477 121.17138672 171.98095703 C123.39796665 173.90669599 125.6866097 175.74231981 128 177.5625 C133.06702315 181.60242386 138.09054617 185.69521376 143.1171875 189.78515625 C146.73319719 192.72572262 150.35573925 195.65694076 154 198.5625 C195.68937413 231.84333935 195.68937413 231.84333935 200 255.5625 C200.3795372 260.84437616 200.35253346 266.10035573 200.29296875 271.390625 C200.28735808 272.87562629 200.28309496 274.36063321 200.28010559 275.84564209 C200.26877232 279.71229995 200.23940791 283.57860775 200.20599365 287.44512939 C200.17504095 291.40738187 200.16154699 295.36969215 200.14648438 299.33203125 C200.11452421 307.07567865 200.06347177 314.81903986 200 322.5625 C188.74307318 322.67835255 177.48628818 322.7671946 166.2288866 322.82156086 C161.00157933 322.84765415 155.77467994 322.88304768 150.54760742 322.93969727 C145.50310445 322.99402605 140.45899377 323.02392255 135.41422081 323.03688622 C133.48964957 323.04612451 131.56509979 323.06416495 129.64069557 323.09115028 C126.94464357 323.12745246 124.25021218 323.13244492 121.55395508 323.13012695 C120.75841721 323.14810333 119.96287933 323.16607971 119.14323425 323.18460083 C115.07618999 323.14676902 113.23361975 322.74813631 110.00836182 320.18531799 C107.79355641 317.29289522 107.34542812 315.9418145 107.21484375 312.3515625 C107.16175049 311.3613208 107.10865723 310.3710791 107.05395508 309.35083008 C107.0155249 308.30693115 106.97709473 307.26303223 106.9375 306.1875 C105.65109176 285.27122278 99.23083648 269.94551068 86 253.5625 C85.5659082 253.02012695 85.13181641 252.47775391 84.68457031 251.91894531 C75.16334625 240.10772033 64.3378829 229.55060765 52.5 220.0625 C24.27926569 197.40941056 6.95814204 170.67713174 1 134.5625 C0.84966309 133.6751416 0.69932617 132.7877832 0.54443359 131.87353516 C-4.17430273 103.54733319 -6.07190342 75.07367823 -7.6875 46.4375 C-7.75429962 45.2660141 -7.82109924 44.0945282 -7.8899231 42.88754272 C-8.25730117 36.37225168 -8.5939746 29.85683274 -8.87640381 23.33728027 C-8.95464222 21.58079895 -9.04004267 19.82460952 -9.13531494 18.06896973 C-9.24704139 15.96526722 -9.3269673 13.86331944 -9.39453125 11.7578125 C-9.4406958 10.65711426 -9.48686035 9.55641602 -9.53442383 8.42236328 C-8.63267426 3.59682904 -5.09989175 -0.17479468 0 0 Z " fill="#EEB06D" transform="translate(49,146.4375)"/>
<path d="M0 0 C3.38031589 1.18767855 3.93216817 1.89825225 6 5 C6.22167969 8.00073242 6.22167969 8.00073242 6.171875 11.66796875 C6.16387878 12.33193161 6.15588257 12.99589447 6.14764404 13.67997742 C6.03016033 21.23151395 5.67184879 28.77275386 5.25 36.3125 C5.20776306 37.07947205 5.16552612 37.84644409 5.12200928 38.63665771 C1.41418899 105.09920985 1.41418899 105.09920985 -4 134 C-4.23154785 135.26312012 -4.23154785 135.26312012 -4.46777344 136.55175781 C-8.52173143 158.10715811 -16.1112965 179.49295916 -31 196 C-32.28390625 197.46179688 -32.28390625 197.46179688 -33.59375 198.953125 C-40.80311669 207.0684611 -48.57851845 214.2804333 -57.0625 221.0625 C-68.79187141 230.58948588 -79.89911427 240.90753599 -89 253 C-89.74378906 253.91652344 -90.48757813 254.83304688 -91.25390625 255.77734375 C-102.4494053 269.89011328 -109.72570163 285.98851296 -110.140625 304.2265625 C-110.16962891 305.309375 -110.16962891 305.309375 -110.19921875 306.4140625 C-110.23324596 307.89555474 -110.25131555 309.37749431 -110.25390625 310.859375 C-110.29064453 311.93832031 -110.29064453 311.93832031 -110.328125 313.0390625 C-110.3374707 313.68053223 -110.34681641 314.32200195 -110.35644531 314.98291016 C-111.42541885 318.3333879 -113.28326658 319.81401258 -116 322 C-119.04546637 322.46903046 -121.51826739 322.6362229 -124.55395508 322.56762695 C-125.82789124 322.56872215 -125.82789124 322.56872215 -127.12756348 322.56983948 C-129.92554324 322.56636516 -132.72184352 322.52751237 -135.51953125 322.48828125 C-137.46293732 322.47895255 -139.40635518 322.47183671 -141.34977722 322.46684265 C-146.45792259 322.44777738 -151.56535396 322.39868039 -156.67321777 322.34332275 C-161.88816672 322.29212026 -167.10323136 322.26932645 -172.31835938 322.24414062 C-182.54588614 322.19056141 -192.77288363 322.10525408 -203 322 C-203.06990607 313.47156498 -203.12301531 304.94325225 -203.15543652 296.41460037 C-203.17100714 292.45321692 -203.19208529 288.49203134 -203.22631836 284.53076172 C-203.25922247 280.69872885 -203.27691747 276.86688476 -203.28463173 273.03472137 C-203.29012014 271.58207991 -203.30083537 270.12944727 -203.31719017 268.67688751 C-203.50630491 251.16353741 -199.77195037 236.28468774 -187.40234375 223.359375 C-180.84170554 216.91608153 -173.9314999 211.07504679 -166.67407227 205.44433594 C-161.79399316 201.65243127 -157.01146323 197.75204398 -152.25 193.8125 C-147.08403707 189.53985619 -141.90493082 185.29115453 -136.65234375 181.125 C-134.48593212 179.38931822 -132.33570757 177.63775491 -130.19140625 175.875 C-118.10022742 165.94250286 -118.10022742 165.94250286 -112.375 161.6875 C-111.66085937 161.15511719 -110.94671875 160.62273437 -110.2109375 160.07421875 C-107.30386597 158.66177233 -105.19508439 158.69712818 -102 159 C-98.23543234 161.06682146 -94.94786023 163.10427955 -93 167 C-92.32580474 171.04517155 -92.06389236 173.43364167 -94.18359375 176.98046875 C-98.57106815 182.25175095 -103.97418903 186.44725253 -109.33691406 190.67822266 C-111.83469703 192.66339544 -114.30032133 194.68745496 -116.77050781 196.70678711 C-122.52759846 201.4100631 -128.3227895 206.05669051 -134.1875 210.625 C-139.97313604 215.13400495 -145.58957487 219.81866468 -151.16015625 224.58984375 C-153.00809432 226.15817634 -154.90219632 227.67416868 -156.84375 229.125 C-159.3217228 230.86686916 -159.3217228 230.86686916 -159.4375 234.0625 C-159.18604438 237.18251805 -159.18604438 237.18251805 -157 240 C-152.702223 240.63478062 -150.58599472 240.35624989 -146.8515625 238.0859375 C-145.76177023 237.19955516 -144.68692777 236.29458158 -143.625 235.375 C-142.73651367 234.64216797 -142.73651367 234.64216797 -141.83007812 233.89453125 C-140.54893892 232.83510215 -139.27406383 231.7680618 -138.00488281 230.69433594 C-135.24514636 228.36206963 -132.45215886 226.07115095 -129.66064453 223.77709961 C-128.21436947 222.5875588 -126.77004537 221.39564219 -125.32763672 220.20141602 C-120.85461143 216.50091208 -116.33265136 212.87606864 -111.75 209.3125 C-106.01519663 204.84718324 -100.42506233 200.23538013 -94.91796875 195.4921875 C-93.15532123 193.98674022 -91.37158039 192.50488152 -89.55078125 191.0703125 C-84.60576807 187.10333335 -81.51269458 183.25311325 -80 177 C-79.35824074 169.7378808 -79.35824074 169.7378808 -80.88549805 162.72143555 C-81 160 -81 160 -78.59423828 156.99243164 C-77.43377297 155.86687033 -76.25787895 154.75708558 -75.0703125 153.66015625 C-74.44655731 153.05674911 -73.82280212 152.45334198 -73.18014526 151.83164978 C-71.17545926 149.89369722 -69.15275139 147.97628675 -67.125 146.0625 C-57.69132036 137.14792597 -49.05133125 128.62907682 -43 117 C-42.40446823 115.85998032 -42.40446823 115.85998032 -41.79690552 114.69692993 C-37.90216316 106.7307456 -35.85709959 98.47806222 -33.8203125 89.90625 C-33.44167428 88.3497294 -33.06200223 86.79345996 -32.68136597 85.23742676 C-31.68493762 81.15335837 -30.7011779 77.06634906 -29.72058105 72.97845459 C-28.74349909 68.91241981 -27.75656389 64.84878497 -26.76953125 60.78515625 C-26.48015497 59.593209 -26.48015497 59.593209 -26.18493271 58.37718201 C-24.30535575 50.63749111 -22.41993511 42.89923934 -20.52784729 35.16259766 C-20.01116975 33.04576264 -19.4974376 30.92823102 -18.98425293 28.81054688 C-18.06552382 25.02588629 -17.12420095 21.24706294 -16.1796875 17.46875 C-15.91447296 16.36720581 -15.64925842 15.26566162 -15.37600708 14.1307373 C-14.05632003 8.92890544 -12.99920471 4.8319376 -9 1 C-5.97562661 -0.5121867 -3.33758466 -0.17263369 0 0 Z " fill="#EEB06D" transform="translate(466,147)"/>
<path d="M0 0 C0.80066895 0.00572021 1.60133789 0.01144043 2.42626953 0.01733398 C7.56394315 0.17345114 11.60778113 0.62491096 15.7265625 3.9609375 C18.74639501 7.28444032 20.643012 10.572048 21.72265625 14.890625 C23.03828067 19.57798633 24.4429267 22.31077754 28.64453125 24.84765625 C31.31314635 26.3056392 34.0330373 27.6226078 36.7890625 28.90625 C40.125 30.5 40.125 30.5 42.125 32.5 C46.47233038 32.7103547 49.93106736 32.55661094 54.125 31.5 C58.80768083 30.98064813 62.18428582 31.02076825 66.4375 33.1875 C72.45754959 38.36754267 77.79169654 45.8682854 79.6484375 53.7109375 C79.91382575 58.87580104 78.06308497 63.36782702 75.125 67.5 C74.11566406 68.31726563 73.10632813 69.13453125 72.06640625 69.9765625 C67.61425516 74.33994371 67.85960446 79.8217167 67.6875 85.75 C67.64584717 86.8743042 67.60419434 87.9986084 67.5612793 89.15698242 C67.53262339 95.79981016 67.83902219 99.8950955 72.4375 104.8125 C73.99060272 106.05351929 75.55184149 107.28450453 77.125 108.5 C79.98629914 112.98866302 80.19847441 117.36172308 79.125 122.5 C77.97416821 125.25233391 76.57201211 127.80442915 75.0625 130.375 C74.69278076 131.01735596 74.32306152 131.65971191 73.94213867 132.3215332 C71.00904482 137.00058944 68.19212495 139.2609086 63.125 141.5 C60.09765625 141.92578125 60.09765625 141.92578125 57.1875 141.8125 C56.14851562 141.78671875 55.10953125 141.7609375 54.0390625 141.734375 C51.58864619 141.53729058 49.44012747 141.12999956 47.0625 140.5625 C41.71365044 140.47759763 39.07826545 142.65290382 34.8046875 145.6953125 C32.4004644 147.31448316 30.46133824 148.15189961 27.75 149.0625 C24.6677565 150.48170745 24.14926025 151.44371901 22.76953125 154.64453125 C21.96426012 157.1333142 21.17778538 159.6282568 20.41015625 162.12890625 C18.68872827 166.6443845 16.31481714 169.16680799 12.125 171.5 C8.00340578 172.87386474 4.13045595 172.76361748 -0.1875 172.8125 C-1.02990234 172.84150391 -1.87230469 172.87050781 -2.74023438 172.90039062 C-9.48816265 172.96897786 -13.03716199 171.17090636 -18 166.5 C-19.875 163.5 -19.875 163.5 -20.48046875 160.79296875 C-21.74225375 154.84456758 -21.74225375 154.84456758 -25.45458984 150.21679688 C-28.62463737 148.23313695 -31.937184 146.65287671 -35.34375 145.12109375 C-38.875 143.5 -38.875 143.5 -41.12890625 141.765625 C-42.98284251 140.12984037 -42.98284251 140.12984037 -46.3125 140.8125 C-47.00085938 140.92464844 -47.68921875 141.03679687 -48.3984375 141.15234375 C-62.20993944 143.09118235 -62.20993944 143.09118235 -67.6875 139.875 C-73.25753893 134.96272948 -77.92906994 126.79394918 -79.51953125 119.57421875 C-79.74458138 114.0813285 -78.46744713 110.75421371 -74.875 106.5 C-74.12464478 105.83230591 -74.12464478 105.83230591 -73.35913086 105.15112305 C-69.5515898 101.50578006 -68.42292387 98.63912718 -68.04296875 93.375 C-68.01788855 91.08346133 -68.02525234 88.79137319 -68.0625 86.5 C-68.03091797 85.35015625 -67.99933594 84.2003125 -67.96679688 83.015625 C-67.98988948 77.28865862 -68.12891548 73.49913647 -72.3046875 69.33203125 C-73.48187004 68.37195581 -74.67048252 67.42554915 -75.875 66.5 C-79.00885756 62.75958936 -79.62467144 59.24177269 -79.48828125 54.4609375 C-78.70360604 50.6725056 -77.13702758 47.52500728 -75.25 44.1875 C-74.91959717 43.60105713 -74.58919434 43.01461426 -74.2487793 42.41040039 C-71.37735304 37.67602574 -67.86840095 33.99670048 -62.875 31.5 C-58.27278854 31.34910782 -54.37793264 31.59941347 -49.875 32.5 C-42.78912341 33.47736229 -39.28190968 31.32694168 -33.4921875 27.27734375 C-31.29536076 25.78546888 -29.36460962 24.81771922 -26.9375 23.8125 C-22.74659826 20.64794154 -22.24555591 17.34894661 -20.828125 12.41796875 C-19.20003734 7.43361842 -16.76061353 4.67145152 -12.265625 1.87890625 C-8.03882791 0.15994384 -4.51992242 -0.03706393 0 0 Z " fill="#5FB5FC" transform="translate(255.875,135.5)"/>
<path d="M0 0 C0.80066895 0.00572021 1.60133789 0.01144043 2.42626953 0.01733398 C7.56394315 0.17345114 11.60778113 0.62491096 15.7265625 3.9609375 C18.74639501 7.28444032 20.643012 10.572048 21.72265625 14.890625 C23.03828067 19.57798633 24.4429267 22.31077754 28.64453125 24.84765625 C31.31314635 26.3056392 34.0330373 27.6226078 36.7890625 28.90625 C40.125 30.5 40.125 30.5 42.125 32.5 C46.47233038 32.7103547 49.93106736 32.55661094 54.125 31.5 C58.80768083 30.98064813 62.18428582 31.02076825 66.4375 33.1875 C72.45754959 38.36754267 77.79169654 45.8682854 79.6484375 53.7109375 C79.91382575 58.87580104 78.06308497 63.36782702 75.125 67.5 C74.11566406 68.31726563 73.10632813 69.13453125 72.06640625 69.9765625 C67.61425516 74.33994371 67.85960446 79.8217167 67.6875 85.75 C67.64584717 86.8743042 67.60419434 87.9986084 67.5612793 89.15698242 C67.53262339 95.79981016 67.83902219 99.8950955 72.4375 104.8125 C73.99060272 106.05351929 75.55184149 107.28450453 77.125 108.5 C79.98629914 112.98866302 80.19847441 117.36172308 79.125 122.5 C77.97416821 125.25233391 76.57201211 127.80442915 75.0625 130.375 C74.69278076 131.01735596 74.32306152 131.65971191 73.94213867 132.3215332 C71.00904482 137.00058944 68.19212495 139.2609086 63.125 141.5 C60.09765625 141.92578125 60.09765625 141.92578125 57.1875 141.8125 C56.14851562 141.78671875 55.10953125 141.7609375 54.0390625 141.734375 C51.58864619 141.53729058 49.44012747 141.12999956 47.0625 140.5625 C41.71365044 140.47759763 39.07826545 142.65290382 34.8046875 145.6953125 C32.4004644 147.31448316 30.46133824 148.15189961 27.75 149.0625 C24.6677565 150.48170745 24.14926025 151.44371901 22.76953125 154.64453125 C21.96426012 157.1333142 21.17778538 159.6282568 20.41015625 162.12890625 C18.68872827 166.6443845 16.31481714 169.16680799 12.125 171.5 C8.00340578 172.87386474 4.13045595 172.76361748 -0.1875 172.8125 C-1.02990234 172.84150391 -1.87230469 172.87050781 -2.74023438 172.90039062 C-9.48816265 172.96897786 -13.03716199 171.17090636 -18 166.5 C-19.875 163.5 -19.875 163.5 -20.48046875 160.79296875 C-21.74225375 154.84456758 -21.74225375 154.84456758 -25.45458984 150.21679688 C-28.62463737 148.23313695 -31.937184 146.65287671 -35.34375 145.12109375 C-38.875 143.5 -38.875 143.5 -41.12890625 141.765625 C-42.98284251 140.12984037 -42.98284251 140.12984037 -46.3125 140.8125 C-47.00085938 140.92464844 -47.68921875 141.03679687 -48.3984375 141.15234375 C-62.20993944 143.09118235 -62.20993944 143.09118235 -67.6875 139.875 C-73.25753893 134.96272948 -77.92906994 126.79394918 -79.51953125 119.57421875 C-79.74458138 114.0813285 -78.46744713 110.75421371 -74.875 106.5 C-74.12464478 105.83230591 -74.12464478 105.83230591 -73.35913086 105.15112305 C-69.5515898 101.50578006 -68.42292387 98.63912718 -68.04296875 93.375 C-68.01788855 91.08346133 -68.02525234 88.79137319 -68.0625 86.5 C-68.03091797 85.35015625 -67.99933594 84.2003125 -67.96679688 83.015625 C-67.98988948 77.28865862 -68.12891548 73.49913647 -72.3046875 69.33203125 C-73.48187004 68.37195581 -74.67048252 67.42554915 -75.875 66.5 C-79.00885756 62.75958936 -79.62467144 59.24177269 -79.48828125 54.4609375 C-78.70360604 50.6725056 -77.13702758 47.52500728 -75.25 44.1875 C-74.91959717 43.60105713 -74.58919434 43.01461426 -74.2487793 42.41040039 C-71.37735304 37.67602574 -67.86840095 33.99670048 -62.875 31.5 C-58.27278854 31.34910782 -54.37793264 31.59941347 -49.875 32.5 C-42.78912341 33.47736229 -39.28190968 31.32694168 -33.4921875 27.27734375 C-31.29536076 25.78546888 -29.36460962 24.81771922 -26.9375 23.8125 C-22.74659826 20.64794154 -22.24555591 17.34894661 -20.828125 12.41796875 C-19.20003734 7.43361842 -16.76061353 4.67145152 -12.265625 1.87890625 C-8.03882791 0.15994384 -4.51992242 -0.03706393 0 0 Z M-5.875 14.5 C-6.473125 15.799375 -7.07125 17.09875 -7.6875 18.4375 C-8.26177734 19.67113281 -8.26177734 19.67113281 -8.84765625 20.9296875 C-9.94749675 23.40811299 -9.94749675 23.40811299 -10.24609375 25.8203125 C-10.7164689 28.60376955 -11.22925511 30.1744008 -12.875 32.5 C-16.73156076 34.88316816 -20.66110983 36.73097178 -24.796875 38.56640625 C-28.33619349 40.1568287 -31.16860036 42.10355755 -34.1875 44.5625 C-37.7892943 47.22312192 -39.90065136 47.8931436 -44.375 47.5 C-46.21210747 47.18813725 -48.04563917 46.85448718 -49.875 46.5 C-51.76898069 46.2946286 -53.66489395 46.10611662 -55.5625 45.9375 C-57.00005197 45.79217982 -58.43757278 45.64654898 -59.875 45.5 C-60.74416887 46.90751221 -61.59485149 48.3264521 -62.4375 49.75 C-62.91316406 50.53890625 -63.38882813 51.3278125 -63.87890625 52.140625 C-65.01865835 54.38005539 -65.01865835 54.38005539 -64.80859375 56.49609375 C-63.05889465 60.25172403 -59.81036137 62.87920522 -56.90625 65.76953125 C-54.44667076 69.07577334 -54.08407094 71.52286096 -53.875 75.5 C-53.79507813 76.48637451 -53.71515625 77.47274902 -53.6328125 78.48901367 C-51.97741944 101.71291001 -51.97741944 101.71291001 -56.36328125 107.828125 C-58.30380807 109.99681878 -60.24184798 111.56310399 -62.56640625 113.37109375 C-63.32824219 114.07363281 -64.09007812 114.77617187 -64.875 115.5 C-64.83279731 118.93951905 -63.57664744 121.41019292 -61.8125 124.3125 C-61.173125 125.364375 -60.53375 126.41625 -59.875 127.5 C-58.0623655 127.35584802 -56.24989978 127.20957364 -54.4375 127.0625 C-53.33535156 126.98386719 -52.23320312 126.90523438 -51.09765625 126.82421875 C-47.99107273 126.59219424 -47.99107273 126.59219424 -45.49609375 125.89453125 C-43.03072199 125.29067408 -41.39299966 125.08174167 -38.875 125.5 C-35.72274858 127.4723833 -32.94548945 129.71113197 -30.08203125 132.08203125 C-26.02126824 135.32786636 -21.40106065 137.12612891 -16.58984375 139.015625 C-12.29002315 141.36660605 -11.28681544 144.32515529 -9.70703125 148.83203125 C-8.76302083 152.0546875 -7.81901042 155.27734375 -6.875 158.5 C-2.255 158.5 2.365 158.5 7.125 158.5 C7.42792969 157.39140625 7.73085938 156.2828125 8.04296875 155.140625 C8.46522126 153.67681631 8.88844999 152.21328898 9.3125 150.75 C9.60737305 149.65558594 9.60737305 149.65558594 9.90820312 148.5390625 C11.32284593 143.7510407 12.69477343 141.19925481 17.125 138.5 C19.37890625 137.55078125 19.37890625 137.55078125 21.6875 136.8125 C26.25254751 135.14384965 29.39569464 132.78805503 33.125 129.6875 C39.3319202 124.84404119 39.3319202 124.84404119 44.1875 125.375 C45.83737413 125.73180205 47.48316101 126.10788129 49.125 126.5 C51.1638932 126.71557724 53.20593532 126.90325614 55.25 127.0625 C56.18070312 127.14628906 57.11140625 127.23007812 58.0703125 127.31640625 C58.74835938 127.37699219 59.42640625 127.43757813 60.125 127.5 C60.99416887 126.09248779 61.84485149 124.6735479 62.6875 123.25 C63.16316406 122.46109375 63.63882813 121.6721875 64.12890625 120.859375 C65.28802419 118.60614427 65.28802419 118.60614427 64.98828125 116.421875 C63.93101108 114.06813326 62.63817796 112.75273903 60.75 111 C54.34465152 105.00350355 54.34465152 105.00350355 53.64160156 100.19116211 C53.52904956 96.69441565 53.43160715 93.20173956 53.40429688 89.70336914 C53.37536932 87.46606355 53.28244192 85.23729144 53.1875 83.00195312 C52.9845918 73.69996151 54.29803225 68.52395066 60.98730469 61.50610352 C61.69274414 60.84408936 62.39818359 60.1820752 63.125 59.5 C64.115 58.51 64.115 58.51 65.125 57.5 C64.85814868 52.83010192 62.49659913 49.40166308 60.125 45.5 C54.28070299 46.06972342 54.28070299 46.06972342 48.5 47.0625 C43.72996015 47.94119155 40.31013145 48.18424571 36.01953125 45.70703125 C35.00246094 44.91683594 33.98539062 44.12664062 32.9375 43.3125 C28.60424034 40.03230037 24.77280733 37.82050101 19.5625 36.0625 C14.56720704 34.15234198 14.56720704 34.15234198 12.62890625 31.29296875 C11.61402951 28.72221094 10.86315151 26.16205705 10.125 23.5 C9.40417353 21.7791537 8.65548803 20.06962126 7.875 18.375 C7.2975 17.09625 6.72 15.8175 6.125 14.5 C2.165 14.5 -1.795 14.5 -5.875 14.5 Z " fill="#203140" transform="translate(255.875,135.5)"/>
<path d="M0 0 C6.98394761 2.66833086 12.7475438 7.77050193 18.56640625 12.33984375 C21.85215596 14.90866876 25.21858177 17.34448482 28.625 19.75 C34.21594727 23.70555378 39.7434677 27.74027393 45.25 31.8125 C51.47320364 36.41296313 57.71852943 40.979412 64 45.5 C71.00219604 50.54001692 77.95613336 55.64213444 84.89453125 60.76953125 C90.23857929 64.71415591 95.60924039 68.6195036 101 72.5 C107.37750959 77.09349724 113.73146337 81.71762844 120.0625 86.375 C120.82369141 86.93380859 121.58488281 87.49261719 122.36914062 88.06835938 C127.64802631 91.95928213 132.84098297 95.95165227 138 100 C136.41996314 104.39309313 134.44802976 106.82418312 131 110 C130.51869629 109.64397705 130.03739258 109.2879541 129.54150391 108.92114258 C120.7257101 102.40362559 111.89832639 95.90453423 103 89.5 C95.99783154 84.45994389 89.04386727 79.35786603 82.10546875 74.23046875 C76.76142324 70.28584596 71.39089219 66.38030944 66 62.5 C59.80345559 58.03979028 53.64025315 53.53738588 47.5 49 C39.077983 42.77859402 30.60904058 36.62521789 22.10595703 30.51513672 C20.0354115 29.02547691 17.96860083 27.5307566 15.90234375 26.03515625 C14.64335559 25.1274288 13.38424782 24.21986721 12.125 23.3125 C11.55998779 22.90225586 10.99497559 22.49201172 10.4128418 22.06933594 C4.15838807 17.57817217 -0.24485969 15.78262332 -8 17 C-15.95410728 20.17089412 -22.89174378 26.5747307 -29.66796875 31.73046875 C-33.99894862 35.01675069 -38.39651696 38.20426632 -42.8125 41.375 C-49.07291803 45.87518185 -55.29995012 50.41699615 -61.5 55 C-68.37401494 60.07997066 -75.28412137 65.10612207 -82.22167969 70.09887695 C-87.75977249 74.09006046 -93.26055587 78.12972662 -98.75 82.1875 C-104.76426628 86.63258953 -110.80565533 91.03236957 -116.90380859 95.36157227 C-123.65893185 100.16368369 -130.3273391 105.08428622 -137 110 C-140.39417765 106.87378374 -142.6062718 104.43458973 -144 100 C-138.09954209 95.132802 -132.04329261 90.54232848 -125.79931641 86.12866211 C-120.73623345 82.54370952 -115.73742788 78.87683021 -110.75 75.1875 C-104.52686173 70.58694958 -98.28146939 66.02058715 -92 61.5 C-85.80341871 57.03984573 -79.64016025 52.53750831 -73.5 48 C-66.6229644 42.91794922 -59.70966917 37.88997203 -52.76953125 32.89453125 C-47.31915948 28.9660783 -41.90337639 24.99279217 -36.5 21 C-30.00045172 16.19955683 -23.48290083 11.42527403 -16.9375 6.6875 C-16.16921875 6.12998047 -15.4009375 5.57246094 -14.609375 4.99804688 C-13.90167969 4.48693359 -13.19398438 3.97582031 -12.46484375 3.44921875 C-11.842146 2.99893311 -11.21944824 2.54864746 -10.57788086 2.0847168 C-6.95790647 -0.40384056 -4.3865666 -0.41776825 0 0 Z " fill="#19CBB7" transform="translate(259,43)"/>
<path d="M0 0 C3.125 0.375 3.125 0.375 5.5 2 C7.125 4.375 7.125 4.375 7.8125 7.125 C6.75214109 12.13760576 3.62250398 14.76232691 0.125 18.375 C-1.20012727 19.81769495 -2.52503598 21.2606038 -3.84448242 22.70849609 C-5.26421131 24.26558628 -6.69013189 25.8168121 -8.1171875 27.3671875 C-11.28705118 30.81745378 -14.41521362 34.30453555 -17.54296875 37.79296875 C-19.26576259 39.70045071 -20.99643914 41.59834495 -22.73828125 43.48828125 C-23.228125 44.02001953 -23.71796875 44.55175781 -24.22265625 45.09960938 C-25.61184645 46.60549155 -27.00312913 48.1094426 -28.39453125 49.61328125 C-30.0123081 51.41449106 -31.57643569 53.26581087 -33.07421875 55.16796875 C-35.31338984 57.91228906 -36.18776467 58.28336862 -39.6875 58.75 C-46.1533453 57.98931232 -50.53872296 50.26947108 -54.4375 45.4375 C-55.28344727 44.40206055 -55.28344727 44.40206055 -56.14648438 43.34570312 C-64.91343352 32.52800564 -64.91343352 32.52800564 -64.75 27.625 C-63.875 24.375 -63.875 24.375 -61.875 22.375 C-57.15440177 21.19485044 -57.15440177 21.19485044 -53.875 22.375 C-51.02069445 25.15134273 -48.65139924 28.08297581 -46.26953125 31.26171875 C-43.96045929 34.26388898 -41.60138232 36.76484002 -38.875 39.375 C-34.72578213 35.33928657 -30.80072087 31.19263531 -27.0234375 26.80859375 C-24.1988023 23.60905242 -21.28759518 20.49437255 -18.375 17.375 C-14.22036025 12.92372689 -10.11202571 8.44849829 -6.14453125 3.828125 C-3.16018665 0.41219826 -3.16018665 0.41219826 0 0 Z " fill="#1F3142" transform="translate(282.875,192.625)"/>
</svg>
