<?xml version="1.0" encoding="UTF-8"?>
<svg version="1.1" xmlns="http://www.w3.org/2000/svg" width="512" height="512">
<path d="M0 0 C17.67598502 6.43771489 35.43979023 12.35529667 53.90649414 16.10369873 C62.56553746 18.02147343 69.55916903 23.11550921 74.40649414 30.54119873 C79.30788198 39.45836538 79.17018059 47.7333814 77.40649414 57.54119873 C89.76590573 50.88938314 101.90959076 43.93087311 113.96557617 36.74407959 C125.10816838 30.1044328 136.32798587 23.60443371 147.5847168 17.15985107 C150.11700862 15.70725592 152.64343457 14.24507771 155.16821289 12.77947998 C162.68979274 8.43877539 170.20928532 4.48112594 178.40649414 1.54119873 C179.27145508 1.22280029 180.13641602 0.90440186 181.02758789 0.57635498 C191.68407736 -2.85968992 203.77561685 -3.10354196 214.14086914 1.34979248 C221.32328485 5.12675246 225.48925793 10.84866256 228.52368164 18.27557373 C230.60611316 25.97872749 230.88454109 36.13935172 227.84399414 43.60369873 C222.73993174 52.36152008 216.01407734 57.53629341 207.40649414 62.66619873 C206.35486084 63.30799072 205.30322754 63.94978271 204.21972656 64.61102295 C200.95580836 66.59983223 197.68152183 68.57075253 194.40649414 70.54119873 C192.4224598 71.74795279 190.43935347 72.95623422 188.45727539 74.16619873 C184.63361958 76.49958428 180.80659627 78.82727044 176.97680664 81.15057373 C170.80201765 84.90207352 164.65937332 88.70440574 158.51977539 92.51312256 C148.28016477 98.86423723 138.01424993 105.17248566 127.75024414 111.48406982 C123.32860344 114.20433447 118.90918483 116.92819848 114.48974609 119.65203857 C111.24884841 121.64781419 108.00558713 123.63970199 104.76196289 125.63104248 C100.52551608 128.23264284 96.30048408 130.85154892 92.08227539 133.48260498 C90.06544578 134.73146033 88.04852276 135.98016483 86.03149414 137.22869873 C85.135354 137.79282471 84.23921387 138.35695068 83.31591797 138.93817139 C67.72697741 148.54454918 51.48758818 153.58353448 33.27114868 149.27258301 C32.49339081 149.07892151 31.71563293 148.88526001 30.91430664 148.68572998 C30.04123871 148.47313538 29.16817078 148.26054077 28.26864624 148.04150391 C9.61688891 143.42894261 -8.91179968 138.29893939 -27.46655273 133.31414795 C-31.91836346 132.11844132 -36.3712166 130.92668257 -40.82469559 129.73720551 C-43.31541153 129.07061519 -45.80484585 128.39938217 -48.29428101 127.72802734 C-49.82282829 127.3194679 -51.35144017 126.91115001 -52.88012695 126.50311279 C-53.56067642 126.31819778 -54.24122589 126.13328278 -54.94239807 125.94276428 C-62.33391901 123.6697877 -62.33391901 123.6697877 -69.73803711 124.31854248 C-70.2884668 124.70139404 -70.83889648 125.08424561 -71.40600586 125.47869873 C-74.59350586 127.54119873 -74.59350586 127.54119873 -76.59350586 127.54119873 C-76.08819336 128.49639404 -75.58288086 129.45158936 -75.06225586 130.43572998 C-70.74959587 138.88661268 -67.2659996 146.28917922 -70.33569336 155.85369873 C-74.14857151 164.42479671 -82.81331639 168.2718915 -90.59350586 172.79119873 C-92.18485352 173.76572998 -92.18485352 173.76572998 -93.80834961 174.75994873 C-101.53996887 179.22085875 -107.69211142 180.6563676 -116.59350586 179.54119873 C-126.54184759 176.46625674 -131.1299022 165.42884141 -135.71850586 156.91619873 C-136.71434132 155.09207343 -137.71328249 153.26967142 -138.71237183 151.44732666 C-139.38267128 150.22428277 -140.05204549 149.00073132 -140.7204895 147.77667236 C-143.65355356 142.40950728 -146.66922745 137.09295403 -149.71850586 131.79119873 C-155.50433683 121.70984126 -161.22648696 111.59332779 -166.93920898 101.47039795 C-168.60833492 98.51494148 -170.28018817 95.56104407 -171.95288086 92.60760498 C-177.1115029 83.4970253 -182.25817309 74.38044006 -187.34350586 65.22869873 C-187.76204834 64.4754834 -188.18059082 63.72226807 -188.61181641 62.94622803 C-192.77027899 55.44515361 -194.34402854 48.78714654 -191.93334961 40.18572998 C-188.65473625 33.94015852 -182.40584155 30.89136455 -176.4387207 27.57196045 C-174.52441323 26.50260266 -172.6303759 25.40282713 -170.73803711 24.29510498 C-162.47978713 19.48615604 -156.42370846 16.57429356 -146.59350586 17.54119873 C-138.14692091 20.11433057 -134.6418042 26.16751247 -130.59350586 33.54119873 C-125.73088646 32.13163575 -121.63835355 29.97066672 -117.34350586 27.35369873 C-115.8403361 26.45402956 -114.33637539 25.55568109 -112.83178711 24.65838623 C-112.00501465 24.16435303 -111.17824219 23.67031982 -110.32641602 23.16131592 C-101.79439954 18.10338655 -93.17386014 13.19438211 -84.57202148 8.25653076 C-81.98457681 6.76641713 -79.40470278 5.26441239 -76.82788086 3.75604248 C-49.3514035 -12.21544266 -28.88435845 -10.54516846 0 0 Z " fill="#010101" transform="translate(199.593505859375,325.45880126953125)"/>
<path d="M0 0 C17.08859596 14.32894692 28.64771853 34.12502498 31.0546875 56.54296875 C32.95820378 79.06347707 27.68872229 101.20782487 13.25 118.8828125 C11.0651945 121.35743914 8.81347232 123.73998298 6.515625 126.109375 C5.97679687 126.72167969 5.43796875 127.33398438 4.8828125 127.96484375 C-9.08549959 143.30191004 -30.61258334 150.13009874 -50.765625 151.234375 C-75.15428775 151.86784676 -96.95745034 142.02379957 -114.484375 125.546875 C-131.35777534 108.27984946 -138.17409097 86.3945017 -137.95239258 62.68969727 C-137.31873724 39.84317914 -127.57457687 19.12859522 -111.0078125 3.296875 C-79.23745383 -24.2439932 -33.39057182 -25.79271716 0 0 Z " fill="#010101" transform="translate(144.484375,128.890625)"/>
<path d="M0 0 C16.81327568 13.67969602 30.49482213 32.9666127 33 55 C34.91236794 81.06455056 30.0608465 103.65336084 13 124 C-1.16673932 140.34623768 -22.23057771 151.25769737 -43.9140625 152.91015625 C-44.60242188 152.93980469 -45.29078125 152.96945312 -46 153 C-46.75023437 153.03996094 -47.50046875 153.07992187 -48.2734375 153.12109375 C-69.62901516 153.70854492 -91.10609396 146.2821995 -107 132 C-107.91910156 131.175 -108.83820313 130.35 -109.78515625 129.5 C-125.80616853 114.33843679 -134.94329048 93.3849576 -135.97607422 71.41210938 C-136.5878146 47.57047537 -127.97406379 26.52673754 -112.06640625 8.8515625 C-83.03193183 -21.64339856 -33.61910786 -24.90827459 0 0 Z " fill="#FCC137" transform="translate(472,127)"/>
<path d="M0 0 C5.40909458 2.01542541 10.84798871 3.94724259 16.28485107 5.88623047 C17.33915314 6.26433868 18.3934552 6.6424469 19.47970581 7.03201294 C27.56090183 9.91173902 35.65468893 12.4662778 43.95672607 14.63232422 C44.947854 14.89150635 45.93898193 15.15068848 46.96014404 15.41772461 C50.7408594 16.36646249 54.41133612 17.14335927 58.27703857 17.67919922 C63.10059384 18.39471381 66.07554213 20.66677629 69.20672607 24.31982422 C70.80455921 28.31440705 70.9030355 31.88610549 70.33172607 36.13232422 C68.70695142 39.86930591 66.77551301 41.97995739 63.33172607 44.13232422 C56.97119792 46.25250027 50.91190796 45.06947421 44.60516357 43.30419922 C43.89502106 43.11392151 43.18487854 42.9236438 42.45321655 42.7276001 C40.20174333 42.12182227 37.95433398 41.50227041 35.70672607 40.88232422 C34.22389447 40.48169043 32.74082268 40.0819445 31.25750732 39.68310547 C25.59092404 38.15257835 19.92808044 36.61526928 14.30145264 34.94287109 C12.44858643 34.39469727 12.44858643 34.39469727 10.55828857 33.83544922 C9.47370361 33.50706055 8.38911865 33.17867188 7.27166748 32.84033203 C3.16183708 31.85058712 0.34244198 31.79541892 -3.66827393 33.13232422 C-3.94575634 34.5438652 -4.18920909 35.96212221 -4.41827393 37.38232422 C-4.62710205 38.56568359 -4.62710205 38.56568359 -4.84014893 39.77294922 C-4.86108386 42.2416771 -4.86108386 42.2416771 -3.18389893 44.27685547 C0.09296588 46.69379767 3.44288796 47.60421838 7.33172607 48.56982422 C8.11700684 48.77663818 8.9022876 48.98345215 9.71136475 49.1965332 C12.24743749 49.85899812 14.78823603 50.49896693 17.33172607 51.13232422 C18.18589111 51.3453418 19.04005615 51.55835938 19.92010498 51.77783203 C23.3466405 52.6301011 26.77326259 53.48175768 30.20306396 54.32080078 C34.95415366 55.49381755 39.61269123 56.80504782 44.26922607 58.31982422 C63.12127563 64.25918167 81.54167079 63.71042688 99.33172607 55.13232422 C104.74789597 52.27209967 110.04121289 49.21738422 115.33172607 46.13232422 C116.21408936 45.61992187 117.09645264 45.10751953 118.0055542 44.57958984 C125.12330877 40.44591107 132.22832371 36.29060187 139.33172607 32.13232422 C147.32555347 27.45501745 155.32413585 22.78603397 163.33172607 18.13232422 C164.79062256 17.28347656 164.79062256 17.28347656 166.2789917 16.41748047 C169.10604975 14.77547358 171.9369485 13.14030807 174.76922607 11.50732422 C176.01965698 10.78005127 176.01965698 10.78005127 177.29534912 10.03808594 C187.4667394 4.1978657 199.19196496 -1.95184716 211.33172607 0.13232422 C215.67106335 1.89683658 218.57831308 4.09638135 221.33172607 7.88232422 C223.07451768 13.54639695 223.2018607 17.88536072 221.05047607 23.44091797 C217.72039553 28.92095557 211.78678466 31.62247487 206.39422607 34.75732422 C205.21347876 35.4606261 204.0338033 36.16573036 202.85516357 36.87255859 C200.47405166 38.29861784 198.08863142 39.71698091 195.69940186 41.12939453 C191.03779359 43.9018923 186.43339573 46.76186414 181.83172607 49.63232422 C172.8962926 55.17428151 163.94063599 60.68320458 154.98406982 66.19091797 C148.25979599 70.32710057 141.54210939 74.47364904 134.83172607 78.63232422 C123.79699416 85.4668896 112.75896749 92.29578058 101.68963623 99.07421875 C99.4193457 100.46570844 97.15060205 101.85942082 94.88397217 103.25683594 C91.51905008 105.33045706 88.14454307 107.38816324 84.76922607 109.44482422 C83.75312256 110.07308105 82.73701904 110.70133789 81.69012451 111.34863281 C67.34265582 120.04094732 54.53097723 121.07673233 38.33319092 117.18286133 C34.21930973 116.12949444 30.12170739 115.02574924 26.03143311 113.88427734 C23.76011515 113.25164402 21.48592645 112.64242068 19.20281982 112.05419922 C13.05034826 110.46036465 6.93960305 108.7364836 0.83441162 106.97216797 C-7.78097476 104.4827052 -16.4069546 102.14784244 -25.12335205 100.03808594 C-29.54132245 98.95629437 -33.91450165 97.78768034 -38.27374268 96.48779297 C-39.67269775 96.07207031 -39.67269775 96.07207031 -41.09991455 95.64794922 C-42.87926363 95.11326176 -44.65560105 94.56839792 -46.42803955 94.01123047 C-53.23565915 91.96625383 -59.38997254 90.60549628 -66.03155518 93.69873047 C-67.00479736 94.35744141 -67.97803955 95.01615234 -68.98077393 95.69482422 C-74.13948564 99.1541956 -74.13948564 99.1541956 -76.6338501 99.05102539 C-79.64288471 97.69221137 -80.3738138 95.75225305 -81.91827393 92.86669922 C-82.52083008 91.7589917 -83.12338623 90.65128418 -83.74420166 89.51000977 C-84.38561721 88.30081208 -85.02697329 87.09158285 -85.66827393 85.88232422 C-86.33479183 84.64947964 -87.00285636 83.41747003 -87.67242432 82.1862793 C-88.6908751 80.31315172 -89.70837001 78.43957783 -90.72102356 76.56330872 C-93.76145571 70.93133356 -96.91295852 65.3667964 -100.10577393 59.81982422 C-100.83232178 58.55344116 -100.83232178 58.55344116 -101.57354736 57.26147461 C-102.49950243 55.64774459 -103.42606937 54.03436546 -104.35333252 52.42138672 C-106.38127414 48.89112666 -108.39968651 45.35543836 -110.41827393 41.81982422 C-111.05249268 40.70994141 -111.68671143 39.60005859 -112.34014893 38.45654297 C-112.77843018 37.68955078 -113.21671143 36.92255859 -113.66827393 36.13232422 C-111.174426 33.33668646 -108.41612312 31.69979018 -105.16436768 29.86669922 C-104.04368896 29.23111084 -102.92301025 28.59552246 -101.76837158 27.94067383 C-100.54755617 27.25446749 -99.326689 26.56835322 -98.10577393 25.88232422 C-96.20698387 24.80889198 -94.30912763 23.73382261 -92.41137695 22.65855408 C-91.10915156 21.92076071 -89.80661699 21.18351282 -88.50378418 20.4467926 C-84.16064447 17.98831177 -79.83582489 15.50031352 -75.52374268 12.98779297 C-47.76854329 -3.17741048 -31.32308328 -11.68137587 0 0 Z " fill="#F4DACB" transform="translate(190.66827392578125,339.86767578125)"/>
<path d="M0 0 C1.91329102 -0.04253906 1.91329102 -0.04253906 3.86523438 -0.0859375 C14.29597999 -0.10781636 14.29597999 -0.10781636 17.37890625 2.78125 C18.88370743 5.21127696 19.61629204 6.73351063 20.0625 9.5 C21.10696089 12.6880347 21.96154331 13.43822677 24.890625 15.23046875 C31.70035267 18.21153375 31.70035267 18.21153375 38.8125 17.3125 C39.885 16.714375 40.9575 16.11625 42.0625 15.5 C45.23173211 14.71680807 47.88706922 14.72858351 51.0625 15.5 C54.70926933 17.95107686 57.5770867 20.98213489 60.5625 24.1875 C61.37203125 25.00412109 62.1815625 25.82074219 63.015625 26.66210938 C69.62883621 33.51388441 69.62883621 33.51388441 70.0625 38.5 C69.109375 41.19140625 69.109375 41.19140625 67.8125 44.0625 C66.05180826 49.04291824 65.91255658 51.99955595 67.6875 57 C69.84228917 61.39554067 71.61956913 63.29578556 76.1875 65.0625 C77.45980469 65.40474609 77.45980469 65.40474609 78.7578125 65.75390625 C81.35070902 66.59330157 82.42561603 67.33951651 84.0625 69.5 C85.60490666 74.35854783 85.2467266 79.39318855 85.25 84.4375 C85.26224609 85.42685547 85.27449219 86.41621094 85.28710938 87.43554688 C85.28904297 88.39396484 85.29097656 89.35238281 85.29296875 90.33984375 C85.29707764 91.20988037 85.30118652 92.07991699 85.30541992 92.97631836 C84.95460421 96.62092341 84.04940344 99.51309656 81.4375 102.125 C79.0625 103.5 79.0625 103.5 77.19921875 103.890625 C73.28251977 104.80525904 71.5469534 105.76209086 69.29296875 109.1953125 C67.22409436 113.81343317 65.64159826 117.52998063 66.72265625 122.58984375 C67.81488972 125.42593997 67.81488972 125.42593997 69.20703125 127.96484375 C70.0625 130.5 70.0625 130.5 69.71484375 133.265625 C67.24495883 138.10029335 63.65441791 141.52546663 59.8125 145.3125 C59.06097656 146.08787109 58.30945313 146.86324219 57.53515625 147.66210938 C52.02748521 153.15536242 52.02748521 153.15536242 47.8359375 154.65234375 C44.67093814 154.47849167 42.75340364 153.67948013 39.9375 152.25 C35.18728414 150.39150241 32.44395813 150.41865341 27.625 152.125 C23.19746674 154.27584303 21.27166579 156.02678346 19.5 160.625 C19.27183594 161.47320312 19.04367187 162.32140625 18.80859375 163.1953125 C17.96919843 165.78820902 17.22298349 166.86311603 15.0625 168.5 C10.20395217 170.04240666 5.16931145 169.6842266 0.125 169.6875 C-0.86435547 169.69974609 -1.85371094 169.71199219 -2.87304688 169.72460938 C-4.31067383 169.72750977 -4.31067383 169.72750977 -5.77734375 169.73046875 C-7.08239868 169.73663208 -7.08239868 169.73663208 -8.41381836 169.74291992 C-12.05842341 169.39210421 -14.95059656 168.48690344 -17.5625 165.875 C-18.9375 163.5 -18.9375 163.5 -19.328125 161.63671875 C-20.24831748 157.69621709 -21.19768223 155.97945272 -24.66796875 153.73046875 C-31.02165624 150.89805199 -31.02165624 150.89805199 -37.8046875 151.125 C-40.36603312 152.18950109 -40.36603312 152.18950109 -42.62109375 153.546875 C-45.80304203 154.85614208 -47.62603896 154.34565495 -50.9375 153.5 C-53.25512695 151.81347656 -53.25512695 151.81347656 -55.42578125 149.640625 C-56.21404297 148.85429687 -57.00230469 148.06796875 -57.81445312 147.2578125 C-59.02004883 146.01644531 -59.02004883 146.01644531 -60.25 144.75 C-61.48459961 143.53183594 -61.48459961 143.53183594 -62.74414062 142.2890625 C-69.52299027 135.42638537 -69.52299027 135.42638537 -69.9375 130.5 C-68.984375 127.80859375 -68.984375 127.80859375 -67.6875 124.9375 C-65.92680826 119.95708176 -65.78755658 117.00044405 -67.5625 112 C-69.71728917 107.60445933 -71.49456913 105.70421444 -76.0625 103.9375 C-76.91070312 103.70933594 -77.75890625 103.48117188 -78.6328125 103.24609375 C-81.22570902 102.40669843 -82.30061603 101.66048349 -83.9375 99.5 C-85.47990666 94.64145217 -85.1217266 89.60681145 -85.125 84.5625 C-85.14336914 83.0784668 -85.14336914 83.0784668 -85.16210938 81.56445312 C-85.16404297 80.60603516 -85.16597656 79.64761719 -85.16796875 78.66015625 C-85.17207764 77.79011963 -85.17618652 76.92008301 -85.18041992 76.02368164 C-84.90594321 73.17215826 -84.20089444 71.06553995 -82.9375 68.5 C-80.11336231 66.40206914 -77.86744618 65.48248654 -74.4375 64.625 C-70.56833939 63.00217325 -69.42615876 60.22186433 -67.75 56.5 C-65.98070894 51.41328819 -65.72078971 48.56011588 -67.75 43.5625 C-68.18957031 42.72847656 -68.62914062 41.89445312 -69.08203125 41.03515625 C-69.9375 38.5 -69.9375 38.5 -69.578125 35.73828125 C-67.136484 30.91894699 -63.65492917 27.44049736 -59.875 23.625 C-59.14861328 22.84125 -58.42222656 22.0575 -57.67382812 21.25 C-54.03781013 17.55932921 -51.46784612 14.99649713 -46.1171875 14.87890625 C-43.06089696 15.10384757 -40.833565 15.90449544 -38.125 17.3125 C-34.20582129 18.95271966 -31.64376095 18.19359473 -27.6875 16.8125 C-23.13809174 14.70354064 -21.18313742 13.09237733 -19.4375 8.375 C-19.2209375 7.52679687 -19.004375 6.67859375 -18.78125 5.8046875 C-15.95690505 -1.90995843 -6.70073717 -0.01350274 0 0 Z " fill="#030302" transform="translate(255.9375,6.5)"/>
<path d="M0 0 C1.91329102 -0.04253906 1.91329102 -0.04253906 3.86523438 -0.0859375 C14.29597999 -0.10781636 14.29597999 -0.10781636 17.37890625 2.78125 C18.88370743 5.21127696 19.61629204 6.73351063 20.0625 9.5 C21.10696089 12.6880347 21.96154331 13.43822677 24.890625 15.23046875 C31.70035267 18.21153375 31.70035267 18.21153375 38.8125 17.3125 C39.885 16.714375 40.9575 16.11625 42.0625 15.5 C45.23173211 14.71680807 47.88706922 14.72858351 51.0625 15.5 C54.70926933 17.95107686 57.5770867 20.98213489 60.5625 24.1875 C61.37203125 25.00412109 62.1815625 25.82074219 63.015625 26.66210938 C69.62883621 33.51388441 69.62883621 33.51388441 70.0625 38.5 C69.109375 41.19140625 69.109375 41.19140625 67.8125 44.0625 C66.05180826 49.04291824 65.91255658 51.99955595 67.6875 57 C69.84228917 61.39554067 71.61956913 63.29578556 76.1875 65.0625 C77.45980469 65.40474609 77.45980469 65.40474609 78.7578125 65.75390625 C81.35070902 66.59330157 82.42561603 67.33951651 84.0625 69.5 C85.60490666 74.35854783 85.2467266 79.39318855 85.25 84.4375 C85.26224609 85.42685547 85.27449219 86.41621094 85.28710938 87.43554688 C85.28904297 88.39396484 85.29097656 89.35238281 85.29296875 90.33984375 C85.29707764 91.20988037 85.30118652 92.07991699 85.30541992 92.97631836 C84.95460421 96.62092341 84.04940344 99.51309656 81.4375 102.125 C79.0625 103.5 79.0625 103.5 77.19921875 103.890625 C73.28251977 104.80525904 71.5469534 105.76209086 69.29296875 109.1953125 C67.22409436 113.81343317 65.64159826 117.52998063 66.72265625 122.58984375 C67.81488972 125.42593997 67.81488972 125.42593997 69.20703125 127.96484375 C70.0625 130.5 70.0625 130.5 69.71484375 133.265625 C67.24495883 138.10029335 63.65441791 141.52546663 59.8125 145.3125 C59.06097656 146.08787109 58.30945313 146.86324219 57.53515625 147.66210938 C52.02748521 153.15536242 52.02748521 153.15536242 47.8359375 154.65234375 C44.67093814 154.47849167 42.75340364 153.67948013 39.9375 152.25 C35.18728414 150.39150241 32.44395813 150.41865341 27.625 152.125 C23.19746674 154.27584303 21.27166579 156.02678346 19.5 160.625 C19.27183594 161.47320312 19.04367187 162.32140625 18.80859375 163.1953125 C17.96919843 165.78820902 17.22298349 166.86311603 15.0625 168.5 C10.20395217 170.04240666 5.16931145 169.6842266 0.125 169.6875 C-0.86435547 169.69974609 -1.85371094 169.71199219 -2.87304688 169.72460938 C-4.31067383 169.72750977 -4.31067383 169.72750977 -5.77734375 169.73046875 C-7.08239868 169.73663208 -7.08239868 169.73663208 -8.41381836 169.74291992 C-12.05842341 169.39210421 -14.95059656 168.48690344 -17.5625 165.875 C-18.9375 163.5 -18.9375 163.5 -19.328125 161.63671875 C-20.24831748 157.69621709 -21.19768223 155.97945272 -24.66796875 153.73046875 C-31.02165624 150.89805199 -31.02165624 150.89805199 -37.8046875 151.125 C-40.36603312 152.18950109 -40.36603312 152.18950109 -42.62109375 153.546875 C-45.80304203 154.85614208 -47.62603896 154.34565495 -50.9375 153.5 C-53.25512695 151.81347656 -53.25512695 151.81347656 -55.42578125 149.640625 C-56.21404297 148.85429687 -57.00230469 148.06796875 -57.81445312 147.2578125 C-59.02004883 146.01644531 -59.02004883 146.01644531 -60.25 144.75 C-61.48459961 143.53183594 -61.48459961 143.53183594 -62.74414062 142.2890625 C-69.52299027 135.42638537 -69.52299027 135.42638537 -69.9375 130.5 C-68.984375 127.80859375 -68.984375 127.80859375 -67.6875 124.9375 C-65.92680826 119.95708176 -65.78755658 117.00044405 -67.5625 112 C-69.71728917 107.60445933 -71.49456913 105.70421444 -76.0625 103.9375 C-76.91070312 103.70933594 -77.75890625 103.48117188 -78.6328125 103.24609375 C-81.22570902 102.40669843 -82.30061603 101.66048349 -83.9375 99.5 C-85.47990666 94.64145217 -85.1217266 89.60681145 -85.125 84.5625 C-85.14336914 83.0784668 -85.14336914 83.0784668 -85.16210938 81.56445312 C-85.16404297 80.60603516 -85.16597656 79.64761719 -85.16796875 78.66015625 C-85.17207764 77.79011963 -85.17618652 76.92008301 -85.18041992 76.02368164 C-84.90594321 73.17215826 -84.20089444 71.06553995 -82.9375 68.5 C-80.11336231 66.40206914 -77.86744618 65.48248654 -74.4375 64.625 C-70.56833939 63.00217325 -69.42615876 60.22186433 -67.75 56.5 C-65.98070894 51.41328819 -65.72078971 48.56011588 -67.75 43.5625 C-68.18957031 42.72847656 -68.62914062 41.89445312 -69.08203125 41.03515625 C-69.9375 38.5 -69.9375 38.5 -69.578125 35.73828125 C-67.136484 30.91894699 -63.65492917 27.44049736 -59.875 23.625 C-59.14861328 22.84125 -58.42222656 22.0575 -57.67382812 21.25 C-54.03781013 17.55932921 -51.46784612 14.99649713 -46.1171875 14.87890625 C-43.06089696 15.10384757 -40.833565 15.90449544 -38.125 17.3125 C-34.20582129 18.95271966 -31.64376095 18.19359473 -27.6875 16.8125 C-23.13809174 14.70354064 -21.18313742 13.09237733 -19.4375 8.375 C-19.2209375 7.52679687 -19.004375 6.67859375 -18.78125 5.8046875 C-15.95690505 -1.90995843 -6.70073717 -0.01350274 0 0 Z M-4.9375 16.5 C-5.18242187 17.17546875 -5.42734375 17.8509375 -5.6796875 18.546875 C-8.68459816 25.71721354 -8.68459816 25.71721354 -12.14453125 27.87890625 C-13.82939658 28.51305241 -15.5346485 29.09499114 -17.25390625 29.62890625 C-20.08945353 30.54932407 -22.46101702 31.80295015 -25.0625 33.25 C-29.72196347 35.62727728 -32.74319102 36.11627395 -37.9375 35.5 C-39.6119239 34.8530635 -41.28052621 34.19040574 -42.9375 33.5 C-45.76962565 33.67164398 -46.94009463 34.50189338 -49.25 36.1875 C-51.27364334 38.44521332 -51.27364334 38.44521332 -50.75 41.625 C-50.05883051 44.41326574 -50.05883051 44.41326574 -48.9375 46.5 C-48.0439617 53.39300972 -50.15328909 57.57576963 -53.44140625 63.59765625 C-54.73116911 66.09972884 -55.48845607 68.23827199 -56.1875 70.9375 C-58.73624103 76.12600852 -62.71254176 77.46099191 -67.9375 79.5 C-67.9375 82.8 -67.9375 86.1 -67.9375 89.5 C-67.23882812 89.82613281 -66.54015625 90.15226562 -65.8203125 90.48828125 C-64.91023438 90.92527344 -64.00015625 91.36226563 -63.0625 91.8125 C-62.15757812 92.24175781 -61.25265625 92.67101562 -60.3203125 93.11328125 C-56.71291907 95.21266595 -55.71125771 97.86956997 -54.5625 101.6875 C-53.55814295 104.87053928 -52.37782825 107.6519661 -50.75 110.5625 C-48.55924228 114.77614129 -48.47315127 117.77912129 -48.9375 122.5 C-49.5844365 124.1744239 -50.24709426 125.84302621 -50.9375 127.5 C-50.76585602 130.33212565 -49.93560662 131.50259463 -48.25 133.8125 C-45.99228668 135.83614334 -45.99228668 135.83614334 -42.8125 135.3125 C-40.02423426 134.62133051 -40.02423426 134.62133051 -37.9375 133.5 C-32.57154029 133.0962506 -29.20858058 133.95471883 -24.4375 136.375 C-19.32265242 138.91491556 -19.32265242 138.91491556 -13.875 140.5 C-9.8583053 141.86738543 -8.88923132 143.8133964 -6.9375 147.5 C-6.22176473 149.14619113 -5.5349304 150.80728055 -4.9375 152.5 C-1.6375 152.5 1.6625 152.5 5.0625 152.5 C5.48208984 151.46939453 5.48208984 151.46939453 5.91015625 150.41796875 C9.20802949 143.00570704 9.20802949 143.00570704 13.125 140.6875 C14.43507963 140.28372823 15.74806914 139.88937359 17.0625 139.5 C19.19492229 138.64324732 21.31953977 137.76690496 23.4375 136.875 C24.47648437 136.44960937 25.51546875 136.02421875 26.5859375 135.5859375 C28.95967076 134.7240389 28.95967076 134.7240389 30.0625 133.5 C34.94704716 133.25977637 37.73461897 133.26144085 42.0625 135.5 C45.26541256 135.33985437 46.81657839 134.67473378 49.4375 132.8125 C51.39070213 130.54330563 51.39070213 130.54330563 50.875 127.375 C50.18383051 124.58673426 50.18383051 124.58673426 49.0625 122.5 C48.16411089 115.56956973 50.33283975 111.40687131 53.609375 105.34375 C54.82061681 102.9733628 55.59965467 101.0066018 56.1875 98.4375 C57.0625 95.5 57.0625 95.5 58.75 93.75 C61.78342743 92.1103095 64.86425807 90.7915977 68.0625 89.5 C68.0625 86.2 68.0625 82.9 68.0625 79.5 C67.38703125 79.25507812 66.7115625 79.01015625 66.015625 78.7578125 C58.84528646 75.75290184 58.84528646 75.75290184 56.68359375 72.29296875 C56.04944759 70.60810342 55.46750886 68.9028515 54.93359375 67.18359375 C54.01317593 64.34804647 52.75954985 61.97648298 51.3125 59.375 C48.93522272 54.71553653 48.44622605 51.69430898 49.0625 46.5 C49.7094365 44.8255761 50.37209426 43.15697379 51.0625 41.5 C50.89085602 38.66787435 50.06060662 37.49740537 48.375 35.1875 C46.11728668 33.16385666 46.11728668 33.16385666 42.9375 33.6875 C40.14923426 34.37866949 40.14923426 34.37866949 38.0625 35.5 C31.72516586 36.17900009 28.13025198 34.8385335 22.59375 31.796875 C20.12392136 30.53146897 17.78293054 29.71416802 15.125 28.9375 C12.49908682 28.10219194 11.22614177 27.65273232 9.1875 25.75 C7.66917353 22.71334705 6.33424796 19.64909018 5.0625 16.5 C1.7625 16.5 -1.5375 16.5 -4.9375 16.5 Z " fill="#010100" transform="translate(255.9375,6.5)"/>
<path d="M0 0 C16.81327568 13.67969602 30.49482213 32.9666127 33 55 C34.91236794 81.06455056 30.0608465 103.65336084 13 124 C-1.16673932 140.34623768 -22.23057771 151.25769737 -43.9140625 152.91015625 C-44.60242188 152.93980469 -45.29078125 152.96945312 -46 153 C-46.75023437 153.03996094 -47.50046875 153.07992187 -48.2734375 153.12109375 C-69.62901516 153.70854492 -91.10609396 146.2821995 -107 132 C-107.91910156 131.175 -108.83820313 130.35 -109.78515625 129.5 C-125.80616853 114.33843679 -134.94329048 93.3849576 -135.97607422 71.41210938 C-136.5878146 47.57047537 -127.97406379 26.52673754 -112.06640625 8.8515625 C-83.03193183 -21.64339856 -33.61910786 -24.90827459 0 0 Z M-101 22 C-101.66644531 22.63421875 -102.33289063 23.2684375 -103.01953125 23.921875 C-114.02283215 35.14871926 -119.19176694 51.76306913 -119.3125 67.125 C-119.05130699 86.03135542 -112.24919998 102.888436 -99.35546875 116.8046875 C-84.84520408 130.32835042 -67.09133578 136.75267066 -47.26953125 136.21875 C-29.86210574 135.05409549 -13.12315111 127.72059593 -1 115 C7.17125184 105.2162051 12.88833996 94.35709598 16 82 C16.17128418 81.38366699 16.34256836 80.76733398 16.51904297 80.13232422 C20.25501884 63.5688657 15.43634955 46.23633987 7 32 C4.86170649 28.80283999 2.5398485 25.88619148 0 23 C-0.64453125 22.24976563 -1.2890625 21.49953125 -1.953125 20.7265625 C-12.70065857 9.06349829 -29.79082382 0.79824196 -45.64453125 -0.23828125 C-67.59307197 -0.82805406 -85.57078435 6.22483781 -101 22 Z " fill="#010100" transform="translate(472,127)"/>
<path d="M0 0 C13.1329641 11.57659418 22.5500685 27.61295612 23.6875 45.3125 C24.26178715 60.87046103 22.53644264 76.54535213 12.6875 89.3125 C10.39699985 86.37051028 8.47346697 83.32379254 6.5625 80.125 C1.11612413 71.56151593 -5.22645561 65.4449241 -14.1484375 60.6015625 C-16.22584601 59.364117 -17.69599336 58.09587184 -19.3125 56.3125 C-18.57 55.549375 -17.8275 54.78625 -17.0625 54 C-11.40837018 47.12161415 -9.64634677 38.90383082 -9.99609375 30.16015625 C-11.04723175 20.69991421 -15.63149331 12.55555315 -22.5 6 C-31.25750771 -0.84955396 -41.5214089 -1.86122578 -52.3125 -0.6875 C-55.68188229 0.18804751 -58.37748919 1.45789671 -61.3125 3.3125 C-62.00859375 3.73660156 -62.7046875 4.16070312 -63.421875 4.59765625 C-70.79016242 9.56986524 -76.47871343 17.53437412 -78.3125 26.3125 C-79.74931781 38.44562817 -76.12325645 47.43108199 -69.3125 57.3125 C-70.2303125 57.869375 -71.148125 58.42625 -72.09375 59 C-83.43402825 65.99528481 -90.88285277 72.93728902 -97.6484375 84.5546875 C-99.3125 87.3125 -99.3125 87.3125 -101.3125 89.3125 C-107.54956641 80.58060703 -112.01294854 69.15251848 -112.3125 58.3125 C-112.374375 57.14332031 -112.43625 55.97414063 -112.5 54.76953125 C-113.16277771 37.48876336 -107.71427419 20.70256803 -95.875 7.875 C-94.05159979 5.98549465 -92.19039368 4.1492118 -90.3125 2.3125 C-89.67828125 1.64605469 -89.0440625 0.97960937 -88.390625 0.29296875 C-64.36459403 -23.2546678 -24.83900407 -19.58822726 0 0 Z " fill="#817481" transform="translate(135.3125,142.6875)"/>
<path d="M0 0 C3.3 0 6.6 0 10 0 C10.29132813 0.68707031 10.58265625 1.37414062 10.8828125 2.08203125 C13.3479972 7.68534913 13.3479972 7.68534913 17.625 11.875 C18.73875 12.24625 19.8525 12.6175 21 13 C22.89736257 13.6832683 24.7930771 14.371123 26.6875 15.0625 C27.61949219 15.38347656 28.55148437 15.70445313 29.51171875 16.03515625 C32 17 32 17 35 19 C40.14894239 19.33218983 43.24174807 18.98260497 48 17 C50.83212565 17.17164398 52.00259463 18.00189338 54.3125 19.6875 C56 22 56 22 55.8125 25.125 C55 28 55 28 54 30 C53.1064617 36.89300972 55.21578909 41.07576963 58.50390625 47.09765625 C59.79366911 49.59972884 60.55095607 51.73827199 61.25 54.4375 C63.79874103 59.62600852 67.77504176 60.96099191 73 63 C73 66.3 73 69.6 73 73 C72.30132812 73.32613281 71.60265625 73.65226562 70.8828125 73.98828125 C69.97273437 74.42527344 69.06265625 74.86226563 68.125 75.3125 C67.22007812 75.74175781 66.31515625 76.17101562 65.3828125 76.61328125 C61.77541907 78.71266595 60.77375771 81.36956997 59.625 85.1875 C58.62064295 88.37053928 57.44032825 91.1519661 55.8125 94.0625 C53.62487684 98.26173066 53.52977008 101.29770076 54 106 C54.65129797 107.34090759 55.31513275 108.67592331 56 110 C55.83985437 113.20291256 55.17473378 114.75407839 53.3125 117.375 C51 119 51 119 47.875 118.8125 C45 118 45 118 43 117 C36.66125625 116.32084888 33.06119848 117.65836432 27.52734375 120.7109375 C25.06722321 121.96571305 22.7815046 122.7133953 20.125 123.4375 C16.69540097 124.50811557 16.02868124 124.96617085 13.5625 127.875 C12.22325909 130.55348183 10.99642501 133.17679581 10 136 C6.7 136 3.4 136 0 136 C-0.48919922 134.95199219 -0.48919922 134.95199219 -0.98828125 133.8828125 C-1.42527344 132.97273437 -1.86226562 132.06265625 -2.3125 131.125 C-2.74175781 130.22007812 -3.17101562 129.31515625 -3.61328125 128.3828125 C-5.83269621 124.56916989 -8.63509385 123.70648987 -12.6875 122.625 C-16.10967214 121.65505296 -19.07643815 120.53209083 -22.1875 118.8125 C-25.91537254 116.8508574 -28.75334797 116.51924694 -33 117 C-34.66933058 117.6599679 -36.3364521 118.32558869 -38 119 C-40.83212565 118.82835602 -42.00259463 117.99810662 -44.3125 116.3125 C-46 114 -46 114 -45.8125 110.875 C-45 108 -45 108 -44 106 C-43.10161089 99.06956973 -45.27033975 94.90687131 -48.546875 88.84375 C-49.75811681 86.4733628 -50.53715467 84.5066018 -51.125 81.9375 C-51.7610761 78.97940754 -51.7610761 78.97940754 -53.6875 77.25 C-56.72092743 75.6103095 -59.80175807 74.2915977 -63 73 C-63 69.7 -63 66.4 -63 63 C-62.32453125 62.75507812 -61.6490625 62.51015625 -60.953125 62.2578125 C-55.5000401 60.02798552 -55.5000401 60.02798552 -51.62109375 55.79296875 C-50.98694759 54.10810342 -50.40500886 52.4028515 -49.87109375 50.68359375 C-48.95067593 47.84804647 -47.69704985 45.47648298 -46.25 42.875 C-43.87272272 38.21553653 -43.38372605 35.19430898 -44 30 C-44.6469365 28.3255761 -45.30959426 26.65697379 -46 25 C-45.82611738 22.13093672 -45.000327 21.0004321 -43.25 18.6875 C-41 17 -41 17 -38.4375 17.1875 C-36.625 17.79166667 -34.8125 18.39583333 -33 19 C-26.69534429 19.66364797 -23.09182119 18.40026572 -17.58984375 15.33984375 C-14.98943144 13.9945324 -12.477521 13.1789404 -9.6875 12.3125 C-5.3814331 10.69179136 -3.92084633 8.84745561 -1.875 4.75 C-1.21707769 3.18006125 -0.58025204 1.60027404 0 0 Z M-29.14453125 39.734375 C-37.71072679 50.19415061 -40.22898458 61.73007789 -39 75 C-36.50023497 86.93001634 -30.48096675 96.99047277 -20.6953125 104.27734375 C-9.47949964 111.4457111 1.69943298 113.66274543 14.85546875 111.5390625 C26.97555559 108.26336335 36.94907787 100.68232003 43.38671875 90.01953125 C49.20063464 79.13779521 50.70992391 68.36517051 47.875 56.3125 C44.49144454 45.51958466 37.72783931 36.09101687 28 30.17578125 C7.38752015 19.53458853 -13.10185629 22.95520997 -29.14453125 39.734375 Z " fill="#FADC74" transform="translate(251,23)"/>
<path d="M0 0 C3.2257434 1.51069193 4.52415749 4.84010515 6.18237305 7.84643555 C6.60663574 8.59119141 7.03089844 9.33594727 7.46801758 10.10327148 C8.92849578 12.67666842 10.36835262 15.26098325 11.80737305 17.84643555 C12.92136221 19.83114416 14.03596952 21.81550592 15.15112305 23.79956055 C17.54041643 28.05638596 19.92184975 32.31750634 22.29956055 36.58081055 C25.43285263 42.19027612 28.60932017 47.77369708 31.80737305 53.34643555 C36.18981158 60.98603251 40.51252294 68.65726842 44.80737305 76.34643555 C49.35772342 84.49042829 53.93253079 92.61948083 58.55737305 100.72143555 C59.05881836 101.6012207 59.56026367 102.48100586 60.0769043 103.38745117 C60.53967773 104.19633789 61.00245117 105.00522461 61.47924805 105.83862305 C61.88240234 106.5435791 62.28555664 107.24853516 62.70092773 107.97485352 C63.68103194 109.63272617 64.73906799 111.24397796 65.80737305 112.84643555 C65.65991211 114.87939453 65.65991211 114.87939453 64.80737305 116.84643555 C63.21264648 118.17089844 63.21264648 118.17089844 61.16674805 119.3190918 C60.42553711 119.74383789 59.68432617 120.16858398 58.9206543 120.60620117 C58.14077148 121.03610352 57.36088867 121.46600586 56.55737305 121.90893555 C55.79295898 122.34270508 55.02854492 122.77647461 54.2409668 123.22338867 C52.75909609 124.06413915 51.27288222 124.89729059 49.78198242 125.72192383 C48.15008961 126.65126338 46.57137901 127.67330865 45.01049805 128.7175293 C42.80737305 129.84643555 42.80737305 129.84643555 40.84301758 129.6484375 C33.81342288 126.8789222 29.67390483 114.36332949 26.20379639 107.97595215 C24.44536993 104.74027935 22.67281198 101.51235993 20.90112305 98.28393555 C20.54895721 97.64159973 20.19679138 96.99926392 19.83395386 96.33746338 C16.84248082 90.88964705 13.78174549 85.48361615 10.68237305 80.09643555 C6.33792916 72.54203703 2.05594707 64.95518222 -2.19262695 57.34643555 C-7.62899001 47.61354356 -13.12464106 37.91650761 -18.66918945 28.24487305 C-19.09490234 27.49560547 -19.52061523 26.74633789 -19.95922852 25.97436523 C-20.76438236 24.58526767 -21.59367485 23.20980707 -22.44946289 21.85131836 C-25.22006832 17.38374673 -25.22006832 17.38374673 -25.09082031 14.85302734 C-23.81345827 11.99936097 -22.09311516 11.16529909 -19.4230957 9.5769043 C-18.45178711 8.99875977 -17.48047852 8.42061523 -16.47973633 7.82495117 C-15.45686523 7.23391602 -14.43399414 6.64288086 -13.38012695 6.03393555 C-12.36885742 5.42356445 -11.35758789 4.81319336 -10.31567383 4.18432617 C-9.34049805 3.61262695 -8.36532227 3.04092773 -7.3605957 2.4519043 C-6.46622803 1.92749756 -5.57186035 1.40309082 -4.65039062 0.86279297 C-2.19262695 -0.15356445 -2.19262695 -0.15356445 0 0 Z " fill="#CDCDD2" transform="translate(48.192626953125,359.153564453125)"/>
<path d="M0 0 C1.41967866 0.5323389 2.84025163 1.06229903 4.26171875 1.58984375 C7.68517245 2.86611969 11.09558661 4.17363849 14.5 5.5 C11.42453411 7.91793676 8.23139229 9.87498851 4.828125 11.80078125 C3.70148438 12.44080078 2.57484375 13.08082031 1.4140625 13.74023438 C0.81754883 14.07756592 0.22103516 14.41489746 -0.39355469 14.76245117 C-3.57308752 16.5608692 -6.74738676 18.36847806 -9.921875 20.17578125 C-10.56572144 20.54212677 -11.20956787 20.90847229 -11.8729248 21.28591919 C-17.7739392 24.64748921 -23.64092741 28.06588551 -29.5 31.5 C-38.17448182 36.58107955 -46.88891689 41.58845472 -55.625 46.5625 C-67.65921394 53.4145681 -79.6064333 60.40662668 -91.5 67.5 C-94.41803181 64.02016322 -96.75413937 60.51335947 -98.953125 56.54296875 C-99.571875 55.43115234 -100.190625 54.31933594 -100.828125 53.17382812 C-101.46234375 52.02333984 -102.0965625 50.87285156 -102.75 49.6875 C-103.40582426 48.50562303 -104.06207039 47.32398006 -104.71875 46.14257812 C-106.31665988 43.26399048 -107.91024584 40.38309733 -109.5 37.5 C-107.00615208 34.70436225 -104.24784919 33.06746596 -100.99609375 31.234375 C-99.87541504 30.59878662 -98.75473633 29.96319824 -97.60009766 29.30834961 C-96.37928224 28.62214327 -95.15841507 27.936029 -93.9375 27.25 C-92.03870995 26.17656776 -90.14085371 25.10149839 -88.24310303 24.02622986 C-86.94087764 23.28843649 -85.63834307 22.5511886 -84.33551025 21.81446838 C-79.99237054 19.35598755 -75.66755096 16.8679893 -71.35546875 14.35546875 C-27.95474867 -10.92201027 -27.95474867 -10.92201027 0 0 Z " fill="#EFC9BA" transform="translate(186.5,338.5)"/>
<path d="M0 0 C4.10703441 0.85563217 5.55401113 2.24378009 8 5.625 C8.3125 9.4375 8.3125 9.4375 8 12.625 C8.56847656 12.78355469 9.13695312 12.94210938 9.72265625 13.10546875 C18.4621731 15.74629104 24.01873094 19.42335636 28.890625 27.28125 C30.71809501 31.14210214 30.78655576 33.40620091 30 37.625 C27.42627616 40.65291041 25.84753406 41.48662709 21.9375 42.125 C18.24293877 41.49613851 17.30380495 40.54315294 15 37.625 C14.401875 36.614375 13.80375 35.60375 13.1875 34.5625 C10.41708997 30.8422351 8.43158154 29.9326798 4 28.625 C-1.72975535 27.90628504 -6.06381711 28.37434297 -11 31.625 C-13.34549674 35.14324511 -13.57991403 36.48275694 -13 40.625 C-8.8542553 46.22830126 -3.82943127 47.1161171 2.75 48.625 C11.80823469 50.73613329 20.77945162 53.1570489 26.9375 60.625 C27.75541016 61.5840625 27.75541016 61.5840625 28.58984375 62.5625 C33.00692714 69.02294329 32.8230053 76.05506586 32 83.625 C29.58711887 90.46508713 23.82885399 95.77381234 17.3984375 98.8828125 C10.74431818 101.625 10.74431818 101.625 8 101.625 C7.9175 102.883125 7.835 104.14125 7.75 105.4375 C7.38040174 108.25943265 7.20302229 109.37512641 5.375 111.625 C1.98489618 113.05241214 -0.36150918 113.1447844 -4 112.625 C-6.375 110.5 -6.375 110.5 -8 107.625 C-8.04125 106.614375 -8.0825 105.60375 -8.125 104.5625 C-8.41375 103.593125 -8.7025 102.62375 -9 101.625 C-11.34294114 100.444195 -13.7483858 99.66388343 -16.2265625 98.8046875 C-22.97192752 95.93553224 -28.52841483 90.38682151 -31.41015625 83.640625 C-32.46853519 80.02391287 -32.50245816 77.39343622 -32 73.625 C-30.4375 71.125 -30.4375 71.125 -28 69.625 C-24.10415176 69.06845025 -21.98672845 68.91236278 -18.75 71.25 C-17 73.625 -17 73.625 -15.5625 76.625 C-13.52327819 80.54030587 -10.92127058 82.66436471 -7 84.625 C-4.58750308 84.80103147 -2.16849105 84.89244968 0.25 84.9375 C1.55453125 84.97488281 2.8590625 85.01226562 4.203125 85.05078125 C8.80529188 84.53469463 11.72206864 82.90293136 15 79.625 C15.13568319 75.96155389 15.16461426 73.11884279 14 69.625 C11.75256244 68.47479475 11.75256244 68.47479475 9 67.625 C7.63875 67.14160156 7.63875 67.14160156 6.25 66.6484375 C2.90760093 65.59590318 -0.36729424 64.94276772 -3.8125 64.3125 C-9.990477 63.02216303 -14.79582519 61.16117006 -20 57.625 C-20.928125 57.026875 -21.85625 56.42875 -22.8125 55.8125 C-27.70838445 50.91661555 -30.12898399 44.28554482 -30.3125 37.4375 C-30.21392479 29.95564145 -27.77426942 25.30167086 -22.75 19.875 C-18.59111431 15.95811844 -13.84420339 12.625 -8 12.625 C-8.103125 11.573125 -8.20625 10.52125 -8.3125 9.4375 C-8 5.625 -8 5.625 -5.875 2.6875 C-3 0.625 -3 0.625 0 0 Z " fill="#030300" transform="translate(421,138.375)"/>
<path d="M0 0 C0.80695313 0.43441406 1.61390625 0.86882812 2.4453125 1.31640625 C11.77493954 6.86674369 19.05572288 16.52609615 22 27 C21.90989215 30.49300425 21.37604202 31.63287869 18.859375 34.08984375 C2.95107392 44.71711045 -16.11951153 50.04273881 -35.21044922 46.6015625 C-46.59933065 43.88557151 -57.34051524 38.95736437 -66 31 C-64.10565571 19.25506539 -57.9344343 9.46822631 -48.28515625 2.48828125 C-33.82608161 -6.92865454 -15.28361167 -8.75671976 0 0 Z " fill="#88C7FC" transform="translate(113,216)"/>
<path d="M0 0 C6.86097357 4.11113893 10.39776424 10.57949027 13 18 C14.50733133 26.45716434 12.22932623 33.82298639 7.75 41.00390625 C3.28190229 46.88097795 -3.1293738 49.70979127 -10 52 C-18.91940125 53.20863242 -25.55921251 50.91331649 -33 46 C-39.03870049 41.02624068 -42.15845006 33.94773326 -43.453125 26.3359375 C-43.99040085 17.86163206 -40.79079702 10.50382789 -35.359375 4.05078125 C-25.05773974 -5.50470753 -12.21315874 -6.65031589 0 0 Z " fill="#E8EBED" transform="translate(271,67)"/>
<path d="M0 0 C2.89479637 1.73687782 3.01335881 3.05152682 3.875 6.375 C4.02010003 10.58290091 3.43793195 11.65742663 1 15 C-1.57421875 17.21875 -1.57421875 17.21875 -4.6875 19.5 C-5.85970858 20.37280753 -7.03020291 21.2479208 -8.19921875 22.125 C-9.12613525 22.81916016 -9.12613525 22.81916016 -10.07177734 23.52734375 C-13.44625456 26.10455906 -16.71797612 28.80673311 -20 31.5 C-26.00048862 36.40517275 -32.05223149 41.22376248 -38.234375 45.8984375 C-39.87292685 47.14355176 -41.49521402 48.41143721 -43.078125 49.7265625 C-46.05187414 52.12431519 -48.41137473 53.33427265 -52.1875 53.5625 C-56 53 -56 53 -58.5 51.5 C-60.18959029 48.68401619 -60.5184812 46.36493864 -60.62890625 43.09765625 C-58.90127623 37.33531263 -51.5512821 33.03089441 -47 29.3125 C-46.2467041 28.69455566 -45.4934082 28.07661133 -44.71728516 27.43994141 C-39.31636393 23.02829216 -33.83666667 18.74300716 -28.28125 14.52734375 C-25.81105569 12.64191457 -23.38430358 10.70883796 -20.96875 8.75390625 C-19.9470874 7.92753662 -19.9470874 7.92753662 -18.90478516 7.08447266 C-17.5785677 6.00837655 -16.25519128 4.92876699 -14.93505859 3.84521484 C-9.55926879 -0.51404098 -6.83237567 -1.4640805 0 0 Z " fill="#000000" transform="translate(332,237)"/>
<path d="M0 0 C3.01174458 1.83663252 5.56387821 4.08943928 8.1875 6.4375 C9.68863637 7.72827148 11.1912526 9.01732382 12.6953125 10.3046875 C13.42782227 10.93858398 14.16033203 11.57248047 14.91503906 12.22558594 C17.72281217 14.61515209 20.62066324 16.83961587 23.5625 19.0625 C28.62929181 22.92017103 33.61390716 26.86675734 38.5625 30.875 C39.2419165 31.42293213 39.92133301 31.97086426 40.62133789 32.53540039 C49.71621177 39.93162078 49.71621177 39.93162078 50.53125 43 C50.47744877 46.44327882 50.30293091 48.49511516 48.5 51.5 C45.05507854 53.56695288 41.88196572 53.59335745 38 53 C34.8671875 51.19921875 34.8671875 51.19921875 31.875 48.6875 C30.74488996 47.76159876 29.61467813 46.83582176 28.484375 45.91015625 C27.91009766 45.42820801 27.33582031 44.94625977 26.74414062 44.44970703 C24.48634875 42.57305975 22.1744755 40.77200849 19.85644531 38.97070312 C13.58736662 34.09828889 7.39568379 29.12781849 1.21264648 24.14697266 C-2.63059279 21.06035678 -6.5205035 18.07859362 -10.58203125 15.28125 C-12.35968746 13.67499315 -13.13866793 12.22933005 -14 10 C-13.92598764 5.85530765 -13.59591132 3.72231675 -10.9375 0.5 C-7.05588261 -1.4821025 -4.06265843 -1.25067663 0 0 Z " fill="#000000" transform="translate(190,237)"/>
<path d="M0 0 C4.60302473 2.86410427 4.60302473 2.86410427 5.62763977 5.7959137 C6.06778095 8.40121114 6.13488578 10.87211612 6.14526367 13.51538086 C6.15164352 14.62010239 6.15802338 15.72482391 6.16459656 16.86302185 C6.16570938 18.05162308 6.1668222 19.2402243 6.16796875 20.46484375 C6.17129715 21.69030411 6.17462555 22.91576447 6.17805481 24.17835999 C6.18311716 26.76986313 6.18546335 29.36137278 6.18530273 31.95288086 C6.18748956 35.9185661 6.20565389 39.88397334 6.22460938 43.84960938 C6.22754335 46.36718655 6.22952812 48.88476504 6.23046875 51.40234375 C6.23765427 52.58892075 6.24483978 53.77549774 6.25224304 54.99803162 C6.24916641 56.1059053 6.24608978 57.21377899 6.24291992 58.35522461 C6.24434494 59.32689072 6.24576996 60.29855682 6.24723816 61.29966736 C5.8692114 65.42847177 4.9841443 68.15644775 1.8125 70.875 C-1.89950586 72.35980235 -4.16286868 71.99481182 -8 71 C-10.81403495 69.03017554 -11.35583627 67.28748639 -12 64 C-12.09543189 62.16337985 -12.13804313 60.3237028 -12.14526367 58.48461914 C-12.15164352 57.37989761 -12.15802338 56.27517609 -12.16459656 55.13697815 C-12.16570938 53.94837692 -12.1668222 52.7597757 -12.16796875 51.53515625 C-12.17129715 50.30969589 -12.17462555 49.08423553 -12.17805481 47.82164001 C-12.18311716 45.23013687 -12.18546335 42.63862722 -12.18530273 40.04711914 C-12.18748956 36.0814339 -12.20565389 32.11602666 -12.22460938 28.15039062 C-12.22754335 25.63281345 -12.22952812 23.11523496 -12.23046875 20.59765625 C-12.23765427 19.41107925 -12.24483978 18.22450226 -12.25224304 17.00196838 C-12.24916641 15.8940947 -12.24608978 14.78622101 -12.24291992 13.64477539 C-12.24505745 12.18727623 -12.24505745 12.18727623 -12.24723816 10.70033264 C-11.89370055 6.8389985 -10.95755659 3.99175503 -8.25 1.1875 C-5.22105071 -0.41111212 -3.38597949 -0.48371136 0 0 Z " fill="#000000" transform="translate(259,195)"/>
<path d="M0 0 C9.23883537 8.18896771 9.23883537 8.18896771 9.98828125 14.41796875 C10.18453035 20.25379715 9.29916687 24.7018384 5.75 29.4375 C0.18916054 34.53072341 -4.92211376 35.87811327 -12.39453125 35.76953125 C-17.91046416 35.1281437 -21.43665454 32.7240844 -24.8515625 28.41796875 C-28.07194075 23.2815554 -29.57386568 18.44827722 -28.25 12.4375 C-25.86081515 6.81886614 -22.19699719 2.91092356 -17.25 -0.5625 C-11.56085478 -2.40762818 -5.39552267 -2.59400128 0 0 Z " fill="#F2D8C9" transform="translate(100.25,158.5625)"/>
<path d="M0 0 C11.18177435 7.54769768 16.28041153 21.77989045 19.61328125 34.3046875 C21.19816388 45.35083918 21.05803279 57.5534176 17 68 C16.64808594 68.98097656 16.29617188 69.96195312 15.93359375 70.97265625 C12.19987832 80.71974835 5.31500421 93.96056404 -4.20703125 99.21875 C-4.79871094 99.4765625 -5.39039063 99.734375 -6 100 C-4.48195603 96.64636205 -2.50236532 93.96525763 -0.25 91.0625 C11.92790087 74.46430843 16.14575858 54.43955195 13.50390625 34.19921875 C11.32479915 23.13132451 7.22014049 13.43084842 1.13671875 3.9609375 C0 2 0 2 0 0 Z " fill="#E9AF27" transform="translate(469,148)"/>
<path d="M0 0 C11.62873702 7.10088108 18.31952717 20.08128227 22.3125 32.8125 C26.08294064 50.29363386 24.65384682 68.39042672 15.78515625 84.16015625 C14.91022585 85.47722229 13.96579715 86.74804073 13 88 C12.01 86.68 11.02 85.36 10 84 C10.99 83.505 10.99 83.505 12 83 C12.36321485 81.33958925 12.68676972 79.67056149 13 78 C13.46672558 76.6414952 13.94739274 75.28774551 14.4375 73.9375 C20.56540472 55.73401833 19.27135662 35.75313126 11.16015625 18.39453125 C8.11234461 12.26440445 4.73685962 6.9737026 0 2 C0 1.34 0 0.68 0 0 Z " fill="#655B65" transform="translate(135,144)"/>
<path d="M0 0 C3.46145669 0.86536417 4.94931405 2.62635769 6.9375 5.484375 C7.6821324 9.45574781 7.31016878 10.92537183 5.0625 14.296875 C2.55605093 16.87704316 1.68288327 17.40155464 -1.875 17.796875 C-5.7932645 17.41273142 -7.27543267 16.19181183 -10.0625 13.484375 C-11.50680855 10.59575791 -11.43938506 8.68789799 -11.0625 5.484375 C-7.96567477 1.03268873 -5.27078558 -0.35937174 0 0 Z " fill="#060606" transform="translate(46.0625,372.515625)"/>
<path d="M0 0 C7.16715443 5.25837619 12.29296991 13.54053096 15 22 C14.9375 24.75 14.9375 24.75 14 27 C12.69662392 28.03874375 11.36525747 29.04404507 10 30 C9.78085938 28.97261719 9.56171875 27.94523437 9.3359375 26.88671875 C7.54705103 18.93386809 5.51174091 12.15140301 1.171875 5.13671875 C0 3 0 3 0 0 Z " fill="#5BAEF2" transform="translate(120,221)"/>
<path d="M0 0 C0.33 0.66 0.66 1.32 1 2 C-4.14285714 8.57142857 -4.14285714 8.57142857 -8 10 C-6.34908222 5.70761377 -3.26245434 3.1206085 0 0 Z " fill="#DCA525" transform="translate(471,238)"/>
</svg>
