<?xml version="1.0" encoding="UTF-8"?>
<svg version="1.1" xmlns="http://www.w3.org/2000/svg" width="512" height="512">
<path d="M0 0 C3.66263298 3.03193744 7.00438575 6.3313445 10.32470703 9.73095703 C11.00275391 10.38837891 11.68080078 11.04580078 12.37939453 11.72314453 C24.40513911 24.17647114 28.51779685 41.91160103 28.32470703 58.73095703 C27.2236713 77.58869629 18.8489939 93.71912255 5.32470703 106.73095703 C-3.51799898 114.17123054 -14.32724968 119.5058505 -25.67529297 121.73095703 C-25.2526416 122.39450195 -24.82999023 123.05804688 -24.39453125 123.74169922 C-21.29200073 128.61454237 -18.19337276 133.48976393 -15.10498047 138.37158203 C-14.51845703 139.29712891 -13.93193359 140.22267578 -13.32763672 141.17626953 C-12.13343746 143.06074221 -10.94075144 144.94617463 -9.74951172 146.83251953 C-7.17440454 150.89129774 -4.59234407 154.90338273 -1.74560547 158.77783203 C0.32470703 161.73095703 0.32470703 161.73095703 0.32470703 163.73095703 C9.41310603 159.45061428 18.09675881 154.52138649 26.78588867 149.48999023 C41.12527257 141.2640025 53.93559615 135.84647159 70.79345703 138.77001953 C85.39294711 142.74288962 94.86660856 151.05410074 102.58642578 163.81689453 C107.84049159 174.01251666 108.77706614 187.89672439 105.32470703 198.73095703 C97.82305011 216.65799358 87.02002477 223.9462996 70.32470703 233.04345703 C69.11751833 233.70685579 67.91065378 234.37084473 66.70410156 235.03540039 C64.32291615 236.34611438 61.94028827 237.65413344 59.55615234 238.95947266 C55.42874318 241.22212609 51.31284448 243.50499895 47.19970703 245.79345703 C46.51505371 246.1731665 45.83040039 246.55287598 45.125 246.9440918 C40.77095191 249.36084319 36.42830177 251.79717476 32.09033203 254.24267578 C30.99221191 254.86070068 29.8940918 255.47872559 28.76269531 256.11547852 C26.62427498 257.31958093 24.48713417 258.52595987 22.3515625 259.73510742 C7.13322857 268.29926607 -6.07682616 275.70816463 -24.04638672 272.04345703 C-40.53598952 267.38208522 -50.09550707 257.85723338 -59.17529297 243.73095703 C-60.12275391 242.28269531 -60.12275391 242.28269531 -61.08935547 240.80517578 C-62.62670308 238.45256808 -64.15505066 236.094639 -65.67529297 233.73095703 C-68.51696027 236.26011636 -70.19336335 239.10528988 -72.07373047 242.39501953 C-72.71826172 243.51779297 -73.36279297 244.64056641 -74.02685547 245.79736328 C-74.70139747 246.98352547 -75.37587626 248.1697236 -76.05029297 249.35595703 C-76.71653356 250.51896164 -77.38319642 251.68172444 -78.05029297 252.84423828 C-81.63906442 259.11386489 -85.18903549 265.40373988 -88.67529297 271.73095703 C-82.0688943 277.36994472 -75.34852985 282.79882032 -68.42529297 288.04345703 C-61.25061268 293.48092269 -54.23210006 299.08260004 -47.27685547 304.79736328 C-44.27302721 307.26169957 -41.2020266 309.62436642 -38.11279297 311.98095703 C-29.20179206 319.14265072 -22.36140534 329.24535987 -20.67529297 340.73095703 C-20.45210555 343.49961106 -20.30780829 346.20931592 -20.23779297 348.98095703 C-20.16915039 350.02123047 -20.16915039 350.02123047 -20.09912109 351.08251953 C-19.98789765 356.59533378 -21.40539827 361.3315801 -23.27563477 366.46606445 C-23.54253742 367.20935973 -23.80944008 367.95265501 -24.08443069 368.71847439 C-27.09444168 377.01928121 -30.37786178 385.20772071 -33.69091797 393.39111328 C-34.35369254 395.03556786 -35.01618169 396.6801375 -35.67840576 398.32481384 C-37.05778577 401.74845406 -38.43952765 405.17112698 -39.82324219 408.59301758 C-41.56567146 412.90211425 -43.30368901 417.21297248 -45.04024506 421.52443886 C-48.35104131 429.74412495 -51.67378654 437.9588264 -55.0125351 446.16720009 C-56.9059315 450.82493719 -58.77929125 455.49010126 -60.64208984 460.16015625 C-61.5015506 462.28684963 -62.36152845 464.41333416 -63.22216797 466.53955078 C-63.57998352 467.45100357 -63.93779907 468.36245636 -64.30645752 469.30152893 C-69.57105083 482.1782682 -77.56130422 491.58220711 -90.08544922 497.68798828 C-101.76237345 502.39046003 -116.26916236 502.74590243 -128.03857422 498.05126953 C-140.51404454 491.80429328 -148.84036625 482.80679124 -153.67529297 469.73095703 C-154.04460937 468.74869141 -154.04460937 468.74869141 -154.42138672 467.74658203 C-160.19429706 449.11401623 -150.57560043 430.42072775 -143.61279297 413.54345703 C-142.85242046 411.68517731 -142.09274194 409.82661348 -141.33374023 407.96777344 C-139.8263731 404.27903528 -138.31519545 400.5918998 -136.80029297 396.90625 C-134.89498928 392.26961855 -133.00055784 387.62865984 -131.11279297 382.98486328 C-130.8504335 382.3395314 -130.58807404 381.69419952 -130.31776428 381.02931213 C-130.06586838 380.40967087 -129.81397247 379.7900296 -129.55444336 379.15161133 C-127.59923279 374.34288599 -125.6378583 369.53668449 -123.67529297 364.73095703 C-131.22185725 358.23424212 -138.86679192 351.94190721 -146.80029297 345.92236328 C-148.7060879 344.46971253 -150.58226109 342.97729744 -152.42529297 341.44580078 C-154.4689067 339.52890103 -154.4689067 339.52890103 -156.67529297 339.73095703 C-158.29519828 342.01311883 -158.29519828 342.01311883 -159.94091797 344.95361328 C-160.58416016 346.04996094 -161.22740234 347.14630859 -161.89013672 348.27587891 C-162.56935154 349.44792469 -163.24773132 350.62045477 -163.92529297 351.79345703 C-172.59333631 366.77095038 -180.1339492 376.01632396 -196.87451172 382.00439453 C-204.56792162 384.0001745 -212.32523093 383.87931246 -220.21899414 383.8762207 C-221.45749115 383.87957932 -222.69598816 383.88293793 -223.97201538 383.88639832 C-227.35042482 383.8942401 -230.72877277 383.89757415 -234.10718703 383.8982141 C-236.22465699 383.89892794 -238.34212063 383.90106858 -240.459589 383.90371132 C-247.86621124 383.91294781 -255.27281555 383.91704849 -262.67944336 383.91625977 C-269.55149893 383.91566001 -276.42347575 383.92619613 -283.29551142 383.94200343 C-289.22109599 383.95514126 -295.14665501 383.96044103 -301.072254 383.95980436 C-304.599881 383.95955112 -308.12743797 383.96230458 -311.65505028 383.97298241 C-315.59827026 383.98459352 -319.54138493 383.97987861 -323.48461914 383.97387695 C-325.20502663 383.98230621 -325.20502663 383.98230621 -326.96018982 383.99090576 C-337.3894303 383.95083622 -347.77597873 383.37829593 -357.11279297 378.41845703 C-358.22525391 377.84482422 -359.33771484 377.27119141 -360.48388672 376.68017578 C-370.45416694 370.59061662 -377.03927887 361.82965174 -380.67529297 350.73095703 C-384.01255058 335.1834488 -382.23389975 322.32591343 -373.67529297 308.73095703 C-366.90123937 299.88001 -356.75950265 292.95127881 -345.67529297 290.73095703 C-344.17204898 290.68868559 -342.66661098 290.70347262 -341.16387939 290.76115417 C-340.2643605 290.79182983 -339.36484161 290.82250549 -338.43806458 290.85411072 C-337.4583519 290.89234451 -336.47863922 290.93057831 -335.46923828 290.9699707 C-333.31745567 291.0426832 -331.16561687 291.11374681 -329.01373291 291.18339539 C-327.87237129 291.22050817 -326.73100967 291.25762096 -325.55506134 291.29585838 C-318.21837001 291.5087665 -310.87918663 291.60534511 -303.5402565 291.70841503 C-297.09967991 291.80515357 -290.66851984 291.95264008 -284.23242188 292.21557617 C-257.37004171 294.87550493 -257.37004171 294.87550493 -232.85528564 287.10369873 C-226.84467261 281.01937393 -224.08004242 273.104236 -221.70556641 265.05825806 C-220.39927927 260.83956195 -218.47360157 257.40716325 -216.10498047 253.71533203 C-215.50669434 252.66579346 -214.9084082 251.61625488 -214.29199219 250.53491211 C-208.76308468 240.84033628 -203.1947657 231.17133066 -197.55029297 221.54345703 C-192.16505583 212.35561737 -186.92699416 203.09264203 -181.74462891 193.7890625 C-176.49433607 184.37293902 -171.10294141 175.0459753 -165.67529297 165.73095703 C-172.60529297 165.73095703 -179.53529297 165.73095703 -186.67529297 165.73095703 C-188.57419136 169.06257582 -190.46997232 172.39588526 -192.36279297 175.73095703 C-192.94496582 176.75592285 -193.52713867 177.78088867 -194.12695312 178.83691406 C-197.20968346 184.28779073 -200.2440309 189.75791555 -203.18701172 195.28564453 C-204.03356323 196.873125 -204.03356323 196.873125 -204.8972168 198.49267578 C-205.97090558 200.51478172 -207.03756859 202.54063956 -208.09594727 204.57080078 C-215.39943013 218.31519694 -224.62861063 229.47419531 -239.67529297 234.73095703 C-251.59340783 238.14379052 -263.59777778 237.48365617 -274.92919922 232.21923828 C-287.56515974 225.1816883 -295.29940222 215.54955939 -299.67529297 201.73095703 C-305.87396187 176.93628143 -288.35484662 154.14264488 -276.92120361 133.58340454 C-274.37272929 128.99743561 -271.8455875 124.40015117 -269.32763672 119.79736328 C-268.26453055 117.85741988 -267.20114703 115.91762875 -266.13769531 113.97787476 C-265.46641457 112.75182397 -264.79628576 111.52514161 -264.12744141 110.29776001 C-254.80467699 93.19664004 -247.15660395 80.80205938 -228.48779297 73.48095703 C-221.47036115 71.60964188 -214.63482298 71.592495 -207.41577148 71.61743164 C-206.30284225 71.61728561 -205.18991302 71.61713959 -204.04325867 71.61698914 C-200.38021873 71.61768344 -196.71723023 71.62545324 -193.05419922 71.63330078 C-190.50829598 71.63516667 -187.96239238 71.63658977 -185.41648865 71.6375885 C-179.41016348 71.641011 -173.40386024 71.64888519 -167.39754385 71.65893799 C-160.55591811 71.67013881 -153.71429148 71.67561956 -146.87265885 71.68063343 C-132.8068601 71.69106894 -118.74107754 71.70864358 -104.67529297 71.73095703 C-104.88662117 70.70606171 -104.88662117 70.70606171 -105.10221863 69.66046143 C-105.28512955 68.76236755 -105.46804047 67.86427368 -105.65649414 66.93896484 C-105.92969734 65.60469452 -105.92969734 65.60469452 -106.2084198 64.24346924 C-109.17815135 48.26164104 -104.29000198 30.66705432 -95.23779297 17.41845703 C-94.06549696 15.84451785 -92.8790519 14.28096572 -91.67529297 12.73095703 C-91.21509766 12.10576172 -90.75490234 11.48056641 -90.28076172 10.83642578 C-69.92040809 -15.15676344 -25.9974116 -19.69317189 0 0 Z M-62.90185547 27.48486328 C-71.05913718 35.04638846 -75.10150337 44.61596597 -75.98779297 55.60595703 C-75.67007684 65.17481941 -71.43589855 74.52334624 -65.01123047 81.55126953 C-57.09017807 88.74893815 -47.31254852 92.28842733 -36.64013672 92.03955078 C-26.32309429 90.96570842 -17.48916138 86.60049834 -10.89404297 78.55908203 C-4.72137056 69.78420458 -1.65530485 60.47494448 -3.07763672 49.67626953 C-5.57240762 38.07337056 -11.75670459 30.03210406 -21.54248047 23.48095703 C-34.99099264 15.89175514 -51.00631205 18.11451417 -62.90185547 27.48486328 Z M-226.69091797 108.64892578 C-230.66109119 113.66948589 -233.48036804 119.38682392 -236.42529297 125.04345703 C-237.67048943 127.39549479 -238.91658558 129.74705645 -240.16357422 132.09814453 C-241.067771 133.8108252 -241.067771 133.8108252 -241.99023438 135.55810547 C-244.14896217 139.62284415 -246.36709984 143.65130468 -248.61279297 147.66845703 C-249.17873169 148.68987793 -249.17873169 148.68987793 -249.75610352 149.73193359 C-251.98719472 153.74926794 -254.25472542 157.74341517 -256.55351257 161.72245789 C-257.9458386 164.13864656 -259.32548236 166.56196336 -260.70388794 168.9861145 C-261.38428077 170.17549154 -262.07024277 171.36170284 -262.76217651 172.54440308 C-269.07281747 183.17266364 -269.07281747 183.17266364 -269.10888672 195.21923828 C-266.33737572 200.29490745 -263.53128463 203.50695968 -257.79248047 205.32861328 C-253.01170959 206.29414152 -249.81005537 205.33775579 -245.53466797 203.12939453 C-241.4705921 200.07279966 -239.01518744 195.79875601 -236.67919922 191.36376953 C-236.12675537 190.32397949 -235.57431152 189.28418945 -235.00512695 188.21289062 C-234.42190674 187.10510254 -233.83868652 185.99731445 -233.23779297 184.85595703 C-231.99228831 182.51637684 -230.74543227 180.17759812 -229.49560547 177.84033203 C-229.179478 177.24856171 -228.86335052 176.65679138 -228.53764343 176.04708862 C-225.31042148 170.02108563 -221.97858726 164.05559834 -218.61279297 158.10595703 C-218.08951416 157.17799316 -217.56623535 156.2500293 -217.02709961 155.29394531 C-206.68065458 137.0602781 -206.68065458 137.0602781 -200.90484619 135.14337158 C-198.09552618 134.6237139 -195.42289221 134.58779009 -192.56494141 134.56982422 C-191.32975769 134.56021667 -190.09457397 134.55060913 -188.82196045 134.54071045 C-187.47619818 134.53586125 -186.13043375 134.53158272 -184.78466797 134.52783203 C-183.39707438 134.52207438 -182.00948079 134.51631673 -180.62188721 134.51055908 C-177.71341585 134.50006571 -174.80497199 134.49421256 -171.89648438 134.49072266 C-168.18670651 134.48524936 -164.47729778 134.46123968 -160.76763535 134.4327507 C-157.90042086 134.41403698 -155.03329363 134.40891405 -152.16602325 134.40738678 C-150.79940021 134.40437805 -149.43277804 134.39641028 -148.06621552 134.3832016 C-140.62208099 134.31640015 -134.40063863 134.35113285 -127.67529297 137.73095703 C-124.33966308 141.06658692 -123.33494999 144.07347079 -122.92529297 148.66845703 C-123.29049414 156.70288286 -127.66673535 163.01944595 -131.67529297 169.73095703 C-132.72949745 171.53570927 -133.7814421 173.34178277 -134.83154297 175.14892578 C-136.58838339 178.16910929 -138.34811285 181.18740248 -140.1171875 184.20043945 C-144.39689009 191.49335586 -148.56508417 198.84136319 -152.67529297 206.23095703 C-157.8084924 215.45523469 -163.07107051 224.59336846 -168.41650391 233.69604492 C-172.6770533 240.97060482 -176.82348216 248.30336099 -180.92529297 255.66845703 C-185.09503879 263.15450193 -189.30918236 270.60218149 -193.69433594 277.96411133 C-196.4187108 282.55296984 -199.07542097 287.17794165 -201.70654297 291.82080078 C-202.2413176 292.76304253 -202.2413176 292.76304253 -202.78689575 293.72431946 C-204.23044875 296.26824001 -205.67394398 298.812137 -207.1083374 301.36123657 C-208.11383521 303.14811307 -209.12462103 304.93191036 -210.13623047 306.71533203 C-210.72194824 307.75399414 -211.30766602 308.79265625 -211.91113281 309.86279297 C-214.60331333 314.23972858 -216.81562299 317.77008965 -221.67529297 319.73095703 C-223.92272472 319.98429012 -223.92272472 319.98429012 -226.42362976 319.98924255 C-227.37533554 319.99607056 -228.32704132 320.00289856 -229.30758667 320.00993347 C-230.8637822 320.00610405 -230.8637822 320.00610405 -232.45141602 320.00219727 C-234.09846779 320.01003738 -234.09846779 320.01003738 -235.77879333 320.01803589 C-238.16433469 320.0282802 -240.54989842 320.03405704 -242.93546104 320.03591728 C-246.71471474 320.03957761 -250.49370523 320.05629689 -254.27290344 320.07667542 C-263.66335837 320.12511911 -273.05384287 320.15668753 -282.44439697 320.17797852 C-290.37251109 320.19598485 -298.30038817 320.22545081 -306.22840309 320.27202034 C-308.73013141 320.28364992 -311.23189296 320.28960051 -313.7336483 320.28970146 C-317.24002733 320.2898942 -320.74589753 320.30821278 -324.25219727 320.33032227 C-325.79321106 320.3234565 -325.79321106 320.3234565 -327.36535645 320.31645203 C-335.00389105 320.39275653 -341.81801483 321.1168515 -347.61279297 326.41845703 C-350.33410928 330.78905596 -352.233476 334.6177919 -351.29638672 339.84423828 C-349.76538147 344.48974563 -347.59454188 347.70244651 -343.67529297 350.73095703 C-337.28411486 353.19327326 -331.04101594 353.02011318 -324.25756836 353.00561523 C-323.02093948 353.01072617 -321.78431061 353.0158371 -320.51020813 353.02110291 C-317.13407878 353.03258741 -313.75819567 353.035078 -310.3820641 353.03253961 C-307.55663965 353.03146613 -304.73123757 353.03636281 -301.90581793 353.04114503 C-295.23691806 353.05222043 -288.56807453 353.05268859 -281.89916992 353.04663086 C-275.03437313 353.04059081 -268.16978128 353.05290727 -261.30501944 353.07420093 C-255.39650868 353.09185005 -249.48806297 353.09781312 -243.57952684 353.09456319 C-240.05704604 353.0927556 -236.53471149 353.09533385 -233.01225471 353.10927773 C-229.08222618 353.12425454 -225.15245627 353.11485699 -221.22241211 353.10327148 C-220.0652771 353.11091522 -218.90814209 353.11855896 -217.71594238 353.12643433 C-211.01390881 353.08282131 -204.41967347 352.9505418 -199.0686655 348.34950733 C-193.61767432 342.71647156 -190.03983153 335.12609999 -186.17529297 328.35595703 C-171.41776004 302.64511272 -171.41776004 302.64511272 -165.67529297 300.73095703 C-160.79568634 299.93142689 -156.50436089 299.78666013 -152.03466797 302.09423828 C-149.13514886 304.19074686 -146.40987463 306.42309813 -143.67529297 308.73095703 C-142.50014683 309.67381072 -141.32159244 310.61242803 -140.14013672 311.54736328 C-137.58502774 313.57095083 -135.03987822 315.60591469 -132.50341797 317.65283203 C-128.89480517 320.56088501 -125.26005746 323.43409618 -121.61279297 326.29345703 C-121.04520264 326.73874756 -120.4776123 327.18403809 -119.89282227 327.64282227 C-117.52973993 329.49581932 -115.16545658 331.34727856 -112.80078125 333.19824219 C-110.92505705 334.66676529 -109.05016918 336.13635155 -107.17529297 337.60595703 C-106.61189209 338.04625244 -106.04849121 338.48654785 -105.46801758 338.94018555 C-102.7248156 341.09079369 -100.03527731 343.27616271 -97.39404297 345.55126953 C-94.99599374 347.93946201 -94.99599374 347.93946201 -92.67529297 347.73095703 C-88.1927888 358.78780064 -90.06687459 364.78180486 -94.42529297 375.60595703 C-94.94547447 376.92280693 -95.4648988 378.23995613 -95.98364258 379.55737305 C-102.15195853 395.15111746 -108.53864483 410.66089388 -114.90673828 426.17382812 C-115.33137863 427.20889999 -115.75601898 428.24397186 -116.19352722 429.31040955 C-116.99212901 431.25599368 -117.7917891 433.20114389 -118.59272766 435.14576721 C-123.99834238 446.53805521 -123.99834238 446.53805521 -124.67529297 458.73095703 C-122.94409814 462.69916905 -120.69533218 465.77092012 -117.55029297 468.73095703 C-111.81018528 470.72751623 -106.03307414 470.62068578 -100.36279297 468.48095703 C-93.01032287 460.95749926 -89.70312569 449.21441411 -85.89404297 439.57080078 C-85.35764107 438.22454777 -84.8207535 436.87848818 -84.28341675 435.53260803 C-82.8654747 431.97726345 -81.4538536 428.4194463 -80.04412079 424.86083984 C-77.71675399 418.98800882 -75.38152085 413.11829487 -73.04813766 407.24785233 C-72.1866808 405.07979893 -71.32606478 402.91141299 -70.46548462 400.74301147 C-67.31175513 392.80266113 -64.11730271 384.88138504 -60.85498047 376.98486328 C-60.18744699 375.35938221 -59.52011727 373.73381745 -58.85302734 372.1081543 C-57.96871295 369.95365087 -57.08018528 367.80168905 -56.17358398 365.65646362 C-51.2326648 354.53110015 -51.2326648 354.53110015 -52.36279297 342.81396484 C-54.65206842 338.26231781 -57.99587648 335.44068107 -62.05029297 332.48095703 C-63.30835434 331.52816055 -64.56615972 330.57502598 -65.82373047 329.62158203 C-66.46407227 329.14269531 -67.10441406 328.66380859 -67.76416016 328.17041016 C-70.77212616 325.90482922 -73.72142835 323.56633799 -76.67529297 321.23095703 C-77.84165424 320.31390181 -79.00832173 319.39723593 -80.17529297 318.48095703 C-82.5086263 316.6476237 -84.84195964 314.81429036 -87.17529297 312.98095703 C-87.75311523 312.52696533 -88.3309375 312.07297363 -88.92626953 311.60522461 C-90.0897262 310.69105688 -91.25313786 309.77683188 -92.41650391 308.86254883 C-95.98638894 306.05713918 -99.55775901 303.25363897 -103.13110352 300.45263672 C-104.31641853 299.52167492 -105.50020714 298.58876599 -106.68237305 297.65380859 C-109.32116171 295.56741187 -111.96913003 293.51297361 -114.67138672 291.50830078 C-123.26176557 285.03746388 -123.26176557 285.03746388 -124.67529297 278.73095703 C-125.2249563 269.55946258 -120.85225996 262.95211213 -116.17529297 255.41845703 C-115.40759028 254.15163048 -114.64183823 252.88362002 -113.87792969 251.61450195 C-112.28744647 248.97528108 -110.68868983 246.34134203 -109.08447266 243.71044922 C-106.73091008 239.83821468 -104.43228461 235.93567863 -102.15185547 232.02001953 C-101.78803268 231.39533783 -101.4242099 230.77065613 -101.04936218 230.12704468 C-100.32411533 228.88097875 -99.59907163 227.63479456 -98.87423706 226.38848877 C-93.286619 216.78898286 -87.63429135 207.23328968 -81.72070312 197.82983398 C-79.45121525 194.53153859 -79.45121525 194.53153859 -78.67529297 190.73095703 C-77.89154297 190.42158203 -77.10779297 190.11220703 -76.30029297 189.79345703 C-73.75199169 188.80220665 -73.75199169 188.80220665 -71.67529297 187.73095703 C-69.50341797 187.49267578 -69.50341797 187.49267578 -66.92529297 187.41845703 C-66.08482422 187.38107422 -65.24435547 187.34369141 -64.37841797 187.30517578 C-59.87403825 188.01468068 -56.99067695 190.08735702 -54.14599609 193.6418457 C-52.46466196 196.05019336 -50.87502704 198.50160794 -49.30029297 200.98095703 C-48.70522949 201.89103516 -48.11016602 202.80111328 -47.49707031 203.73876953 C-44.83948296 207.80469223 -42.21277775 211.88987418 -39.59716797 215.98291016 C-37.51139528 219.24096434 -35.40624135 222.48592037 -33.30029297 225.73095703 C-32.65914551 226.75092773 -32.01799805 227.77089844 -31.35742188 228.82177734 C-27.64331883 234.5294446 -24.2197201 239.25910866 -17.67529297 241.73095703 C-12.34595915 242.45847172 -9.05750031 241.34375067 -4.36279297 238.85595703 C-3.7650708 238.54279541 -3.16734863 238.22963379 -2.55151367 237.90698242 C-0.58245831 236.86637963 1.37204207 235.80197283 3.32470703 234.73095703 C3.98341797 234.37211426 4.64212891 234.01327148 5.32080078 233.64355469 C9.79926244 231.19694787 14.25286119 228.70735624 18.70068359 226.20556641 C22.57581428 224.02787852 26.45741859 221.8618059 30.33813477 219.6940918 C33.52242452 217.91274118 36.70294288 216.12478475 39.88330078 214.33642578 C44.19398812 211.91522908 48.52018614 209.52555199 52.85986328 207.15673828 C53.90440674 206.58093018 54.9489502 206.00512207 56.02514648 205.41186523 C58.00397195 204.32114285 59.9879339 203.23966847 61.9777832 202.16918945 C67.92854311 198.8692958 72.23026057 195.90398293 75.35595703 189.67626953 C76.52841364 185.1232297 76.37320147 181.87395339 74.43017578 177.55517578 C71.84165705 173.28366255 68.21302893 170.78952711 63.57470703 169.16845703 C54.47590033 167.53236201 44.81864953 175.02300876 37.20300293 179.30148315 C35.29047834 180.37517299 33.37317741 181.43987237 31.45458984 182.50268555 C25.85602984 185.60907462 20.27693236 188.74251529 14.74658203 191.96923828 C13.94220703 192.43313965 13.13783203 192.89704102 12.30908203 193.375 C10.87917919 194.20275626 9.45645658 195.04312275 8.04345703 195.89941406 C2.83537398 198.90438271 -2.88733416 200.71454284 -8.88012695 199.15844727 C-15.29336765 196.68692374 -18.17549348 191.32009067 -21.67529297 185.73095703 C-22.58262065 184.3332834 -23.49302912 182.93760706 -24.40576172 181.54345703 C-26.59938067 178.18966361 -28.78350681 174.82997514 -30.96044922 171.46533203 C-36.38514513 163.08555453 -41.83939181 154.72549653 -47.32763672 146.38720703 C-50.24995561 141.93988686 -53.10810904 137.461365 -55.92919922 132.94970703 C-57.30284634 130.79342467 -58.67654235 128.63717345 -60.05029297 126.48095703 C-60.95775269 124.99063965 -60.95775269 124.99063965 -61.88354492 123.47021484 C-65.73685353 117.48942381 -69.21447726 114.23159774 -75.75585938 111.34912109 C-78.54871542 109.80111559 -79.89909865 108.45313344 -82.06208801 106.1824646 C-87.41818813 101.4707374 -92.53331541 101.76912072 -99.40600586 101.88867188 C-101.29283836 101.87991028 -101.29283836 101.87991028 -103.2177887 101.87097168 C-106.64804513 101.8562247 -110.07667392 101.88485323 -113.50670552 101.92240477 C-117.10685211 101.95517358 -120.70696746 101.95031282 -124.30723572 101.9503479 C-130.35052733 101.95590174 -136.3931996 101.98813848 -142.4362793 102.03808594 C-149.41079036 102.09556421 -156.38471144 102.11840009 -163.35944563 102.12097013 C-170.8040368 102.12390033 -178.24841265 102.1497301 -185.6929214 102.18353701 C-187.83002878 102.19187339 -189.96711453 102.1962357 -192.1042347 102.19981003 C-196.09441082 102.20803482 -200.08396266 102.24218956 -204.07397461 102.27929688 C-205.25183533 102.27950836 -206.42969604 102.27971985 -207.64324951 102.27993774 C-214.82254387 102.37356704 -221.77386202 102.67644116 -226.69091797 108.64892578 Z " fill="#000000" transform="translate(393.67529296875,11.26904296875)"/>
</svg>
