<?xml version="1.0" encoding="UTF-8"?>
<svg version="1.1" xmlns="http://www.w3.org/2000/svg" width="512" height="512">
<path d="M0 0 C26.70782475 23.62343594 44.57612044 56.56170001 48.69140625 92.15625 C48.80097656 93.01476562 48.91054688 93.87328125 49.0234375 94.7578125 C51.94380445 121.15792976 47.72124256 148.00812545 36.69140625 172.15625 C36.3989502 172.8054541 36.10649414 173.4546582 35.80517578 174.12353516 C29.64719017 187.61633687 21.76859026 199.20104668 11.64453125 210.05078125 C10.05079901 211.76882461 8.57681699 213.50490335 7.12890625 215.34375 C-16.51849079 242.62920812 -54.17892259 256.24286405 -89.24804688 259.015625 C-113.07696761 260.64186414 -137.61732215 256.08634512 -159.30859375 246.15625 C-159.95634766 245.86379395 -160.60410156 245.57133789 -161.27148438 245.27001953 C-174.76680664 239.11237128 -186.3516823 231.23502789 -197.203125 221.109375 C-198.92116836 219.51564276 -200.6572471 218.04166074 -202.49609375 216.59375 C-229.29520881 193.36785028 -243.50503367 155.89283665 -246.16796875 121.32763672 C-248.7987546 80.70574543 -234.91277411 42.68183557 -208.59765625 11.9453125 C-154.88118434 -48.38241749 -60.40185537 -52.30456939 0 0 Z " fill="#FCD461" transform="translate(354.30859375,144.84375)"/>
<path d="M0 0 C28.29696736 10.4653057 51.75806332 40.32690524 64.37768555 66.68041992 C70.6956457 80.58302551 75.24440655 95.81525661 77 111 C77.10957031 111.85851562 77.21914063 112.71703125 77.33203125 113.6015625 C80.2523982 140.00167976 76.02983631 166.85187545 65 191 C64.56131592 191.97380615 64.56131592 191.97380615 64.11376953 192.96728516 C57.95578392 206.46008687 50.07718401 218.04479668 39.953125 228.89453125 C38.35939276 230.61257461 36.88541074 232.34865335 35.4375 234.1875 C11.79010296 261.47295812 -25.87032884 275.08661405 -60.93945312 277.859375 C-81.50314961 279.26277419 -102.58977411 275.85066796 -122 269 C-122 268.01 -122 267.02 -122 266 C-121.49364014 265.75991211 -120.98728027 265.51982422 -120.46557617 265.27246094 C-98.65249181 254.85002755 -79.01301843 242.43895206 -61.21875 226.03125 C-59.22984201 224.21041875 -57.19317024 222.47912594 -55.125 220.75 C-19.46515824 189.54763846 5.44407643 139.96931546 10 93 C10.14767618 90.16488264 10.18621512 87.33472928 10.203125 84.49609375 C10.21371445 83.30798347 10.21371445 83.30798347 10.22451782 82.09587097 C10.39346563 57.53527078 8.40094607 35.1214855 2.3046875 11.24609375 C1.35332216 7.51346105 0.53539524 3.81958802 0 0 Z " fill="#F6C358" transform="translate(326,126)"/>
<path d="M0 0 C2.65625204 2.00657041 4.96911982 4.26554196 7.30078125 6.63671875 C7.94444138 7.27559525 8.5881015 7.91447174 9.25126648 8.57270813 C10.59919453 9.91725686 11.94092249 11.26804783 13.27661133 12.62475586 C15.30747086 14.68240452 17.36365712 16.71198117 19.42382812 18.74023438 C20.73858514 20.05829583 22.05179007 21.37790769 23.36328125 22.69921875 C23.970616 23.29643234 24.57795074 23.89364594 25.20368958 24.50895691 C30.45969543 29.90997073 34.04250919 35.90178725 34.4375 43.5625 C34.09722562 50.28585247 31.79228586 56.20771414 27 61 C20.85607004 65.24907306 15.44404118 66.71995289 8 66 C-3.05206822 63.66535768 -10.92125918 53.34163379 -18.63769531 45.71240234 C-19.71442495 44.65230299 -20.79650168 43.59760792 -21.88378906 42.54833984 C-28.79212083 35.87887102 -34.54407412 29.97840335 -36.56640625 20.28515625 C-36.55279086 12.53800173 -34.06710779 6.14782115 -28.625 0.5625 C-18.51408409 -5.45590233 -10.37933174 -5.64438956 0 0 Z " fill="#F6C357" transform="translate(410,378)"/>
<path d="M0 0 C4.90708223 4.90708223 7.04375389 10.15630831 7.5 17 C7.22679846 30.41171206 -4.26740447 39.01725587 -13.03759766 47.88769531 C-14.09769701 48.96442495 -15.15239208 50.04650168 -16.20166016 51.13378906 C-22.87112898 58.04212083 -28.77159665 63.79407412 -38.46484375 65.81640625 C-46.21199827 65.80279086 -52.60217885 63.31710779 -58.1875 57.875 C-62.04531049 51.39387838 -64.08817295 45.8575659 -62.75 38.25 C-60.41681453 31.49851798 -57.08593335 26.85718913 -52.0078125 21.9140625 C-51.36182098 21.2680307 -50.71582947 20.6219989 -50.05026245 19.95639038 C-48.69295112 18.60440289 -47.32957793 17.25847599 -45.96044922 15.91845703 C-43.87344114 13.87347253 -41.80874743 11.80779901 -39.74609375 9.73828125 C-38.41792709 8.42060333 -37.08854077 7.10415339 -35.7578125 5.7890625 C-35.14511505 5.17656647 -34.5324176 4.56407043 -33.90115356 3.93301392 C-23.82593378 -5.86921619 -11.94013286 -7.59826637 0 0 Z " fill="#F6C357" transform="translate(436.75,72.75)"/>
<path d="M0 0 C5.64890309 3.11356863 9.44426789 7.90350142 11.3828125 14.078125 C12.77738779 21.61476592 11.50197282 27.42942495 7.75 34.0625 C5.70455609 36.72993841 3.41405282 39.05616347 1.0078125 41.3984375 C0.36182098 42.0444693 -0.28417053 42.6905011 -0.94973755 43.35610962 C-2.30704888 44.70809711 -3.67042207 46.05402401 -5.03955078 47.39404297 C-7.12655886 49.43902747 -9.19125257 51.50470099 -11.25390625 53.57421875 C-12.58207291 54.89189667 -13.91145923 56.20834661 -15.2421875 57.5234375 C-15.85488495 58.13593353 -16.4675824 58.74842957 -17.09884644 59.37948608 C-22.74494123 64.87259904 -28.10316626 67.78604442 -36 68.3125 C-42.65574635 68.21334549 -48.53155131 65.78094869 -53.25 61.0625 C-57.68553319 54.64895877 -59.03795411 48.73659396 -58.25 41.0625 C-56.17863324 34.33851616 -52.56261873 29.62857616 -47.61328125 24.76171875 C-46.97440475 24.11805862 -46.33552826 23.4743985 -45.67729187 22.81123352 C-44.33274314 21.46330547 -42.98195217 20.12157751 -41.62524414 18.78588867 C-39.56759548 16.75502914 -37.53801883 14.69884288 -35.50976562 12.63867188 C-34.19170417 11.32391486 -32.87209231 10.01070993 -31.55078125 8.69921875 C-30.95356766 8.091884 -30.35635406 7.48454926 -29.74104309 6.85881042 C-21.27454049 -1.38038109 -11.18714652 -4.83043208 0 0 Z " fill="#F6C357" transform="translate(126.25,375.9375)"/>
<path d="M0 0 C5.80765563 5.15801006 11.4052266 10.52452211 16.92773438 15.98461914 C18.00446401 17.04471849 19.08654074 18.09941357 20.17382812 19.14868164 C27.08215989 25.81815046 32.83411318 31.71861813 34.85644531 41.41186523 C34.844815 48.02951132 33.28270949 53.35199494 29.29003906 58.69702148 C23.32703497 63.92791298 17.71336144 66.13642868 9.83378601 65.95820618 C2.0061195 65.15448367 -3.68712819 60.47413758 -9.01074219 55.06030273 C-9.65440231 54.42142624 -10.29806244 53.78254974 -10.96122742 53.12431335 C-12.30915547 51.77976462 -13.65088343 50.42897365 -14.98657227 49.07226562 C-17.01743179 47.01461697 -19.07361806 44.98504031 -21.13378906 42.95678711 C-22.44854608 41.63872565 -23.76175101 40.31911379 -25.07324219 38.99780273 C-25.68057693 38.40058914 -26.28791168 37.80337555 -26.91365051 37.18806458 C-32.16965637 31.78705076 -35.75247013 25.79523423 -36.14746094 18.13452148 C-35.80718655 11.41116902 -33.5022468 5.48930735 -28.70996094 0.69702148 C-19.88534725 -5.40598238 -8.91573043 -6.79372549 0 0 Z " fill="#F6C357" transform="translate(103.7099609375,72.302978515625)"/>
<path d="M0 0 C1.55267578 -0.00574036 1.55267578 -0.00574036 3.13671875 -0.01159668 C5.31511412 -0.01430654 7.49354254 -0.00701063 9.671875 0.00976562 C12.99032718 0.03118756 16.30661449 0.00993129 19.625 -0.015625 C21.75000474 -0.01298156 23.87500814 -0.00785625 26 0 C26.98355469 -0.00809692 27.96710937 -0.01619385 28.98046875 -0.02453613 C36.78581042 0.08076869 42.18174902 1.77562682 47.8125 7.28125 C51.82322582 13.24004264 54.17320702 19.2253699 53 26.53125 C51.16008916 33.58424155 48.28938515 38.66085914 42 42.53125 C37.00432605 45.22691066 31.82008198 44.85487426 26.29296875 44.8671875 C25.25360672 44.8738443 24.21424469 44.8805011 23.14338684 44.88735962 C20.94709031 44.89747098 18.75076314 44.90217711 16.55444336 44.90185547 C13.20960308 44.90622115 9.86609074 44.94253743 6.52148438 44.98046875 C4.38281699 44.98633884 2.24414337 44.99030695 0.10546875 44.9921875 C-1.38398003 45.01374405 -1.38398003 45.01374405 -2.90351868 45.03573608 C-10.68805157 44.98500791 -15.86376638 43.17962506 -21.8125 38.15625 C-25.97604808 33.15999231 -27.41772255 29.02507756 -27.375 22.53125 C-27.38273437 21.355625 -27.39046875 20.18 -27.3984375 18.96875 C-26.6683693 12.67012241 -23.77416349 8.56276583 -19 4.53125 C-12.82461416 0.42828646 -7.28015991 -0.05993251 0 0 Z " fill="#F6C357" transform="translate(27,233.46875)"/>
<path d="M0 0 C1.20269531 -0.02578125 2.40539062 -0.0515625 3.64453125 -0.078125 C10.02223874 0.51253369 14.12195334 3.43553685 18.1875 8.25 C22.29046354 14.42538584 22.77868251 19.96984009 22.71875 27.25 C22.7225769 28.28511719 22.72640381 29.32023437 22.73034668 30.38671875 C22.73305654 32.56511412 22.72576063 34.74354254 22.70898438 36.921875 C22.68756244 40.24032718 22.70881871 43.55661449 22.734375 46.875 C22.73173156 49.00000474 22.72660625 51.12500814 22.71875 53.25 C22.72684692 54.23355469 22.73494385 55.21710937 22.74328613 56.23046875 C22.63798131 64.03581042 20.94312318 69.43174902 15.4375 75.0625 C9.47870736 79.07322582 3.4933801 81.42320702 -3.8125 80.25 C-10.86549155 78.41008916 -15.94210914 75.53938515 -19.8125 69.25 C-22.48793176 64.27022266 -22.15384171 59.1210968 -22.18359375 53.61328125 C-22.19262222 52.57866257 -22.2016507 51.54404388 -22.21095276 50.47807312 C-22.22544252 48.29018031 -22.23433882 46.1022443 -22.23803711 43.91430664 C-22.24989756 40.59120202 -22.29906728 37.26997671 -22.34960938 33.94726562 C-22.35907866 31.81511317 -22.36631127 29.68294937 -22.37109375 27.55078125 C-22.39062607 26.56813797 -22.41015839 25.58549469 -22.43028259 24.57307434 C-22.3850482 17.54645372 -20.80666712 12.09331461 -16.8125 6.25 C-11.69668848 1.36345941 -6.9297022 0.08855849 0 0 Z " fill="#F6C357" transform="translate(255.8125,-0.25)"/>
<path d="M0 0 C1.03936203 -0.0066568 2.07872406 -0.0133136 3.14958191 -0.02017212 C5.34587844 -0.03028348 7.54220561 -0.03498961 9.73852539 -0.03466797 C13.08336567 -0.03903365 16.42687801 -0.07534993 19.77148438 -0.11328125 C21.91015176 -0.11915134 24.04882538 -0.12311945 26.1875 -0.125 C27.18046585 -0.13937103 28.1734317 -0.15374207 29.19648743 -0.16854858 C36.98102032 -0.11782041 42.15673513 1.68756244 48.10546875 6.7109375 C52.26901683 11.70719519 53.7106913 15.84210994 53.66796875 22.3359375 C53.67957031 24.099375 53.67957031 24.099375 53.69140625 25.8984375 C52.96133805 32.19706509 50.06713224 36.30442167 45.29296875 40.3359375 C39.11758291 44.43890104 33.57312866 44.92712001 26.29296875 44.8671875 C24.74029297 44.87292786 24.74029297 44.87292786 23.15625 44.87878418 C20.97785463 44.88149404 18.79942621 44.87419813 16.62109375 44.85742188 C13.30264157 44.83599994 9.98635426 44.85725621 6.66796875 44.8828125 C4.54296401 44.88016906 2.41796061 44.87504375 0.29296875 44.8671875 C-0.69058594 44.87528442 -1.67414063 44.88338135 -2.6875 44.89172363 C-10.49284167 44.78641881 -15.88878027 43.09156068 -21.51953125 37.5859375 C-25.53025707 31.62714486 -27.88023827 25.6418176 -26.70703125 18.3359375 C-24.86712041 11.28294595 -21.9964164 6.20632836 -15.70703125 2.3359375 C-10.7113573 -0.35972316 -5.52711323 0.01231324 0 0 Z " fill="#F6C357" transform="translate(458.70703125,233.6640625)"/>
<path d="M0 0 C4.41170842 3.8307427 7.66672634 8.28606587 8.20172119 14.24794006 C8.29812412 17.06924962 8.32964852 19.88406345 8.3359375 22.70703125 C8.3425943 23.74639328 8.3492511 24.78575531 8.35610962 25.85661316 C8.36622098 28.05290969 8.37092711 30.24923686 8.37060547 32.44555664 C8.37497115 35.79039692 8.41128743 39.13390926 8.44921875 42.47851562 C8.45508884 44.61718301 8.45905695 46.75585663 8.4609375 48.89453125 C8.47530853 49.8874971 8.48967957 50.88046295 8.50448608 51.90351868 C8.45375791 59.68805157 6.64837506 64.86376638 1.625 70.8125 C-3.37125769 74.97604808 -7.50617244 76.41772255 -14 76.375 C-15.175625 76.38273438 -16.35125 76.39046875 -17.5625 76.3984375 C-23.86112759 75.6683693 -27.96848417 72.77416349 -32 68 C-36.10296354 61.82461416 -36.59118251 56.28015991 -36.53125 49 C-36.5350769 47.96488281 -36.53890381 46.92976563 -36.54284668 45.86328125 C-36.54555654 43.68488588 -36.53826063 41.50645746 -36.52148438 39.328125 C-36.50006244 36.00967282 -36.52131871 32.69338551 -36.546875 29.375 C-36.54423156 27.24999526 -36.53910625 25.12499186 -36.53125 23 C-36.53934692 22.01644531 -36.54744385 21.03289062 -36.55578613 20.01953125 C-36.45048131 12.21418958 -34.75562318 6.81825098 -29.25 1.1875 C-19.62601188 -5.29018431 -10.17083513 -5.81676524 0 0 Z " fill="#F6C357" transform="translate(270,436)"/>
</svg>
