<?xml version="1.0" encoding="UTF-8"?>
<svg version="1.1" xmlns="http://www.w3.org/2000/svg" width="512" height="512">
<path d="M0 0 C1.90031037 -0.00203011 3.80061997 -0.00494924 5.70092773 -0.00869751 C9.65063011 -0.0130769 13.60012659 -0.00683346 17.54980469 0.00732422 C22.55507308 0.0244133 27.55985847 0.01454822 32.56510925 -0.00339317 C36.47932425 -0.01435101 40.39342898 -0.0107304 44.30764771 -0.0030098 C46.15080831 -0.00104074 47.9939797 -0.00334774 49.83712769 -0.01044846 C82.03136367 -0.1073278 113.25731858 7.67466302 137.2734375 30.28515625 C139.54445833 32.44101007 139.54445833 32.44101007 142.0859375 34.36328125 C161.65280729 50.44268056 173.09389721 79.08679349 176.5625 103.3984375 C176.95988514 108.69178753 177.01092821 113.96800503 176.99609375 119.2734375 C177.00067213 120.73738848 177.00598252 122.20133734 177.01197815 123.6652832 C177.02081532 126.70061102 177.01858885 129.73567428 177.00854492 132.77099609 C176.99696694 136.64552146 177.0174473 140.51914724 177.04646206 144.39355469 C177.06484707 147.40315445 177.0645288 150.41253833 177.05882454 153.42218018 C177.05867214 154.85102618 177.0646489 156.27988757 177.07711601 157.7086792 C177.1842707 171.97440955 177.1842707 171.97440955 172.5625 177.3984375 C167.39829353 180.9394665 163.53086023 181.97766368 157.24183655 181.87945557 C156.43139576 181.88287327 155.62095497 181.88629097 154.78595537 181.88981223 C152.08488352 181.8963727 149.38481735 181.87444599 146.68383789 181.85253906 C144.7419436 181.85141019 142.8000476 181.85204523 140.8581543 181.85430908 C135.5961898 181.85545558 130.33459086 181.83195638 125.07271123 181.80401325 C119.57009442 181.7789891 114.06746901 181.77665679 108.56480408 181.77191162 C98.14912049 181.75948485 87.73360507 181.72666718 77.31799549 181.68651366 C65.45834856 181.64178675 53.59869356 181.61980658 41.73898327 181.59973192 C17.34672899 181.55793438 -7.04537608 181.48758801 -31.4375 181.3984375 C-31.22599336 182.35771715 -31.22599336 182.35771715 -31.01021385 183.33637619 C-29.92868738 188.44292261 -29.18225545 193.25722556 -29.14697266 198.49707031 C-29.13421295 199.79831848 -29.12145325 201.09956665 -29.10830688 202.44024658 C-29.10525055 203.82735034 -29.10302208 205.21445614 -29.1015625 206.6015625 C-29.09512088 208.05263393 -29.08839155 209.50370411 -29.08139038 210.95477295 C-29.06949364 213.97704076 -29.06570227 216.99919484 -29.06689453 220.02148438 C-29.06709873 223.88388193 -29.03966002 227.74555205 -29.00535011 231.60777664 C-28.98307789 234.59673391 -28.97905687 237.58551507 -28.98011398 240.57454681 C-28.97776378 241.99864996 -28.96897302 243.42275839 -28.95344925 244.84677887 C-28.93376115 246.83688289 -28.94215704 248.8272041 -28.95166016 250.81738281 C-28.94881012 251.94638 -28.94596008 253.0753772 -28.94302368 254.23858643 C-29.76254963 259.47560151 -32.3128055 262.53148549 -36.4375 265.7109375 C-40.50418379 267.99844713 -43.62009496 268.52298523 -48.24897385 268.52986526 C-49.70609571 268.53562698 -49.70609571 268.53562698 -51.19265437 268.5415051 C-52.25722967 268.54063862 -53.32180498 268.53977213 -54.41864014 268.53887939 C-55.55164087 268.54185052 -56.68464159 268.54482164 -57.85197568 268.5478828 C-61.66271776 268.55658037 -65.47342846 268.55807894 -69.28417969 268.55957031 C-72.01067287 268.56365958 -74.73716274 268.56920163 -77.46365356 268.57461548 C-84.88107103 268.58819434 -92.29848309 268.59422283 -99.71591091 268.59862614 C-104.34797467 268.60138933 -108.98003634 268.60562683 -113.61209869 268.61013031 C-126.4386062 268.62232242 -139.26511204 268.63262183 -152.09162521 268.6360054 C-152.91246816 268.63622497 -153.73331111 268.63644453 -154.57902808 268.63667075 C-155.40182755 268.63688903 -156.22462702 268.63710731 -157.0723598 268.6373322 C-158.73964612 268.63777567 -160.40693243 268.63822223 -162.07421875 268.63867188 C-162.90124917 268.6388933 -163.72827958 268.63911473 -164.58037153 268.63934287 C-177.97984718 268.6432905 -191.37926845 268.66074371 -204.77872309 268.6840314 C-218.53792151 268.70775115 -232.29709265 268.72020754 -246.05631185 268.72137332 C-253.78072271 268.72228973 -261.50506271 268.72803353 -269.22945404 268.74619293 C-275.80724332 268.76160235 -282.38493983 268.76670944 -288.96274373 268.75845483 C-292.31771619 268.75455122 -295.67235012 268.7570994 -299.02732468 268.76951218 C-302.66785257 268.78219175 -306.30790087 268.77637599 -309.94842529 268.76593018 C-311.53190392 268.77801478 -311.53190392 268.77801478 -313.14737201 268.79034352 C-319.49680389 268.7477281 -326.07817089 268.53220784 -330.99393916 263.94650388 C-334.79002331 259.51958413 -335.56431879 256.99162818 -335.59863281 251.27490234 C-335.61304413 249.34050797 -335.61304413 249.34050797 -335.62774658 247.36703491 C-335.63260044 245.94781675 -335.63687782 244.52859652 -335.640625 243.109375 C-335.64345238 242.39199787 -335.64627975 241.67462074 -335.64919281 240.93550491 C-335.66421284 237.1239917 -335.67341881 233.31251646 -335.67773438 229.50097656 C-335.68316061 225.60584755 -335.70705372 221.71107859 -335.73570633 217.81606102 C-335.75457919 214.78896172 -335.75955162 211.7619439 -335.76107025 208.7347908 C-335.76405256 207.30221253 -335.77192644 205.86963409 -335.78525543 204.43711472 C-335.902466 190.84684799 -334.24473886 177.66516976 -329.3125 164.8984375 C-328.86245605 163.71471558 -328.86245605 163.71471558 -328.40332031 162.50708008 C-316.54670665 132.39720363 -293.85390902 109.50506477 -264.4375 96.3984375 C-263.38304687 95.91632813 -262.32859375 95.43421875 -261.2421875 94.9375 C-244.22564537 87.75660626 -226.54341445 86.80934715 -208.328125 86.97265625 C-206.1786937 86.97759698 -204.02925805 86.98088486 -201.87982178 86.98262024 C-197.41908574 86.99018556 -192.95867921 87.0105251 -188.49804688 87.04174805 C-182.79571792 87.08160799 -177.09360019 87.09941385 -171.39114761 87.10905743 C-165.91177866 87.11903805 -160.43246002 87.13886598 -154.953125 87.16015625 C-153.91960152 87.163552 -152.88607803 87.16694775 -151.82123566 87.1704464 C-148.88890138 87.18207921 -145.95669575 87.2006022 -143.02441406 87.22143555 C-141.74013016 87.2254689 -141.74013016 87.2254689 -140.42990112 87.22958374 C-135.35142824 87.27463006 -130.46568497 87.6755327 -125.4375 88.3984375 C-125.251875 87.2434375 -125.06625 86.0884375 -124.875 84.8984375 C-118.81990571 57.96808807 -98.214516 33.1374145 -75.28076172 18.52294922 C-51.89369478 4.25528958 -27.04581313 -0.10419383 0 0 Z M-69.4375 56.3984375 C-70.05109375 56.92824219 -70.6646875 57.45804687 -71.296875 58.00390625 C-82.91165814 68.79286765 -91.00170886 84.08806995 -94.4375 99.3984375 C-92.82294922 100.39810547 -92.82294922 100.39810547 -91.17578125 101.41796875 C-72.70256345 113.0096739 -58.23908438 125.91757637 -46.37109375 144.40625 C-44.72942633 147.17654833 -44.72942633 147.17654833 -43.4375 148.3984375 C-41.00900529 148.49611972 -38.60898637 148.52840281 -36.18003845 148.51869202 C-35.41147618 148.51954644 -34.64291391 148.52040087 -33.85106188 148.52128118 C-31.25607214 148.52293831 -28.66114597 148.51741084 -26.06616211 148.51196289 C-24.21382143 148.51168104 -22.36148063 148.5118387 -20.50914001 148.5124054 C-15.46389589 148.51269347 -10.41867532 148.50679523 -5.37343669 148.49983144 C-0.10699631 148.49359945 5.15944456 148.49299422 10.42588806 148.49180603 C20.40607958 148.48869225 30.3862602 148.48047825 40.36644691 148.47045654 C51.7253819 148.45929683 63.0843174 148.45378531 74.4432565 148.44876111 C97.81634372 148.43829567 121.18942125 148.42069534 144.5625 148.3984375 C144.57969549 144.4480689 144.59206601 140.49771527 144.6002655 136.5473175 C144.60535891 134.55468987 144.61410165 132.56207262 144.6229248 130.56945801 C144.66752682 104.86653176 140.30335868 82.17667394 122.5625 62.3984375 C121.75039063 61.49222656 120.93828125 60.58601563 120.1015625 59.65234375 C105.63824576 44.36194585 85.85030297 34.36550792 64.59698486 33.29988861 C62.43463276 33.25548784 60.27413433 33.24050513 58.11132812 33.23730469 C56.88772583 33.22985733 56.88772583 33.22985733 55.6394043 33.22225952 C52.95751071 33.20773265 50.27567637 33.2008499 47.59375 33.1953125 C46.6700914 33.19248512 45.7464328 33.18965775 44.79478455 33.18674469 C39.90159828 33.17178639 35.00844122 33.16253715 30.11523438 33.15820312 C25.10030572 33.1527398 20.08565147 33.12874742 15.07080841 33.10023117 C11.18077863 33.08145553 7.29081281 33.07639121 3.40074158 33.07486725 C1.55426034 33.07187107 -0.2922206 33.06394742 -2.13865662 33.05068207 C-27.84883301 32.87923382 -49.66269567 39.14734071 -69.4375 56.3984375 Z M-257.4375 129.6484375 C-258.1291626 130.03338379 -258.8208252 130.41833008 -259.53344727 130.81494141 C-279.6391394 142.33536479 -293.83513213 160.72115093 -300.28515625 182.83984375 C-304.84290995 200.01572226 -303.4375 217.72942129 -303.4375 235.3984375 C-223.9075 235.3984375 -144.3775 235.3984375 -62.4375 235.3984375 C-62.39208847 184.67285388 -62.39208847 184.67285388 -87.4375 144.3984375 C-99.48660203 132.6212475 -114.0279532 125.04500345 -130.4375 121.3984375 C-131.13994843 121.22388031 -131.84239685 121.04932312 -132.56613159 120.86947632 C-136.49718988 120.22459876 -140.35486662 120.2259535 -144.33251953 120.20556641 C-145.21956573 120.19738892 -146.10661194 120.18921143 -147.02053833 120.18078613 C-149.95378975 120.1560005 -152.88699256 120.13942304 -155.8203125 120.125 C-156.82907314 120.11967632 -157.83783379 120.11435265 -158.87716293 120.10886765 C-164.22881051 120.08215069 -169.58043501 120.06278124 -174.93212891 120.04833984 C-179.32752625 120.03507194 -183.72245149 120.00735017 -188.11767578 119.96630859 C-193.45332305 119.91650032 -198.78854662 119.89215915 -204.12441635 119.88511276 C-206.14067082 119.87847304 -208.1569186 119.86344609 -210.17303848 119.83922195 C-226.52655949 119.65412726 -242.98451074 121.27094684 -257.4375 129.6484375 Z " fill="#000000" transform="translate(335.4375,208.6015625)"/>
<path d="M0 0 C20.04060856 -0.88132695 39.37838022 7.156268 54.16796875 20.28515625 C68.59661331 33.66318258 77.2036632 52.02501056 78.359375 71.66796875 C79.16325623 93.86237796 72.16340722 113.6891963 57.04296875 130.16015625 C42.14726584 145.09823669 22.97784108 152.45288029 2.04296875 152.66015625 C-19.0564215 152.4512514 -37.84010701 145.00632961 -52.95703125 130.16015625 C-55.87935716 126.98026941 -58.47541613 123.69254534 -60.95703125 120.16015625 C-61.488125 119.42796875 -62.01921875 118.69578125 -62.56640625 117.94140625 C-73.64107597 101.27231574 -76.27707673 79.86623578 -72.83203125 60.47265625 C-70.02322775 48.15311345 -64.90758067 37.92797411 -56.95703125 28.16015625 C-56.35246094 27.38027344 -55.74789063 26.60039063 -55.125 25.796875 C-43.17294394 11.22794772 -24.69484562 2.83569483 -6.26953125 0.47265625 C-4.18028699 0.29824332 -2.08944575 0.17099257 0 0 Z M-23.95703125 42.16015625 C-25.02953125 42.92328125 -26.10203125 43.68640625 -27.20703125 44.47265625 C-35.94802085 53.014987 -40.95421995 64.52508747 -41.26953125 76.72265625 C-41.13012831 89.33087809 -35.59627362 99.34436208 -27.20703125 108.41015625 C-18.45175717 116.81388013 -7.45835581 119.61337869 4.41015625 119.59399414 C15.39924571 119.30860938 25.28660044 114.97723977 33.04296875 107.16015625 C42.41806933 95.92121858 46.15252739 84.72914362 45.04296875 70.16015625 C42.81469306 57.98270057 36.63877372 47.87394883 26.51171875 40.66015625 C9.92171853 30.58015611 -8.07581415 30.84948979 -23.95703125 42.16015625 Z " fill="#000000" transform="translate(356.95703125,34.83984375)"/>
<path d="M0 0 C1.37502622 1.16328264 2.72944966 2.35134337 4.0625 3.5625 C5.18011719 4.54283203 5.18011719 4.54283203 6.3203125 5.54296875 C20.04009438 18.30934205 28.31285587 37.05073999 29.34765625 55.703125 C30.0222316 76.79324133 23.62607441 95.72031969 9.75 111.75 C-4.27938621 126.65033804 -22.27851868 135.69709837 -42.84765625 136.765625 C-65.35354262 137.18884025 -85.55218912 129.83951044 -101.875 114.1875 C-116.29628652 98.98267809 -123.6259958 79.32109698 -123.34179688 58.50561523 C-122.61713229 37.8632074 -114.28596204 20.17533906 -99.9375 5.5625 C-99.26074219 4.86125 -98.58398438 4.16 -97.88671875 3.4375 C-71.46207778 -22.04162651 -28.48250337 -21.26297995 0 0 Z M-80.3046875 32.4453125 C-88.37078132 42.90421883 -91.05252113 54.60037934 -89.9375 67.5625 C-87.35007354 79.82337313 -80.97232155 89.16161712 -70.9375 96.5625 C-60.46104561 102.96207059 -49.7965076 105.30919926 -37.62890625 102.91015625 C-25.60312966 99.60979589 -15.9261504 92.8813399 -9.46875 82.11328125 C-3.61801952 71.0070981 -2.13540965 60.19731634 -5.5 47.9375 C-9.24365165 36.98142857 -16.57871173 27.28823411 -27.0390625 21.9921875 C-46.28833978 13.79602321 -65.63153448 17.08968724 -80.3046875 32.4453125 Z " fill="#000000" transform="translate(199.9375,137.4375)"/>
</svg>
