<?xml version="1.0" encoding="UTF-8"?>
<svg version="1.1" xmlns="http://www.w3.org/2000/svg" width="512" height="512">
<path d="M0 0 C0.92892059 0.00215515 1.85784119 0.0043103 2.81491089 0.00653076 C16.20527413 0.05639961 29.1909301 0.42741361 42.3125 3.3125 C43.75254395 3.61051514 43.75254395 3.61051514 45.22167969 3.91455078 C84.43543955 12.12251087 119.92109449 29.5254964 151.3125 54.3125 C152.25867188 55.04597656 153.20484375 55.77945313 154.1796875 56.53515625 C172.62958582 71.18010522 189.31633499 88.37492019 203.3125 107.3125 C203.7343457 107.88274902 204.15619141 108.45299805 204.59082031 109.04052734 C214.45029713 122.50088976 220.36784931 135.46048197 217.84765625 152.4453125 C215.15012404 165.9489353 207.83443127 175.86206776 199.3125 186.3125 C198.88308105 186.84101563 198.45366211 187.36953125 198.01123047 187.9140625 C182.65118026 206.70481319 165.75140991 223.75259128 146.3125 238.3125 C145.49410645 238.9322168 145.49410645 238.9322168 144.65917969 239.56445312 C102.84980185 271.06501124 52.9858042 288.84381603 0.625 288.625 C-0.30392059 288.62284485 -1.23284119 288.6206897 -2.18991089 288.61846924 C-15.58027413 288.56860039 -28.5659301 288.19758639 -41.6875 285.3125 C-43.12754395 285.01448486 -43.12754395 285.01448486 -44.59667969 284.71044922 C-89.85826776 275.23659847 -130.27250489 253.49419775 -164.34765625 222.43359375 C-166.47554815 220.50463665 -168.63470859 218.62213647 -170.8125 216.75 C-177.66231079 210.76847508 -183.78880498 204.21971941 -189.6875 197.3125 C-190.51121094 196.37792969 -191.33492187 195.44335938 -192.18359375 194.48046875 C-205.41391312 179.34683192 -218.49604985 163.11645919 -217.93359375 142.0078125 C-216.46360521 125.90793805 -208.61357183 114.47023649 -198.6875 102.3125 C-198.24744629 101.77334961 -197.80739258 101.23419922 -197.35400391 100.67871094 C-186.12595422 87.01442507 -174.22547348 73.72728199 -160.6875 62.3125 C-160.16607422 61.86664551 -159.64464844 61.42079102 -159.10742188 60.96142578 C-143.31977098 47.51546277 -126.10817491 35.8535306 -107.6875 26.3125 C-106.93130371 25.91611328 -106.17510742 25.51972656 -105.39599609 25.11132812 C-72.49686736 8.05990988 -36.91490559 -0.15426755 0 0 Z M-141.6875 90.3125 C-143.01704696 91.46272463 -144.35026807 92.60871889 -145.6875 93.75 C-153.28094463 100.39617387 -160.09971709 107.56327568 -166.390625 115.44921875 C-168.42779441 117.98875136 -170.51165964 120.47346048 -172.62329102 122.95043945 C-182.18249745 133.68359404 -182.18249745 133.68359404 -184.6875 147.3125 C-180.88332713 158.53480997 -170.61399541 168.51870676 -162.73046875 177.0859375 C-160.85790692 179.12677926 -159.04920466 181.20713697 -157.25 183.3125 C-150.57696527 190.93663394 -143.37731529 197.78748991 -135.45703125 204.1015625 C-133.64230999 205.55026804 -131.84694774 207.02363988 -130.07421875 208.5234375 C-90.24640606 242.15581266 -36.69295455 259.73836606 15.3203125 255.80859375 C62.4277499 251.49088439 105.18308299 231.70997513 140.3125 200.3125 C140.83714844 199.84424805 141.36179687 199.37599609 141.90234375 198.89355469 C150.88349713 190.84016104 159.38685989 182.67454415 166.9453125 173.24609375 C169.01135064 170.68570656 171.11919201 168.17374331 173.25268555 165.67016602 C182.8084157 154.93838626 182.8084157 154.93838626 185.3125 141.3125 C181.50832713 130.09019003 171.23899541 120.10629324 163.35546875 111.5390625 C161.48290692 109.49822074 159.67420466 107.41786303 157.875 105.3125 C151.20196527 97.68836606 144.00231529 90.83751009 136.08203125 84.5234375 C134.26730999 83.07473196 132.47194774 81.60136012 130.69921875 80.1015625 C55.05024169 16.22020409 -56.33672992 18.45370768 -141.6875 90.3125 Z " fill="#000000" transform="translate(255.6875,111.6875)"/>
<path d="M0 0 C15.70355768 13.57292423 25.64259356 31.48093823 28.5625 52.125 C30.29188717 76.14553885 27.34815872 99.2009989 11.328125 118.1796875 C10.74546875 118.82164062 10.1628125 119.46359375 9.5625 120.125 C8.95921875 120.80820312 8.3559375 121.49140625 7.734375 122.1953125 C-5.3701149 136.20539723 -24.42487188 143.7015971 -43.3515625 144.51171875 C-66.93658505 145.06913546 -88.36765164 141.42181522 -106.4375 125.125 C-107.02402344 124.63 -107.61054688 124.135 -108.21484375 123.625 C-120.37711805 112.59345869 -128.01588613 95.16426067 -130.4375 79.125 C-130.54707031 78.42632812 -130.65664062 77.72765625 -130.76953125 77.0078125 C-133.75294333 54.6521113 -128.86648536 31.38349203 -115.4375 13.125 C-103.50981239 -1.99490781 -87.21055057 -12.48028426 -68.02197266 -15.57763672 C-43.46920644 -18.40261964 -19.99403428 -15.26592416 0 0 Z M-87.4375 31.125 C-97.58379774 44.33878311 -100.02411861 57.8456681 -98.4375 74.125 C-96.2380371 86.00730548 -89.79414439 96.21612852 -80.12890625 103.40234375 C-67.27479239 111.62972287 -53.13678157 112.92816597 -38.21875 110.62890625 C-25.95604094 107.19457159 -16.47893402 99.95611196 -10.015625 89.08203125 C-3.31272226 76.52238429 -1.86069893 61.30641306 -6 47.5625 C-11.6305195 33.6529588 -20.17706357 25.01248707 -33.89453125 19.03515625 C-51.63681596 12.68499905 -74.56983676 17.09835554 -87.4375 31.125 Z " fill="#000000" transform="translate(307.4375,191.875)"/>
</svg>
