<?xml version="1.0" encoding="UTF-8"?>
<svg version="1.1" xmlns="http://www.w3.org/2000/svg" width="512" height="512">
<path d="M0 0 C0.99456207 0.00215515 1.98912415 0.0043103 3.01382446 0.00653076 C17.49665106 0.05689771 31.63989867 0.41615797 45.875 3.3125 C46.87305664 3.50585938 47.87111328 3.69921875 48.89941406 3.8984375 C87.51614041 11.5299223 123.64162976 27.2516138 154.875 51.3125 C155.68710937 51.93253906 156.49921875 52.55257812 157.3359375 53.19140625 C174.40108372 66.51514029 190.76144896 82.13175144 203.60107422 99.59423828 C204.89750666 101.34285682 206.22788718 103.06078803 207.56640625 104.77734375 C215.43067241 114.9920598 221.8161092 125.94975258 227.875 137.3125 C228.53846436 138.55314209 228.53846436 138.55314209 229.21533203 139.81884766 C240.73204842 161.72199262 248.4030584 186.01309889 252.875 210.3125 C253.03581055 211.11316895 253.19662109 211.91383789 253.36230469 212.73876953 C258.8544441 240.81662453 258.60896692 274.30227935 252.875 302.3125 C252.68164062 303.30910645 252.48828125 304.30571289 252.2890625 305.33251953 C244.17028127 346.42132055 226.80084885 383.51549494 200.875 416.3125 C200.06289063 417.35019531 199.25078125 418.38789063 198.4140625 419.45703125 C185.74907313 435.01858759 171.19874403 449.61464417 154.875 461.3125 C153.52974408 462.30180622 152.18470229 463.29140366 150.83984375 464.28125 C115.66613227 489.89565441 75.03560925 505.77286752 31.875 511.3125 C31.20779434 511.39982895 30.54058868 511.4871579 29.85316467 511.57713318 C24.1367952 512.27337492 18.49757373 512.48706148 12.7421875 512.515625 C11.7958847 512.52268463 10.84958191 512.52974426 9.87460327 512.53701782 C-29.27050628 512.76278019 -29.27050628 512.76278019 -46.125 509.3125 C-47.61990967 509.02246094 -47.61990967 509.02246094 -49.14501953 508.7265625 C-90.23382055 500.60778127 -127.32799494 483.23834885 -160.125 457.3125 C-161.16269531 456.50039063 -162.20039063 455.68828125 -163.26953125 454.8515625 C-178.83623494 442.18238389 -193.40286525 427.62451036 -205.125 411.3125 C-205.9887527 410.14261544 -206.85335469 408.9733575 -207.71875 407.8046875 C-222.86207742 387.1786757 -234.9442165 364.56952873 -243.125 340.3125 C-243.53806396 339.08998535 -243.53806396 339.08998535 -243.95947266 337.84277344 C-247.19755506 328.07192323 -249.72985473 318.19031263 -251.875 308.125 C-252.07375732 307.20033936 -252.27251465 306.27567871 -252.47729492 305.32299805 C-255.74524933 289.23816285 -256.53180453 273.37243171 -256.5 257 C-256.49978851 255.99181213 -256.49957703 254.98362427 -256.49935913 253.94488525 C-256.4648349 237.40434051 -255.51158188 221.54694429 -252.125 205.3125 C-251.94308105 204.42143555 -251.76116211 203.53037109 -251.57373047 202.61230469 C-250.34017499 196.7675226 -248.82865672 191.03678658 -247.125 185.3125 C-246.85204102 184.39082031 -246.57908203 183.46914062 -246.29785156 182.51953125 C-236.33053959 149.52277251 -220.3352562 118.88994761 -198.01171875 92.55859375 C-196.15134983 90.39971506 -196.15134983 90.39971506 -194.70703125 88.34765625 C-192.48262332 85.2881955 -191.38342764 84.37249213 -187.625 83.5 C-185.8925 83.4071875 -185.8925 83.4071875 -184.125 83.3125 C-179.6476647 82.9848901 -177.29186244 81.31196644 -174.2734375 78.125 C-172.26636962 74.95738267 -172.9498493 71.99066478 -173.125 68.3125 C-170.96082705 63.45708614 -167.30980607 60.61179167 -163.25 57.375 C-162.55310059 56.81578857 -161.85620117 56.25657715 -161.13818359 55.68041992 C-114.85466195 19.21354107 -58.88277009 -0.22974926 0 0 Z " fill="#EBF3FE" transform="translate(256.125,-0.3125)"/>
<path d="M0 0 C0.99456207 0.00215515 1.98912415 0.0043103 3.01382446 0.00653076 C17.49665106 0.05689771 31.63989867 0.41615797 45.875 3.3125 C46.87305664 3.50585938 47.87111328 3.69921875 48.89941406 3.8984375 C87.51614041 11.5299223 123.64162976 27.2516138 154.875 51.3125 C155.68710937 51.93253906 156.49921875 52.55257812 157.3359375 53.19140625 C174.40108372 66.51514029 190.76144896 82.13175144 203.60107422 99.59423828 C204.89750666 101.34285682 206.22788718 103.06078803 207.56640625 104.77734375 C215.43067241 114.9920598 221.8161092 125.94975258 227.875 137.3125 C228.53846436 138.55314209 228.53846436 138.55314209 229.21533203 139.81884766 C240.73204842 161.72199262 248.4030584 186.01309889 252.875 210.3125 C253.03581055 211.11316895 253.19662109 211.91383789 253.36230469 212.73876953 C258.8544441 240.81662453 258.60896692 274.30227935 252.875 302.3125 C252.68164062 303.30910645 252.48828125 304.30571289 252.2890625 305.33251953 C244.17028127 346.42132055 226.80084885 383.51549494 200.875 416.3125 C200.06289063 417.35019531 199.25078125 418.38789063 198.4140625 419.45703125 C185.74907313 435.01858759 171.19874403 449.61464417 154.875 461.3125 C153.52974408 462.30180622 152.18470229 463.29140366 150.83984375 464.28125 C115.66613227 489.89565441 75.03560925 505.77286752 31.875 511.3125 C31.20779434 511.39982895 30.54058868 511.4871579 29.85316467 511.57713318 C24.1367952 512.27337492 18.49757373 512.48706148 12.7421875 512.515625 C11.7958847 512.52268463 10.84958191 512.52974426 9.87460327 512.53701782 C-29.27050628 512.76278019 -29.27050628 512.76278019 -46.125 509.3125 C-47.61990967 509.02246094 -47.61990967 509.02246094 -49.14501953 508.7265625 C-90.23382055 500.60778127 -127.32799494 483.23834885 -160.125 457.3125 C-161.16269531 456.50039063 -162.20039063 455.68828125 -163.26953125 454.8515625 C-178.83623494 442.18238389 -193.40286525 427.62451036 -205.125 411.3125 C-205.9887527 410.14261544 -206.85335469 408.9733575 -207.71875 407.8046875 C-222.86207742 387.1786757 -234.9442165 364.56952873 -243.125 340.3125 C-243.53806396 339.08998535 -243.53806396 339.08998535 -243.95947266 337.84277344 C-247.19755506 328.07192323 -249.72985473 318.19031263 -251.875 308.125 C-252.07375732 307.20033936 -252.27251465 306.27567871 -252.47729492 305.32299805 C-255.74524933 289.23816285 -256.53180453 273.37243171 -256.5 257 C-256.49978851 255.99181213 -256.49957703 254.98362427 -256.49935913 253.94488525 C-256.4648349 237.40434051 -255.51158188 221.54694429 -252.125 205.3125 C-251.94308105 204.42143555 -251.76116211 203.53037109 -251.57373047 202.61230469 C-250.34017499 196.7675226 -248.82865672 191.03678658 -247.125 185.3125 C-246.85204102 184.39082031 -246.57908203 183.46914062 -246.29785156 182.51953125 C-236.33053959 149.52277251 -220.3352562 118.88994761 -198.01171875 92.55859375 C-196.15134983 90.39971506 -196.15134983 90.39971506 -194.70703125 88.34765625 C-192.48262332 85.2881955 -191.38342764 84.37249213 -187.625 83.5 C-185.8925 83.4071875 -185.8925 83.4071875 -184.125 83.3125 C-179.6476647 82.9848901 -177.29186244 81.31196644 -174.2734375 78.125 C-172.26636962 74.95738267 -172.9498493 71.99066478 -173.125 68.3125 C-170.96082705 63.45708614 -167.30980607 60.61179167 -163.25 57.375 C-162.55310059 56.81578857 -161.85620117 56.25657715 -161.13818359 55.68041992 C-114.85466195 19.21354107 -58.88277009 -0.22974926 0 0 Z M-37.125 51.3125 C-38.00236816 51.47878906 -38.87973633 51.64507812 -39.78369141 51.81640625 C-60.02523126 55.71804163 -79.01868601 62.47794181 -97.125 72.3125 C-97.78693359 72.66425293 -98.44886719 73.01600586 -99.13085938 73.37841797 C-147.85296362 99.31303087 -183.83124553 144.64151858 -200.109375 197.18286133 C-202.65956462 205.78532387 -204.56695178 214.48031415 -206.125 223.3125 C-206.351875 224.55902344 -206.57875 225.80554688 -206.8125 227.08984375 C-210.23894026 250.14693133 -209.40324059 274.66256219 -204.125 297.3125 C-203.84414551 298.58988037 -203.84414551 298.58988037 -203.55761719 299.89306641 C-196.02829367 334.0351025 -181.2748136 365.75561297 -157.7421875 391.8125 C-155.73222241 394.91969242 -155.7473998 396.67204676 -156.125 400.3125 C-156.36992187 400.99699219 -156.61484375 401.68148438 -156.8671875 402.38671875 C-157.36447954 404.51251851 -157.36447954 404.51251851 -155.5703125 406.70703125 C-151.43192226 411.45791652 -151.43192226 411.45791652 -145.80078125 413.4609375 C-144.29323171 413.15048227 -142.78799062 412.82862485 -141.28515625 412.49609375 C-138.50954866 412.2601922 -137.68126866 412.87119233 -135.5 414.5625 C-134.04002885 415.81058667 -132.58199899 417.06094495 -131.125 418.3125 C-128.75793624 420.14352951 -126.35096776 421.91825136 -123.9375 423.6875 C-123.28700684 424.16517822 -122.63651367 424.64285645 -121.96630859 425.13500977 C-115.89270472 429.55415255 -109.63331953 433.5591885 -103.125 437.3125 C-101.42150391 438.29669922 -101.42150391 438.29669922 -99.68359375 439.30078125 C-85.39574157 447.33465202 -70.02188685 453.34724944 -54.125 457.3125 C-53.49625977 457.4770166 -52.86751953 457.6415332 -52.21972656 457.81103516 C-20.63924918 466.06590271 10.8861439 466.53987325 42.875 460.3125 C43.64118652 460.16828613 44.40737305 460.02407227 45.19677734 459.87548828 C63.89566007 456.2276807 82.20417452 448.39985976 98.875 439.3125 C99.46394043 438.99990234 100.05288086 438.68730469 100.65966797 438.36523438 C144.44215567 415.08206172 177.85903379 374.52861757 195.08349609 328.40966797 C195.72063669 326.72150088 196.39545367 325.04757862 197.08203125 323.37890625 C215.70080373 277.017421 210.87437527 220.16856926 191.86376953 174.90478516 C184.6149805 158.18018985 175.30552415 142.51761291 163.875 128.3125 C163.06933594 127.30316406 162.26367188 126.29382813 161.43359375 125.25390625 C137.09119709 95.33909815 106.01626687 73.56575106 69.875 60.3125 C68.74626465 59.88710938 68.74626465 59.88710938 67.59472656 59.453125 C55.27672234 54.84135123 42.8522779 52.31384976 29.875 50.3125 C28.80580322 50.13372314 27.73660645 49.95494629 26.63500977 49.77075195 C17.8361127 48.37661518 9.2121363 47.9512008 0.3125 48 C-0.38365417 48.00182281 -1.07980835 48.00364563 -1.79705811 48.00552368 C-13.78434817 48.05805299 -25.35780204 48.96874914 -37.125 51.3125 Z " fill="#C5C2C6" transform="translate(256.125,-0.3125)"/>
<path d="M0 0 C0.99456207 0.00215515 1.98912415 0.0043103 3.01382446 0.00653076 C17.49665106 0.05689771 31.63989867 0.41615797 45.875 3.3125 C46.87305664 3.50585938 47.87111328 3.69921875 48.89941406 3.8984375 C87.51614041 11.5299223 123.64162976 27.2516138 154.875 51.3125 C155.68710937 51.93253906 156.49921875 52.55257812 157.3359375 53.19140625 C174.40108372 66.51514029 190.76144896 82.13175144 203.60107422 99.59423828 C204.89750666 101.34285682 206.22788718 103.06078803 207.56640625 104.77734375 C215.43067241 114.9920598 221.8161092 125.94975258 227.875 137.3125 C228.53846436 138.55314209 228.53846436 138.55314209 229.21533203 139.81884766 C240.73204842 161.72199262 248.4030584 186.01309889 252.875 210.3125 C253.03581055 211.11316895 253.19662109 211.91383789 253.36230469 212.73876953 C258.8544441 240.81662453 258.60896692 274.30227935 252.875 302.3125 C252.68164062 303.30910645 252.48828125 304.30571289 252.2890625 305.33251953 C244.17028127 346.42132055 226.80084885 383.51549494 200.875 416.3125 C200.06289063 417.35019531 199.25078125 418.38789063 198.4140625 419.45703125 C185.74907313 435.01858759 171.19874403 449.61464417 154.875 461.3125 C153.52974408 462.30180622 152.18470229 463.29140366 150.83984375 464.28125 C115.66613227 489.89565441 75.03560925 505.77286752 31.875 511.3125 C31.20779434 511.39982895 30.54058868 511.4871579 29.85316467 511.57713318 C24.1367952 512.27337492 18.49757373 512.48706148 12.7421875 512.515625 C11.7958847 512.52268463 10.84958191 512.52974426 9.87460327 512.53701782 C-29.27050628 512.76278019 -29.27050628 512.76278019 -46.125 509.3125 C-47.61990967 509.02246094 -47.61990967 509.02246094 -49.14501953 508.7265625 C-90.23382055 500.60778127 -127.32799494 483.23834885 -160.125 457.3125 C-161.16269531 456.50039063 -162.20039063 455.68828125 -163.26953125 454.8515625 C-178.83623494 442.18238389 -193.40286525 427.62451036 -205.125 411.3125 C-205.9887527 410.14261544 -206.85335469 408.9733575 -207.71875 407.8046875 C-222.86207742 387.1786757 -234.9442165 364.56952873 -243.125 340.3125 C-243.53806396 339.08998535 -243.53806396 339.08998535 -243.95947266 337.84277344 C-247.19755506 328.07192323 -249.72985473 318.19031263 -251.875 308.125 C-252.07375732 307.20033936 -252.27251465 306.27567871 -252.47729492 305.32299805 C-255.74524933 289.23816285 -256.53180453 273.37243171 -256.5 257 C-256.49978851 255.99181213 -256.49957703 254.98362427 -256.49935913 253.94488525 C-256.4648349 237.40434051 -255.51158188 221.54694429 -252.125 205.3125 C-251.94308105 204.42143555 -251.76116211 203.53037109 -251.57373047 202.61230469 C-250.34017499 196.7675226 -248.82865672 191.03678658 -247.125 185.3125 C-246.85204102 184.39082031 -246.57908203 183.46914062 -246.29785156 182.51953125 C-236.33053959 149.52277251 -220.3352562 118.88994761 -198.01171875 92.55859375 C-196.15134983 90.39971506 -196.15134983 90.39971506 -194.70703125 88.34765625 C-192.44926152 85.24230953 -191.29487448 84.35643306 -187.5 83.375 C-184.125 83.3125 -184.125 83.3125 -181.125 84.3125 C-178.65819462 88.01270807 -178.37904329 91.01859961 -179.125 95.3125 C-181.0390625 98.234375 -181.0390625 98.234375 -183.75 101.0625 C-213.93184322 134.30576516 -230.74940541 177.56181392 -238.125 221.3125 C-238.25777344 222.09334961 -238.39054687 222.87419922 -238.52734375 223.67871094 C-243.31134197 253.36368865 -241.14162476 286.36099914 -233.125 315.3125 C-232.8662207 316.26237793 -232.60744141 317.21225586 -232.34082031 318.19091797 C-218.72268134 367.31623848 -190.76245665 412.8630988 -150.125 444.3125 C-149.5774707 444.73644043 -149.02994141 445.16038086 -148.46582031 445.59716797 C-138.4759786 453.27324792 -128.00768651 459.97739143 -117.125 466.3125 C-116.51253418 466.6744043 -115.90006836 467.03630859 -115.26904297 467.40917969 C-97.94004013 477.56270252 -78.61941204 484.66006718 -59.125 489.3125 C-58.4139209 489.48974609 -57.7028418 489.66699219 -56.97021484 489.84960938 C-51.71574854 491.15527178 -46.44268535 492.29512757 -41.125 493.3125 C-40.33270996 493.46493164 -39.54041992 493.61736328 -38.72412109 493.77441406 C-13.1828499 498.46432426 13.33394912 497.33841299 38.875 493.3125 C39.60847656 493.20566895 40.34195312 493.09883789 41.09765625 492.98876953 C66.91624107 489.20179502 91.95552412 479.57359691 114.875 467.3125 C116.03128906 466.69890625 117.18757813 466.0853125 118.37890625 465.453125 C173.02217738 435.36513498 212.96053998 382.94314491 230.57568359 323.50292969 C232.69344731 316.15427725 234.54217299 308.84751634 235.875 301.3125 C236.04128906 300.4870166 236.20757812 299.6615332 236.37890625 298.81103516 C245.77627791 251.8488203 238.97573887 202.98339363 219.875 159.3125 C219.41770508 158.23959717 219.41770508 158.23959717 218.95117188 157.14501953 C199.19253214 111.04508308 162.08780582 71.87018258 118.66650391 47.32568359 C116.90885012 46.33164391 115.16324571 45.31639439 113.41796875 44.30078125 C65.75899128 17.18755776 7.2566261 9.76798127 -46.125 20.3125 C-47.7265452 20.60426167 -49.32810643 20.89593531 -50.9296875 21.1875 C-87.59645608 28.25874722 -124.9920985 46.1740138 -153.04296875 70.8828125 C-160.99630531 77.88174868 -160.99630531 77.88174868 -165.625 78 C-169.125 77.3125 -169.125 77.3125 -172.125 75.3125 C-173.06991615 71.73531743 -173.60854571 69.38625592 -172.0625 65.953125 C-169.52820573 62.49912716 -166.58687791 60.03541738 -163.25 57.375 C-162.55310059 56.81578857 -161.85620117 56.25657715 -161.13818359 55.68041992 C-114.85466195 19.21354107 -58.88277009 -0.22974926 0 0 Z " fill="#010101" transform="translate(256.125,-0.3125)"/>
<path d="M0 0 C0.90347168 0.15597656 1.80694336 0.31195313 2.73779297 0.47265625 C44.98750506 8.036006 83.99722592 26.3738658 115.51171875 55.69921875 C117.67179288 57.69652435 119.87547945 59.60543338 122.125 61.5 C136.59081997 74.15027171 148.09202078 90.66562091 158 107 C158.63784424 108.04099854 158.63784424 108.04099854 159.28857422 109.10302734 C185.044005 151.61285601 195.25637901 205.97151576 187 255 C186.86577637 255.80050781 186.73155273 256.60101563 186.59326172 257.42578125 C184.60135178 268.914006 181.88323812 280.00787054 178 291 C177.72172363 291.79486816 177.44344727 292.58973633 177.15673828 293.40869141 C166.81915419 322.58762672 151.76787825 348.82822418 130.4609375 371.38671875 C128.33563966 373.64358265 126.31275364 375.94568404 124.3125 378.3125 C120.85717715 382.28123167 117.03211983 385.63069439 113 389 C112.1028125 389.7734375 111.205625 390.546875 110.28125 391.34375 C64.28827114 430.55881618 5.01536551 448.15854397 -54.8984375 443.5390625 C-99.18118155 439.36132041 -140.34629723 421.59150749 -175 394 C-175.65178223 393.48252197 -176.30356445 392.96504395 -176.97509766 392.43188477 C-177.60593262 391.91424561 -178.23676758 391.39660645 -178.88671875 390.86328125 C-179.45479248 390.39962158 -180.02286621 389.93596191 -180.6081543 389.45825195 C-182 388 -182 388 -183.25 384.4375 C-183 381 -183 381 -181 378 C-178 376 -178 376 -174.7421875 376.0390625 C-170.0926148 377.23300288 -167.66369718 379.25537175 -164.125 382.375 C-142.17469374 400.76065592 -115.77489415 414.07195078 -88 421 C-87.37125977 421.1645166 -86.74251953 421.3290332 -86.09472656 421.49853516 C-54.51424918 429.75340271 -22.9888561 430.22737325 9 424 C10.14927979 423.7836792 10.14927979 423.7836792 11.32177734 423.56298828 C30.02066007 419.9151807 48.32917452 412.08735976 65 403 C65.58894043 402.68740234 66.17788086 402.37480469 66.78466797 402.05273438 C110.24358197 378.9416356 143.11497522 338.86551845 160.20849609 293.09716797 C160.84563669 291.40900088 161.52045367 289.73507862 162.20703125 288.06640625 C180.82580373 241.704921 175.99937527 184.85606926 156.98876953 139.59228516 C149.74046778 122.86881412 140.43228701 107.20256816 129 93 C128.18273437 91.9790625 127.36546875 90.958125 126.5234375 89.90625 C102.46576391 60.40733513 71.66515556 39.07865777 36 26 C35.24750977 25.71640625 34.49501953 25.4328125 33.71972656 25.140625 C21.40172234 20.52885123 8.9772779 18.00134976 -4 16 C-5.06919678 15.82122314 -6.13839355 15.64244629 -7.23999023 15.45825195 C-16.0388873 14.06411518 -24.6628637 13.6387008 -33.5625 13.6875 C-34.25865417 13.68932281 -34.95480835 13.69114563 -35.67205811 13.69302368 C-47.65934817 13.74555299 -59.23280204 14.65624914 -71 17 C-71.87736816 17.16628906 -72.75473633 17.33257812 -73.65869141 17.50390625 C-93.90023126 21.40554163 -112.89368601 28.16544181 -131 38 C-131.66193359 38.35175293 -132.32386719 38.70350586 -133.00585938 39.06591797 C-181.40282338 64.82745981 -216.81779956 109.68908441 -232.984375 161.87036133 C-235.53456462 170.47282387 -237.44195178 179.16781415 -239 188 C-239.226875 189.24652344 -239.45375 190.49304688 -239.6875 191.77734375 C-243.11394026 214.83443133 -242.27824059 239.35006219 -237 262 C-236.81276367 262.85158691 -236.62552734 263.70317383 -236.43261719 264.58056641 C-228.90329367 298.7226025 -214.1498136 330.44311297 -190.6171875 356.5 C-188.61014531 359.60267392 -188.53061111 361.36841224 -189 365 C-191.0625 367.9375 -191.0625 367.9375 -194 370 C-198.45373576 369.98440933 -200.42566871 369.51447141 -203.7734375 366.515625 C-204.66127552 365.44385974 -205.52764382 364.3540492 -206.375 363.25 C-207.07870728 362.37263184 -207.07870728 362.37263184 -207.79663086 361.47753906 C-236.80635038 324.82851152 -255.61506468 279.00191327 -257 232 C-257.02723145 231.13729492 -257.05446289 230.27458984 -257.08251953 229.38574219 C-258.63936236 171.36152462 -239.79834484 114.90398614 -199.96484375 72.1171875 C-198.13692837 70.14754508 -196.41220825 68.12222352 -194.6875 66.0625 C-181.58512843 51.13952555 -164.86347055 39.29302304 -148 29 C-147.06542969 28.40960938 -146.13085938 27.81921875 -145.16796875 27.2109375 C-103.30747867 1.56772819 -48.21520268 -8.33424103 0 0 Z " fill="#030304" transform="translate(290,35)"/>
<path d="M0 0 C2.70552388 2.19823815 4.44778333 3.89556667 6 7 C5.98025576 16.16132803 1.87065859 23.85055571 -1.875 32 C-2.59272189 33.58617031 -3.30949715 35.17276925 -4.02539062 36.75976562 C-10.2126813 50.43436061 -16.55299745 64.04055642 -22.8984375 77.64233398 C-26.87045783 86.16759775 -30.78929252 94.71141202 -34.5859375 103.31640625 C-34.95136658 104.144216 -35.31679565 104.97202576 -35.69329834 105.82492065 C-37.41854094 109.73951386 -39.13430413 113.65796729 -40.83789062 117.58203125 C-42.01568157 120.28738907 -43.21848445 122.97820266 -44.45605469 125.65673828 C-45.34354075 127.57850206 -46.20497024 129.51384199 -46.98925781 131.47998047 C-50.32266587 138.50941964 -58.09931516 141.01929982 -64.82299805 144.02587891 C-66.89366834 144.95242085 -68.94922763 145.90555344 -71.00195312 146.87109375 C-75.07042683 148.77899965 -79.15858189 150.64192049 -83.25 152.5 C-84.76808856 153.19192731 -86.2861544 153.88390447 -87.80419922 154.57592773 C-100.03279507 160.14175512 -112.30327786 165.61269245 -124.59594727 171.03540039 C-132.19189388 174.39043298 -139.75833197 177.79703882 -147.28515625 181.3046875 C-148.79599437 182.00527108 -150.30689832 182.70571272 -151.81787109 183.40600586 C-154.65441697 184.72105763 -157.48262309 186.0521447 -160.30712891 187.39282227 C-166.88020184 190.46883753 -172.65160157 193.02272701 -180 193 C-183.48457742 191.35274522 -185.32782871 190.02286935 -187.4375 186.8125 C-188.91232375 179.43838125 -186.51219615 172.97468636 -183.30859375 166.41796875 C-182.74368225 165.21952583 -182.74368225 165.21952583 -182.1673584 163.99687195 C-181.35746862 162.2819066 -180.54173304 160.56969177 -179.72067261 158.86004639 C-177.51657414 154.2694283 -175.35577868 149.65839528 -173.1875 145.05078125 C-172.52547829 143.64892578 -172.52547829 143.64892578 -171.8500824 142.21875 C-168.07701315 134.21429113 -164.45631453 126.14880324 -160.89398193 118.04876709 C-155.17862241 105.05964517 -149.39583348 92.09976071 -143.5071106 79.18829346 C-142.71849188 77.45488354 -141.93380062 75.71968077 -141.15328979 73.98260498 C-140.06735889 71.56798252 -138.96720115 69.16034704 -137.86328125 66.75390625 C-137.38766251 65.68459114 -137.38766251 65.68459114 -136.9024353 64.59367371 C-133.53688462 57.34314578 -128.93641332 53.56824571 -121.73046875 50.16796875 C-120.68163765 49.65885201 -120.68163765 49.65885201 -119.61161804 49.13945007 C-117.4140723 48.07902404 -115.20891486 47.03651486 -113 46 C-112.31407776 45.67743225 -111.62815552 45.3548645 -110.92144775 45.02252197 C-106.06823173 42.7494636 -101.19274602 40.52678293 -96.3125 38.3125 C-94.77319982 37.61141122 -93.23397603 36.91015468 -91.69482422 36.20874023 C-81.21446459 31.43761922 -70.70938336 26.72293025 -60.19311523 22.03149414 C-48.06536131 16.60877452 -36.00265369 11.04502718 -23.94384766 5.47094727 C-23.17135681 5.11454666 -22.39886597 4.75814606 -21.60296631 4.39094543 C-20.14827935 3.71976452 -18.69418549 3.04729613 -17.24078369 2.37333679 C-11.012662 -0.4984376 -6.71947663 -1.75649477 0 0 Z " fill="#030303" transform="translate(347,160)"/>
<path d="M0 0 C52.23666554 17.724441 97.08521446 58.61534921 123.99121094 106.21728516 C124.97118841 107.94908464 125.97356727 109.66814787 126.9765625 111.38671875 C136.63532236 128.3363774 143.47979004 147.05962216 148 166 C148.17724609 166.7110791 148.35449219 167.4221582 148.53710938 168.15478516 C149.84282562 173.40946813 150.97345256 178.68402962 152 184 C152.22864746 185.14855469 152.22864746 185.14855469 152.46191406 186.3203125 C162.42477082 238.48006363 150.77799742 293.68287859 126 340 C125.38640625 341.15628906 124.7728125 342.31257813 124.140625 343.50390625 C99.74523371 387.80875943 60.49803775 422.57970385 15 444 C14.26942383 444.34401855 13.53884766 444.68803711 12.78613281 445.04248047 C10.5932552 446.06458444 8.39286598 447.06766225 6.1875 448.0625 C5.51146729 448.37396973 4.83543457 448.68543945 4.13891602 449.00634766 C-0.64896873 451.11701042 -0.64896873 451.11701042 -4 450 C-3.4738208 449.74009277 -2.9476416 449.48018555 -2.40551758 449.21240234 C15.51081998 440.28615448 32.77493172 430.09305707 48 417 C49.09167322 416.09021544 50.18419011 415.18144271 51.27734375 414.2734375 C63.02475633 404.44630606 73.52393145 394.05748033 83 382 C83.85759455 380.9542665 84.71704411 379.91005214 85.578125 378.8671875 C125.84031994 329.62152663 144.10363131 263.90261851 138.12036133 200.88037109 C131.68908595 142.58578142 106.31769759 91.22905511 66 49 C65.36707031 48.32582031 64.73414063 47.65164062 64.08203125 46.95703125 C59.13176599 41.81863239 53.56832724 37.44470565 48 33 C46.94848966 32.13500011 45.8977252 31.26909285 44.84765625 30.40234375 C31.05127033 19.13836111 15.85282064 10.05673994 0 2 C0 1.34 0 0.68 0 0 Z " fill="#B3AFB4" transform="translate(342,31)"/>
<path d="M0 0 C18.82282182 5.37794909 36.82809307 16.86649883 52 29 C53.01320313 29.80824219 54.02640625 30.61648437 55.0703125 31.44921875 C97.01515916 65.60078557 125.31998431 115.45033139 131.25 169.4375 C133.34596451 191.91683062 132.07947504 213.82175588 128 236 C127.85578613 236.78761719 127.71157227 237.57523438 127.56298828 238.38671875 C123.95170436 257.05158497 116.06642529 275.36757895 107 292 C106.53110352 292.88341064 106.53110352 292.88341064 106.05273438 293.78466797 C82.92205216 337.28040735 42.68575789 370.53531787 -3 388 C-3.33 387.34 -3.66 386.68 -4 386 C-2.88625 385.40574219 -1.7725 384.81148438 -0.625 384.19921875 C19.27355476 373.44745635 36.55112546 360.49859568 53 345 C54.17369141 343.90751953 54.17369141 343.90751953 55.37109375 342.79296875 C91.2783869 308.29380475 113.99065138 254.76671844 115.2638092 205.22029114 C115.32668898 201.2714255 115.33100669 197.32424831 115.3125 193.375 C115.31034485 192.54272888 115.3081897 191.71045776 115.30596924 190.85296631 C115.25150872 177.70720456 114.70643174 164.90479179 112 152 C111.80132324 151.04561035 111.60264648 150.0912207 111.39794922 149.10791016 C106.98116347 128.60542229 99.90530171 109.46265577 90 91 C89.65888184 90.34725098 89.31776367 89.69450195 88.96630859 89.02197266 C83.30463083 78.20756162 76.61649735 68.52809861 69 59 C68.31550781 58.13979248 68.31550781 58.13979248 67.6171875 57.26220703 C56.58921945 43.52158456 44.21971109 31.4058695 30 21 C28.95328125 20.23171875 27.9065625 19.4634375 26.828125 18.671875 C19.91897125 13.75640741 12.78042203 9.41252874 5.38354492 5.27319336 C3.55798521 4.23490758 1.7741019 3.12395199 0 2 C0 1.34 0 0.68 0 0 Z " fill="#DAE7F7" transform="translate(332,63)"/>
<path d="M0 0 C6.44690639 5.31014254 12.29949437 11.17126884 18.18359375 17.0859375 C19.24954109 18.15375345 20.31571205 19.22134622 21.38209534 20.28872681 C24.16750139 23.07792318 26.94988929 25.870111 29.73162842 28.66296387 C32.57901064 31.52063575 35.42927986 34.37542502 38.27929688 37.23046875 C43.85567081 42.81751842 49.42885494 48.40773634 55 54 C53.46187551 57.07624898 50.50016542 57.72886126 47.46875 59.02734375 C46.43935303 59.47835449 46.43935303 59.47835449 45.38916016 59.93847656 C43.88777615 60.59602066 42.38519364 61.25083315 40.8815918 61.90328979 C36.78922344 63.68040757 32.70691826 65.4802843 28.625 67.28125 C27.76491333 67.66047104 26.90482666 68.03969208 26.01867676 68.43040466 C14.44452073 73.55023037 2.98255343 78.91310878 -8.48632812 84.26342773 C-17.0048726 88.23570924 -25.53498175 92.1814241 -34.09375 96.06640625 C-34.95560913 96.46069321 -35.81746826 96.85498016 -36.70544434 97.26121521 C-37.50067505 97.62046585 -38.29590576 97.97971649 -39.11523438 98.34985352 C-39.81853882 98.66922379 -40.52184326 98.98859406 -41.24645996 99.31764221 C-43 100 -43 100 -45 100 C-43.10387503 93.91673131 -40.84370466 88.17146917 -38.11328125 82.41796875 C-37.73900497 81.61787384 -37.3647287 80.81777893 -36.97911072 79.99343872 C-36.17697454 78.2790929 -35.37280861 76.56569556 -34.56677246 74.85317993 C-32.41980061 70.29026402 -30.28891529 65.7198734 -28.16015625 61.1484375 C-27.72726288 60.21902847 -27.29436951 59.28961945 -26.84835815 58.33204651 C-21.8657317 47.60394218 -17.08354455 36.78792613 -12.34106445 25.9519043 C-8.48167192 17.1611969 -4.38143415 8.54413182 0 0 Z " fill="#C1DBFD" transform="translate(223,234)"/>
<path d="M0 0 C2.0546875 1.86328125 2.0546875 1.86328125 3.875 4.3125 C4.56335938 5.23289062 5.25171875 6.15328125 5.9609375 7.1015625 C8.53951959 10.76690333 11.03478271 14.47642131 13.48828125 18.2265625 C17.39662108 24.15269637 21.5063302 29.94343848 25.57421875 35.76049805 C32.1156531 45.12836616 38.55762389 54.56384487 45 64 C45.00142502 63.27194656 45.00285004 62.54389313 45.00431824 61.79377747 C45.02216959 54.92261456 45.06384612 48.05196161 45.13209057 41.18112659 C45.16633916 37.64890413 45.19146704 34.11711314 45.19555664 30.5847168 C45.20066532 26.52080162 45.24579176 22.45817739 45.29296875 18.39453125 C45.2890361 17.1297847 45.28510345 15.86503815 45.28105164 14.56196594 C45.44357626 4.79178219 45.44357626 4.79178219 48.3527832 1.69799805 C51.60655189 -0.38905915 53.20662617 -0.72639073 57 0 C59.30275556 1.8670991 60.67823871 3.35647741 62 6 C62.11383694 8.59210669 62.16782172 11.15797456 62.17700195 13.75097656 C62.18357315 14.55117722 62.19014435 15.35137787 62.19691467 16.17582703 C62.21666588 18.83076059 62.22831508 21.48563751 62.23828125 24.140625 C62.24439454 25.50019444 62.24439454 25.50019444 62.25063133 26.88722992 C62.27150112 31.68572259 62.28579817 36.48418659 62.29516602 41.28271484 C62.30622469 46.23710198 62.34061566 51.19103927 62.38033772 56.14526749 C62.40649762 59.95602243 62.41485736 63.76667018 62.41844749 67.57750702 C62.42331608 69.40353174 62.43493784 71.22955158 62.45348549 73.05548859 C62.47786108 75.61450182 62.47691492 78.17235127 62.4699707 80.73144531 C62.48278076 81.48284286 62.49559082 82.23424042 62.50878906 83.00840759 C62.45820921 88.1345047 61.24481397 91.05828073 58 95 C55.14675563 96.42662219 53.16545451 96.31033868 50 96 C45.08183528 92.84184741 42.33962959 88.47301031 39.1875 83.6875 C38.03757775 81.97320692 36.88648298 80.25969991 35.734375 78.546875 C35.12916016 77.64388672 34.52394531 76.74089844 33.90039062 75.81054688 C30.03282061 70.09067715 26.05119018 64.44913947 22.0847168 58.79760742 C15.9118289 49.96181032 9.95758456 40.98180159 4 32 C3.99635437 32.7553302 3.99270874 33.5106604 3.98895264 34.28887939 C3.95107077 41.41053567 3.89421699 48.53166894 3.81609726 55.65298843 C3.77660357 59.31408723 3.74442479 62.97494485 3.72900391 66.63623047 C3.71384913 70.17026922 3.67942639 73.70364501 3.63169098 77.23738861 C3.60965376 79.24028962 3.60752524 81.24337756 3.60565186 83.24639893 C3.57607391 85.07784454 3.57607391 85.07784454 3.54589844 86.94628906 C3.53701599 88.02106506 3.52813354 89.09584106 3.51898193 90.20318604 C2.87404348 93.67878464 1.77479955 94.87011858 -1 97 C-4 97.5 -4 97.5 -7 97 C-9.30275556 95.1329009 -10.67823871 93.64352259 -12 91 C-12.11398442 88.31111396 -12.16783662 85.64753015 -12.17700195 82.95776367 C-12.18357315 82.12669601 -12.19014435 81.29562836 -12.19691467 80.43937683 C-12.21666566 77.68223994 -12.22831413 74.92515756 -12.23828125 72.16796875 C-12.24235678 71.22724329 -12.2464323 70.28651783 -12.25063133 69.31728554 C-12.27149956 64.33839766 -12.28579813 59.35953741 -12.29516602 54.38061523 C-12.30623326 49.23556696 -12.34063463 44.09095085 -12.38033772 38.94605541 C-12.40647155 34.99208263 -12.41485497 31.03821332 -12.41844749 27.08416176 C-12.42332167 25.18753452 -12.43495924 23.29091215 -12.45348549 21.39436913 C-12.47780883 18.73937017 -12.47692455 16.08549596 -12.4699707 13.43041992 C-12.48918579 12.25585236 -12.48918579 12.25585236 -12.50878906 11.05755615 C-12.47315344 7.32351665 -12.13405765 5.20867793 -10.09562683 2.03559875 C-6.56139179 -1.39740007 -4.7133098 -1.25806389 0 0 Z " fill="#080808" transform="translate(231,67)"/>
<path d="M0 0 C-1.47061364 4.72968765 -3.36609773 9.1794764 -5.45703125 13.66015625 C-5.79621582 14.39408096 -6.13540039 15.12800568 -6.48486328 15.88417053 C-7.21286582 17.45896379 -7.94220507 19.03313968 -8.67276001 20.60675049 C-10.61204686 24.78524978 -12.54013073 28.96891263 -14.46875 33.15234375 C-14.85642044 33.99277222 -15.24409088 34.83320068 -15.64350891 35.69909668 C-21.19831913 47.75337835 -26.60393131 59.87394638 -32 72 C-32.57291176 73.2869488 -33.14582855 74.57389536 -33.71875 75.86083984 C-37.15081817 83.5716817 -40.57775846 91.28479115 -44 99 C-47.56817856 99 -48.29351193 98.05736175 -50.73670959 95.6365509 C-51.22151291 95.14096176 -51.70631622 94.64537262 -52.20581055 94.13476562 C-52.72318787 93.61782639 -53.24056519 93.10088715 -53.77362061 92.56828308 C-55.48519127 90.85461924 -57.18588679 89.13056724 -58.88671875 87.40625 C-60.07004961 86.21732508 -61.25404374 85.02905996 -62.43867493 83.84143066 C-65.55737872 80.71126319 -68.66696979 77.57219163 -71.77478027 74.43121338 C-74.94663693 71.22868876 -78.12698518 68.03462207 -81.30664062 64.83984375 C-87.54612484 58.56816851 -93.77601965 52.28705882 -100 46 C-98.46187551 42.92375102 -95.50016542 42.27113874 -92.46875 40.97265625 C-91.78248535 40.67198242 -91.0962207 40.37130859 -90.38916016 40.06152344 C-88.88777615 39.40397934 -87.38519364 38.74916685 -85.8815918 38.09671021 C-81.78922344 36.31959243 -77.70691826 34.5197157 -73.625 32.71875 C-72.76491333 32.33952896 -71.90482666 31.96030792 -71.01867676 31.56959534 C-59.44452073 26.44976963 -47.98255343 21.08689122 -36.51367188 15.73657227 C-27.9951274 11.76429076 -19.46501825 7.8185759 -10.90625 3.93359375 C-10.04439087 3.53930679 -9.18253174 3.14501984 -8.29455566 2.73878479 C-7.10170959 2.19990883 -7.10170959 2.19990883 -5.88476562 1.65014648 C-5.18146118 1.33077621 -4.47815674 1.01140594 -3.75354004 0.68235779 C-2 0 -2 0 0 0 Z " fill="#FD7E84" transform="translate(334,178)"/>
<path d="M0 0 C6.57820369 3.68714602 11.32904536 8.82920676 13.75 16 C14.22084493 20.71932938 14.16628448 25.44701099 14.1875 30.1875 C14.22037109 31.46431641 14.25324219 32.74113281 14.28710938 34.05664062 C14.33751655 42.96954608 13.19086167 50.1538957 7.00830078 56.90063477 C2.10510324 61.5143311 -3.30230488 64.09861341 -10.0625 64.5 C-16.66226525 64.26895799 -22.1808323 61.72025179 -27.10546875 57.35546875 C-34.58387555 49.17538428 -34.74646049 41.27722868 -34.6875 30.5625 C-34.7174707 28.63567383 -34.7174707 28.63567383 -34.74804688 26.66992188 C-34.74354101 17.92403473 -33.91531231 12.13085287 -28.06640625 5.5390625 C-26.95072266 4.59160156 -26.95072266 4.59160156 -25.8125 3.625 C-25.07128906 2.97789062 -24.33007812 2.33078125 -23.56640625 1.6640625 C-16.43452678 -3.45934501 -7.88692362 -3.57620811 0 0 Z " fill="#020202" transform="translate(266.25,383)"/>
<path d="M0 0 C1.84368164 -0.04930664 1.84368164 -0.04930664 3.72460938 -0.09960938 C12.49195415 -0.15104446 19.58211958 1.10713507 26.21508789 7.17919922 C30.82561325 12.08526167 33.41107578 17.4891711 33.8125 24.25 C33.58145799 30.84976525 31.03275179 36.3683323 26.66796875 41.29296875 C18.62875531 48.64258826 10.90872855 48.93519273 0.375 48.875 C-0.86185547 48.89498047 -2.09871094 48.91496094 -3.37304688 48.93554688 C-11.75294891 48.93106804 -17.48261938 48.04699929 -23.89453125 42.54296875 C-29.55586498 35.77967224 -32.34178232 30.10325615 -32.0234375 21.140625 C-31.05863867 13.37736003 -26.73005692 9.100741 -21.00390625 4.1015625 C-14.50989638 -0.56361154 -7.69964942 0.03577535 0 0 Z " fill="#020203" transform="translate(412.6875,231.5625)"/>
<path d="M0 0 C1.2375 -0.02449219 2.475 -0.04898438 3.75 -0.07421875 C12.48481119 -0.10209581 19.04870693 0.78946897 25.80859375 6.55859375 C26.42863281 7.30238281 27.04867187 8.04617187 27.6875 8.8125 C28.32558594 9.55371094 28.96367188 10.29492188 29.62109375 11.05859375 C33.68516735 16.83795981 34.12741247 22.49423903 33.25 29.375 C30.98175146 36.64394531 26.68266062 42.28043122 20.25 46.375 C13.63875317 48.95099452 7.38478478 48.74276596 0.375 48.75 C-0.86636719 48.77449219 -2.10773438 48.79898438 -3.38671875 48.82421875 C-11.80656654 48.85111922 -17.51403488 48.01118245 -23.95703125 42.48046875 C-29.28090045 36.12032331 -32.46578738 30.47867069 -32.15625 21.9921875 C-30.94641327 14.19804703 -26.72476416 8.70867317 -20.8125 3.75 C-14.29603442 -0.59431038 -7.56474917 0.00778266 0 0 Z " fill="#020203" transform="translate(97.75,231.625)"/>
<path d="M0 0 C-1.47061364 4.72968765 -3.36609773 9.1794764 -5.45703125 13.66015625 C-5.79621582 14.39408096 -6.13540039 15.12800568 -6.48486328 15.88417053 C-7.21286582 17.45896379 -7.94220507 19.03313968 -8.67276001 20.60675049 C-10.61204686 24.78524978 -12.54013073 28.96891263 -14.46875 33.15234375 C-14.85642044 33.99277222 -15.24409088 34.83320068 -15.64350891 35.69909668 C-21.19831913 47.75337835 -26.60393131 59.87394638 -32 72 C-32.57291176 73.2869488 -33.14582855 74.57389536 -33.71875 75.86083984 C-37.15081817 83.5716817 -40.57775846 91.28479115 -44 99 C-47 99 -47 99 -49.26171875 97.03125 C-50.06222656 96.1959375 -50.86273438 95.360625 -51.6875 94.5 C-52.49574219 93.6646875 -53.30398438 92.829375 -54.13671875 91.96875 C-54.75160156 91.3190625 -55.36648438 90.669375 -56 90 C-55.5359375 89.04609375 -55.071875 88.0921875 -54.59375 87.109375 C-48.44483198 74.34749857 -42.70210463 61.41287698 -36.97045898 48.46020508 C-32.64974152 38.69785898 -28.28877707 28.95706577 -23.83032227 19.2565918 C-23.46479248 18.45906494 -23.0992627 17.66153809 -22.72265625 16.83984375 C-22.41078369 16.16300537 -22.09891113 15.48616699 -21.77758789 14.78881836 C-20.89269031 12.82504963 -20.89269031 12.82504963 -20 10 C-20.66 9.67 -21.32 9.34 -22 9 C-18.71106997 7.49394598 -15.41842554 5.99619468 -12.125 4.5 C-11.18785156 4.07074219 -10.25070312 3.64148438 -9.28515625 3.19921875 C-7.94130859 2.59013672 -7.94130859 2.59013672 -6.5703125 1.96875 C-5.32918701 1.40317383 -5.32918701 1.40317383 -4.06298828 0.82617188 C-2 0 -2 0 0 0 Z " fill="#E2636C" transform="translate(334,178)"/>
<path d="M0 0 C2.69990662 1.79993774 4.5418865 3.083773 6 6 C6.26855112 9.76500537 6.23160387 13.53899445 6.25 17.3125 C6.270625 18.35857422 6.29125 19.40464844 6.3125 20.48242188 C6.31765625 21.49498047 6.3228125 22.50753906 6.328125 23.55078125 C6.34214355 24.93777222 6.34214355 24.93777222 6.35644531 26.3527832 C5.83988786 30.18910678 4.30110822 32.97770068 1.25 35.375 C-2.09872797 36.30520221 -4.64906504 35.79203917 -8 35 C-10.58455285 33.10466125 -10.96275506 32.11173483 -12 29 C-12.28251603 25.21311621 -12.27752224 21.42125314 -12.3125 17.625 C-12.34150391 16.5834375 -12.37050781 15.541875 -12.40039062 14.46875 C-12.46433715 6.77549091 -12.46433715 6.77549091 -10.10546875 2.8359375 C-6.68936667 -0.14285281 -4.50999111 -0.44215599 0 0 Z " fill="#5A525D" transform="translate(259,396)"/>
<path d="M0 0 C1.56911133 -0.04350586 1.56911133 -0.04350586 3.16992188 -0.08789062 C10.91086828 -0.15194683 10.91086828 -0.15194683 14.85546875 2.20703125 C17.04871973 4.72763312 17.62973642 5.79262781 18 9.125 C17.61403707 13.06182188 16.45353321 14.54646679 13.6875 17.3125 C9.12422321 18.83359226 4.59347494 18.61981567 -0.1875 18.6875 C-1.18136719 18.72488281 -2.17523438 18.76226562 -3.19921875 18.80078125 C-10.57774182 18.88967912 -10.57774182 18.88967912 -14.4453125 15.8515625 C-15.36957031 14.59472656 -15.36957031 14.59472656 -16.3125 13.3125 C-16.6425 12.9825 -16.9725 12.6525 -17.3125 12.3125 C-17.75034542 8.45946032 -17.61835252 6.77127878 -15.4375 3.5 C-11.07151384 -0.99439752 -5.93830258 0.05428065 0 0 Z " fill="#5A525D" transform="translate(98.3125,246.6875)"/>
<path d="M0 0 C0.99837891 -0.020625 1.99675781 -0.04125 3.02539062 -0.0625 C12.31490315 -0.11201106 12.31490315 -0.11201106 16.1875 3.25 C18.52918764 6.76253146 18.68373677 8.11469356 18.1875 12.25 C16.03659549 15.58761045 14.98337201 16.98470933 11.1875 18.25 C7.56730511 18.53095068 3.94239466 18.52746241 0.3125 18.5625 C-1.17830078 18.60600586 -1.17830078 18.60600586 -2.69921875 18.65039062 C-10.04471765 18.71430728 -10.04471765 18.71430728 -13.9453125 16.35546875 C-16.17845867 13.83733949 -16.75229623 12.79183393 -17.125 9.4375 C-16.74085642 5.5192355 -15.51993683 4.03706733 -12.8125 1.25 C-8.96252679 -0.6749866 -4.2349112 0.02162048 0 0 Z " fill="#5A525D" transform="translate(412.8125,246.75)"/>
<path d="M0 0 C2.31 1.98 4.62 3.96 7 6 C5.67387798 8.65224404 4.46293183 8.82978958 1.74609375 9.9453125 C0.89208984 10.29980469 0.03808594 10.65429688 -0.84179688 11.01953125 C-2.18854492 11.56673828 -2.18854492 11.56673828 -3.5625 12.125 C-4.91504883 12.68380859 -4.91504883 12.68380859 -6.29492188 13.25390625 C-8.52754609 14.17530672 -10.76256414 15.09036016 -13 16 C-12 13 -12 13 -10.2578125 12.0078125 C-9.20207031 11.57082031 -9.20207031 11.57082031 -8.125 11.125 C-4.38272697 9.37101872 -2.66178317 7.91007806 -1 4 C-0.67 2.68 -0.34 1.36 0 0 Z " fill="#9DC2F2" transform="translate(271,282)"/>
<path d="M0 0 C0.99 0.33 1.98 0.66 3 1 C0.87838666 3.12161334 -0.7733159 3.92986249 -3.5 5.125 C-4.2940625 5.47820312 -5.088125 5.83140625 -5.90625 6.1953125 C-8 7 -8 7 -10 7 C-9.375 5.125 -9.375 5.125 -8 3 C-5 1.8125 -5 1.8125 -2 1 C-1.34 0.67 -0.68 0.34 0 0 Z " fill="#99BDEB" transform="translate(188,327)"/>
<path d="M0 0 C-2.09782787 2.09782787 -3.3799207 2.6509396 -6.125 3.625 C-6.84945312 3.88539063 -7.57390625 4.14578125 -8.3203125 4.4140625 C-9.15175781 4.70410156 -9.15175781 4.70410156 -10 5 C-9 2 -9 2 -6.125 0.25 C-3 -1 -3 -1 0 0 Z " fill="#9BBFEE" transform="translate(202,323)"/>
<path d="M0 0 C-2.09782787 2.09782787 -3.3799207 2.6509396 -6.125 3.625 C-6.84945312 3.88539063 -7.57390625 4.14578125 -8.3203125 4.4140625 C-9.15175781 4.70410156 -9.15175781 4.70410156 -10 5 C-9 2 -9 2 -6.125 0.25 C-3 -1 -3 -1 0 0 Z " fill="#9BBFEE" transform="translate(213,318)"/>
<path d="M0 0 C-2.09782787 2.09782787 -3.3799207 2.6509396 -6.125 3.625 C-6.84945312 3.88539063 -7.57390625 4.14578125 -8.3203125 4.4140625 C-9.15175781 4.70410156 -9.15175781 4.70410156 -10 5 C-9 2 -9 2 -6.125 0.25 C-3 -1 -3 -1 0 0 Z " fill="#9BBFEE" transform="translate(224,313)"/>
<path d="M0 0 C-2.09782787 2.09782787 -3.3799207 2.6509396 -6.125 3.625 C-6.84945312 3.88539063 -7.57390625 4.14578125 -8.3203125 4.4140625 C-9.15175781 4.70410156 -9.15175781 4.70410156 -10 5 C-9 2 -9 2 -6.125 0.25 C-3 -1 -3 -1 0 0 Z " fill="#9BBFEE" transform="translate(235,308)"/>
<path d="M0 0 C-2.09782787 2.09782787 -3.3799207 2.6509396 -6.125 3.625 C-6.84945312 3.88539063 -7.57390625 4.14578125 -8.3203125 4.4140625 C-9.15175781 4.70410156 -9.15175781 4.70410156 -10 5 C-9 2 -9 2 -6.125 0.25 C-3 -1 -3 -1 0 0 Z " fill="#9BBFEE" transform="translate(246,303)"/>
<path d="M0 0 C-2.09782787 2.09782787 -3.3799207 2.6509396 -6.125 3.625 C-6.84945312 3.88539063 -7.57390625 4.14578125 -8.3203125 4.4140625 C-9.15175781 4.70410156 -9.15175781 4.70410156 -10 5 C-9 2 -9 2 -6.125 0.25 C-3 -1 -3 -1 0 0 Z " fill="#9BBFEE" transform="translate(257,298)"/>
</svg>
